<svg version="1.2" xmlns="http://www.w3.org/2000/svg" viewBox="0 0 1417 1541" width="1417" height="1541">
	<title>akamai-logo1-svg</title>
	<style>
		.s0 { fill: #f38b00 } 
		.s1 { fill: #009bde } 
	</style>
	<g id="Layer">
		<g id="Layer">
			<g id="Layer">
				<path id="Layer" fill-rule="evenodd" class="s0" d="m935.5 1248.9l-53.4 106.8h-172.9l319.2-623.5h252.1l56.1 623.5h-169.3l-9.2-106.8zm196-391.4h-1.9l-133.4 269.8h154.6z"/>
			</g>
			<path id="Layer" class="s1" d="m776.3 1540.8c-428.6 0-775.5-344.4-775.5-769.9 0-425.5 347.8-770.8 775.5-770.8 39.6 0 48.8 22.1 15.7 31.3-322 93-557.5 388.6-557.5 739.5 0 346.3 230.9 639.2 547.4 735.9 35.8 11 34 34-5.6 34zm-420.4-591.2c-26.6-68.2-41.4-142.8-41.4-221 0-338 273.3-611.6 610.9-611.6 374.4 0 503.2 282.8 490.3 292.9-12 9.2-107.6-133.5-426.9-133.5-337.6 0-610.8 273.5-610.8 611.5 0 21.2 1.9 42.3 3.7 62.6 2.8 28.6-14.7 28.6-25.8-0.9zm272.3-452.2c149.1-117 353.3-154.7 543.7-82.9 157.3 58.9 243.8 197.1 233.7 201.7-6.5 2.8-82.8-62.6-214.4-108.7-195.9-68.1-395.5-66.3-553.8 2.8-19.3 8.3-25.7 0-9.2-12.9z"/>
		</g>
	</g>
</svg>