<svg xmlns="http://www.w3.org/2000/svg" id="cb96e7ec-cb95-47e4-891e-e71e51352a89" width="200" height="200" data-name="Layer 1"><defs><style>.f0ee8d3b-89dd-444d-9f12-bc4ba3249d8f{fill:#fff}.d81ac600-6f12-4d5c-9d55-5ed5b37c9647{fill:#1980cc}</style></defs><path d="M138.59 67.71v29.47h-37.25V128H63.6v29.79H26.67v31.32a6.26 6.26 0 0 0 6.25 6.25h145a6.26 6.26 0 0 0 6.25-6.25V67.71h-45.58Z" class="6f6f61ec-57aa-465c-b05b-5fa4251526bf" style="fill:#a0a1a2"/><path d="M177.89 46h-39.3v22h45.55V52.26a6.27 6.27 0 0 0-6.25-6.26Z" class="383843af-ee3d-455d-9f31-76796818f2f9" style="fill:#7a7a7a"/><path d="M145.79 75.48h32.38v21.84h-32.38zM145.79 105.59h32.38v21.84h-32.38z" class="f0ee8d3b-89dd-444d-9f12-bc4ba3249d8f"/><path d="M145.79 135.66h32.38v21.84h-32.38zM145.79 165.77h32.38v21.84h-32.38z" class="d81ac600-6f12-4d5c-9d55-5ed5b37c9647"/><path d="M108.37 105.59h32.38v21.84h-32.38z" class="f0ee8d3b-89dd-444d-9f12-bc4ba3249d8f"/><path d="M108.37 135.66h32.38v21.84h-32.38zM108.37 165.77h32.38v21.84h-32.38z" class="d81ac600-6f12-4d5c-9d55-5ed5b37c9647"/><path d="M70.91 135.66h32.38v21.84H70.91z" class="f0ee8d3b-89dd-444d-9f12-bc4ba3249d8f"/><path d="M70.91 165.77h32.38v21.84H70.91zM49.26 73.49h35.4v23.89h-35.4zM85.08 46.26h43.14v27.73H85.08zM15.1 6.57h69.94V46.3H15.1zM33.49 165.77h32.38v21.84H33.49zM15.42 97.64h34.19v23.04H15.42z" class="d81ac600-6f12-4d5c-9d55-5ed5b37c9647"/></svg>