<svg id="cb96e7ec-cb95-47e4-891e-e71e51352a89" data-name="Layer 1" xmlns="http://www.w3.org/2000/svg" width="200" height="200" viewBox="0 0 200 200"><defs><style>.\36 f6f61ec-57aa-465c-b05b-5fa4251526bf{fill:#a0a1a2;}.\33 83843af-ee3d-455d-9f31-76796818f2f9{fill:#7a7a7a;}.f0ee8d3b-89dd-444d-9f12-bc4ba3249d8f{fill:#fff;}.d81ac600-6f12-4d5c-9d55-5ed5b37c9647{fill:#1980cc;}</style></defs><title>storage-explorer</title><path class="6f6f61ec-57aa-465c-b05b-5fa4251526bf" d="M138.59,67.71V97.18H101.34V128H63.6v29.79H26.67v31.32a6.26,6.26,0,0,0,6.25,6.25h145a6.26,6.26,0,0,0,6.25-6.25V67.71H138.59Z"/><path class="383843af-ee3d-455d-9f31-76796818f2f9" d="M177.89,46h-39.3V68h45.55V52.26A6.27,6.27,0,0,0,177.89,46Z"/><rect class="f0ee8d3b-89dd-444d-9f12-bc4ba3249d8f" x="145.79" y="75.48" width="32.38" height="21.84"/><rect class="f0ee8d3b-89dd-444d-9f12-bc4ba3249d8f" x="145.79" y="105.59" width="32.38" height="21.84"/><rect class="d81ac600-6f12-4d5c-9d55-5ed5b37c9647" x="145.79" y="135.66" width="32.38" height="21.84"/><rect class="d81ac600-6f12-4d5c-9d55-5ed5b37c9647" x="145.79" y="165.77" width="32.38" height="21.84"/><rect class="f0ee8d3b-89dd-444d-9f12-bc4ba3249d8f" x="108.37" y="105.59" width="32.38" height="21.84"/><rect class="d81ac600-6f12-4d5c-9d55-5ed5b37c9647" x="108.37" y="135.66" width="32.38" height="21.84"/><rect class="d81ac600-6f12-4d5c-9d55-5ed5b37c9647" x="108.37" y="165.77" width="32.38" height="21.84"/><rect class="f0ee8d3b-89dd-444d-9f12-bc4ba3249d8f" x="70.91" y="135.66" width="32.38" height="21.84"/><rect class="d81ac600-6f12-4d5c-9d55-5ed5b37c9647" x="70.91" y="165.77" width="32.38" height="21.84"/><rect class="d81ac600-6f12-4d5c-9d55-5ed5b37c9647" x="49.26" y="73.49" width="35.4" height="23.89"/><rect class="d81ac600-6f12-4d5c-9d55-5ed5b37c9647" x="85.08" y="46.26" width="43.14" height="27.73"/><rect class="d81ac600-6f12-4d5c-9d55-5ed5b37c9647" x="15.1" y="6.57" width="69.94" height="39.73"/><rect class="d81ac600-6f12-4d5c-9d55-5ed5b37c9647" x="33.49" y="165.77" width="32.38" height="21.84"/><rect class="d81ac600-6f12-4d5c-9d55-5ed5b37c9647" x="15.42" y="97.64" width="34.19" height="23.04"/></svg>