<svg xmlns="http://www.w3.org/2000/svg" width="64.1" height="70.113" viewBox="0 0 16.96 18.551"><path d="M34.5 64.3V72c1.2-.2 2.4-.6 3.4-1.2L60 58.2c3.1-1.8 5-5 5-8.6V24.5c0-1.1-.2-2.2-.6-3.3l-6.7 3.9-18.5 10.6c-3.8 2.7-4.6 5.2-4.7 8.2z" class="st2" style="fill:#fbbf09" transform="matrix(.26458 0 0 .26458 -.238 -.526)"/><path d="m56.2 22.4 6.7-3.9c-.8-1.1-1.8-2-2.9-2.6L37.9 3.3c-3.1-1.8-6.9-1.7-9.9 0L6 15.9c-1.2.7-2.2 1.6-3 2.7l6.7 3.9 18.5 10.6c2.2 1.4 3.7 2.8 4.7 4.4 1-1.6 2.5-3 4.7-4.4z" class="st3" style="fill:#00a275" transform="matrix(.26458 0 0 .26458 -.238 -.526)"/><path d="m8.3 25.2-6.8-3.9c-.4 1-.6 2.1-.6 3.2v25.2c0 3.5 1.9 6.8 5 8.6l22 12.6c1 .6 2.2 1 3.4 1.2V43.9c-.1-3-.9-5.5-4.7-8.2z" class="st4" style="fill:#eb8a04" transform="matrix(.26458 0 0 .26458 -.238 -.526)"/><path d="m64.4 21.2-6.7 3.9c.2.7.4 1.5.4 2.3v19.4c0 2.8-1.5 5.5-4 6.9l-17 9.7c-.8.4-1.6.7-2.5.9V72c1.2-.2 2.4-.6 3.4-1.2l22-12.6c3.1-1.8 5-5 5-8.6V24.5c0-1.1-.2-2.2-.6-3.3z" class="st5" style="fill:#f5ea64" transform="matrix(.26458 0 0 .26458 -.238 -.526)"/><path d="m12 20.5 16.9-9.7c2.5-1.4 5.6-1.4 8 0l17 9.7c.9.5 1.6 1.2 2.2 1.9l6.7-3.9c-.8-1.1-1.8-2-2.9-2.6l-22-12.6c-3.1-1.8-6.9-1.7-9.9 0L6 15.9c-1.2.7-2.2 1.6-3 2.7l6.7 3.9c.7-.8 1.4-1.5 2.3-2z" class="st6" style="fill:#48c0ed" transform="matrix(.26458 0 0 .26458 -.238 -.526)"/><path d="M28.9 63.4 12 53.7c-2.5-1.4-4-4.1-4-6.9V27.4c0-.8.1-1.5.3-2.2l-6.8-3.9c-.4 1-.6 2.1-.6 3.2v25.2c0 3.5 1.9 6.8 5 8.6l22 12.6c1 .6 2.2 1 3.4 1.2v-7.7c-.8-.3-1.6-.6-2.4-1z" class="st7" style="fill:#fdd657" transform="matrix(.26458 0 0 .26458 -.238 -.526)"/></svg>