<svg xmlns="http://www.w3.org/2000/svg" xml:space="preserve" style="clip-rule:evenodd;fill-rule:evenodd;stroke-linejoin:round;stroke-miterlimit:2" viewBox="0 0 181 148"><path d="M243-334c.106-1.89 1.03-3.56 2.43-4.74 1.37-1.16 3.21-1.87 5.23-1.87 2.01 0 3.85.709 5.22 1.87 1.4 1.18 2.32 2.85 2.43 4.74.106 1.94-.675 3.75-2.04 5.09-1.4 1.36-3.38 2.22-5.61 2.22s-4.22-.854-5.61-2.22c-1.37-1.34-2.15-3.14-2.04-5.08z" style="fill-rule:nonzero;fill:#fff" transform="matrix(6.07 0 0 6.07 -1406.617 2110.165)"/><path d="M243-334c.106-1.89 1.03-3.56 2.43-4.74 1.37-1.16 3.21-1.87 5.23-1.87 2.01 0 3.85.709 5.22 1.87 1.4 1.18 2.32 2.85 2.43 4.74.106 1.94-.675 3.75-2.04 5.09-1.4 1.36-3.38 2.22-5.61 2.22s-4.22-.854-5.61-2.22c-1.37-1.34-2.15-3.14-2.04-5.08z" style="fill-rule:nonzero;fill:#265787" transform="matrix(3.12 0 0 3.12 -664.215 1123.293)"/><path d="M231-330c.013.74.249 2.18.603 3.3.744 2.38 2.01 4.58 3.76 6.51 1.8 1.99 4.02 3.59 6.58 4.73 2.69 1.19 5.61 1.8 8.64 1.8 3.03-.004 5.95-.624 8.64-1.83 2.56-1.15 4.78-2.75 6.58-4.75 1.76-1.95 3.02-4.15 3.76-6.53.375-1.2.612-2.42.707-3.64a16.772 16.772 0 0 0-2.517-10.18c-1.14-1.85-2.62-3.46-4.38-4.82l.004-.003-17.7-13.6c-.016-.012-.029-.025-.046-.036-1.16-.892-3.12-.889-4.39.005-1.29.904-1.44 2.4-.29 3.34l-.005.005 7.39 6.01-22.5.024h-.03c-1.86.002-3.65 1.22-4 2.77-.364 1.57.9 2.88 2.84 2.88l-.003.007 11.4-.022-20.4 15.6-.078.058c-1.92 1.47-2.54 3.92-1.33 5.46 1.23 1.57 3.84 1.58 5.78.009l11.1-9.1s-.162 1.23-.149 1.96zm28.6 4.11c-2.29 2.33-5.5 3.66-8.96 3.66-3.47.006-6.68-1.3-8.97-3.63a10.742 10.742 0 0 1-2.45-3.83 9.956 9.956 0 0 1-.562-4.28c.121-1.43.547-2.8 1.23-4.03.668-1.21 1.59-2.31 2.72-3.24 2.23-1.81 5.06-2.8 8.02-2.8 2.97-.004 5.8.969 8.03 2.78 1.13.924 2.05 2.02 2.72 3.23a9.979 9.979 0 0 1 1.23 4.03 9.988 9.988 0 0 1-.564 4.28c-.508 1.4-1.33 2.7-2.45 3.84z" style="fill-rule:nonzero;fill:#ea7600" transform="matrix(3.12 0 0 3.12 -664.215 1123.293)"/></svg>