<svg xmlns="http://www.w3.org/2000/svg" xmlns:xlink="http://www.w3.org/1999/xlink" xml:space="preserve" viewBox="0 0 512 512"><defs><linearGradient id="a"><stop offset="0" stop-color="#2c2e31"/><stop offset="1" stop-color="#292b2f"/></linearGradient><linearGradient id="b" x1="10.738" x2="500.104" y1="-246.217" y2="-246.217" gradientUnits="userSpaceOnUse"><stop offset="0" stop-color="#fdfdfd" stop-opacity=".992"/><stop offset="1" stop-color="#e7e4e4" stop-opacity=".996"/></linearGradient><linearGradient xlink:href="#a" id="c" x1="253.458" x2="253.458" y1="2.685" y2="507.238" gradientUnits="userSpaceOnUse"/></defs><circle cx="256" cy="-256" r="243" fill="url(#b)" transform="rotate(90)"/><g style="mix-blend-mode:normal"><path fill="url(#c)" d="M256 6.3C114.6 6.3 0 120.9 0 262.3c0 113.1 73.4 209.1 175.1 242.9 12.8 2.4 17.5-5.6 17.5-12.3 0-6.1-.2-26.3-.3-47.7-71.3 15.6-86.3-30.1-86.3-30.1-11.6-29.6-28.4-37.5-28.4-37.5-23.2-15.9 1.8-15.6 1.8-15.6 25.7 1.8 39.2 26.4 39.2 26.4 22.8 39.1 59.9 27.8 74.5 21.3 2.3-16.5 8.9-27.8 16.3-34.2C152.4 369 92.6 347 92.6 249c0-28 10-50.8 26.4-68.7-2.7-6.4-11.4-32.5 2.5-67.7 0 0 21.5-6.9 70.4 26.2 20.4-5.7 42.3-8.5 64.1-8.6 21.8.1 43.7 2.9 64.1 8.6 48.9-33.1 70.3-26.2 70.3-26.2 13.9 35.3 5.2 61.3 2.5 67.7 16.4 17.9 26.3 40.8 26.3 68.7 0 98.3-59.9 120-116.9 126.3 9.2 7.9 17.4 23.5 17.4 47.4 0 34.3-.3 61.8-.3 70.3 0 6.8 4.6 14.8 17.6 12.3 101.7-34 175-129.9 175-243 0-141.4-114.6-256-256-256zM95.9 371c-.6 1.3-2.6 1.7-4.4.8-1.9-.8-2.9-2.6-2.3-3.8.6-1.3 2.6-1.7 4.4-.8 1.9.8 2.9 2.5 2.3 3.8zm12.6 11.2c-1.2 1.1-3.6.6-5.2-1.2-1.7-1.8-2-4.2-.8-5.3 1.3-1.1 3.6-.6 5.3 1.2 1.6 1.8 2 4.2.7 5.3zm8.6 14.4c-1.6 1.1-4.1.1-5.7-2.2s-1.6-5 0-6.1 4.1-.1 5.7 2.1c1.6 2.4 1.6 5.1 0 6.2zm14.6 16.7c-1.4 1.5-4.4 1.1-6.6-1s-2.9-5-1.5-6.5c1.4-1.6 4.4-1.1 6.6 1 2.3 2 3 4.9 1.5 6.5zm18.9 5.6c-.6 2-3.5 2.9-6.4 2.1-2.9-.9-4.8-3.2-4.2-5.3.6-2 3.5-3 6.4-2.1s4.8 3.2 4.2 5.3zm21.5 2.4c.1 2.1-2.4 3.9-5.4 3.9-3.1.1-5.5-1.6-5.6-3.7 0-2.1 2.4-3.9 5.5-3.9 3-.1 5.5 1.6 5.5 3.7zm21.1-.8c.4 2.1-1.8 4.2-4.8 4.7s-5.7-.7-6.1-2.8 1.8-4.2 4.8-4.8c3-.5 5.7.8 6.1 2.9z" style="fill:#161614" transform="matrix(.85293 0 0 .85352 37.65 31.17)"/></g></svg>