<svg xmlns="http://www.w3.org/2000/svg" xmlns:xlink="http://www.w3.org/1999/xlink" id="svg2" width="128" height="128" version="1.0"><defs id="defs4"><linearGradient id="WhiteTransparent" gradientUnits="userSpaceOnUse"><stop id="stop7" offset="0" style="stop-color:white;stop-opacity:1"/><stop id="stop9" offset="1" style="stop-color:white;stop-opacity:0"/></linearGradient><linearGradient id="BlackTransparent" gradientUnits="userSpaceOnUse"><stop id="stop12" offset="0" style="stop-color:black;stop-opacity:1"/><stop id="stop14" offset="1" style="stop-color:black;stop-opacity:0"/></linearGradient><linearGradient xlink:href="#BlackTransparent" id="liquidShade" x1="0" x2="0" y1="128" y2="64" gradientUnits="userSpaceOnUse"/><linearGradient xlink:href="#WhiteTransparent" id="liquidSpecular" x1="0" x2="0" y1="128" y2="76" gradientUnits="userSpaceOnUse"/><linearGradient xlink:href="#WhiteTransparent" id="sideSpecular" x1="80" x2="60" y1="20" y2="40" gradientUnits="userSpaceOnUse"/><linearGradient xlink:href="#WhiteTransparent" id="IcecapTip" x1="60" x2="90" y1="20" y2="50" gradientUnits="userSpaceOnUse"/><linearGradient xlink:href="#WhiteTransparent" id="shinySpecular" x1="33" x2="58" y1="35" y2="60" gradientUnits="userSpaceOnUse"/><linearGradient xlink:href="#linearGradient5785" id="linearGradient9175" x1="82.119" x2="60" y1="20" y2="40" gradientUnits="userSpaceOnUse"/><linearGradient id="linearGradient5785" gradientUnits="userSpaceOnUse"><stop id="stop5787" offset="0" style="stop-color:#c0cdf9;stop-opacity:1"/><stop id="stop5789" offset="1" style="stop-color:#07092d;stop-opacity:.28804347"/></linearGradient><linearGradient xlink:href="#WhiteTransparent-4" id="shinySpecular-4" x1="33" x2="58" y1="35" y2="60" gradientTransform="matrix(1.00918 0 0 1.00918 -.39 -.383)" gradientUnits="userSpaceOnUse"/><linearGradient id="WhiteTransparent-4" gradientUnits="userSpaceOnUse"><stop id="stop7606-4" offset="0" style="stop-color:white;stop-opacity:1"/><stop id="stop7608-7" offset="1" style="stop-color:white;stop-opacity:0"/></linearGradient><linearGradient xlink:href="#WhiteTransparent-4" id="IcecapTip-6" x1="60" x2="90" y1="20" y2="50" gradientUnits="userSpaceOnUse"/><linearGradient id="linearGradient8568"><stop id="stop8570" offset="0" style="stop-color:#fff;stop-opacity:1"/><stop id="stop8572" offset="1" style="stop-color:#fff;stop-opacity:0"/></linearGradient><linearGradient id="linearGradient8738"><stop id="stop8740" offset="0" style="stop-color:#fff;stop-opacity:1"/><stop id="stop8742" offset="1" style="stop-color:#fff;stop-opacity:0"/></linearGradient><linearGradient xlink:href="#linearGradient8866" id="linearGradient8912" x1="231.625" x2="231.75" y1="195.188" y2="201.5" gradientUnits="userSpaceOnUse"/><linearGradient id="linearGradient8866"><stop id="stop8868" offset="0" style="stop-color:#fff;stop-opacity:1"/><stop id="stop8870" offset="1" style="stop-color:#fff;stop-opacity:0"/></linearGradient><linearGradient xlink:href="#linearGradient8866" id="linearGradient8910" x1="231.376" x2="231.376" y1="195.621" y2="200.071" gradientUnits="userSpaceOnUse"/><linearGradient id="linearGradient8916"><stop id="stop8918" offset="0" style="stop-color:#fff;stop-opacity:1"/><stop id="stop8920" offset="1" style="stop-color:#fff;stop-opacity:0"/></linearGradient><linearGradient xlink:href="#linearGradient8866" id="linearGradient8990" x1="231.625" x2="231.75" y1="195.188" y2="201.5" gradientUnits="userSpaceOnUse"/><linearGradient xlink:href="#linearGradient8866" id="linearGradient8992" x1="231.376" x2="231.376" y1="195.621" y2="200.071" gradientUnits="userSpaceOnUse"/><linearGradient id="linearGradient8998"><stop id="stop9000" offset="0" style="stop-color:#fff;stop-opacity:.33004926"/><stop id="stop9002" offset="1" style="stop-color:#fff;stop-opacity:0"/></linearGradient><linearGradient xlink:href="#linearGradient8866" id="linearGradient9023" x1="231.625" x2="231.75" y1="195.188" y2="201.5" gradientUnits="userSpaceOnUse"/><linearGradient xlink:href="#linearGradient8866" id="linearGradient9025" x1="231.376" x2="231.376" y1="195.621" y2="200.071" gradientUnits="userSpaceOnUse"/><linearGradient id="linearGradient9040"><stop id="stop9042" offset="0" style="stop-color:#fff;stop-opacity:1"/><stop id="stop9044" offset="1" style="stop-color:#fff;stop-opacity:0"/></linearGradient><linearGradient id="linearGradient9286"><stop id="stop9288" offset="0" style="stop-color:#fff;stop-opacity:1"/><stop id="stop9290" offset="1" style="stop-color:#fff;stop-opacity:0"/></linearGradient><linearGradient xlink:href="#linearGradient5899-3" id="linearGradient5905" x1="95.5" x2="153.5" y1="208.164" y2="223.5" gradientUnits="userSpaceOnUse"/><linearGradient id="linearGradient5899-3"><stop id="stop5901-1" offset="0" style="stop-color:#fff;stop-opacity:1"/><stop id="stop5903-7" offset="1" style="stop-color:#fff;stop-opacity:0"/></linearGradient><linearGradient xlink:href="#linearGradient5793-6" id="linearGradient5801" x1="57.225" x2="53.632" y1="76.246" y2="84.48" gradientTransform="matrix(.88526 0 0 .88526 5.177 9.23)" gradientUnits="userSpaceOnUse"/><linearGradient id="linearGradient5793-6"><stop id="stop5795-2" offset="0" style="stop-color:#eeeeec;stop-opacity:1"/><stop id="stop5797-1" offset="1" style="stop-color:#eeeeec;stop-opacity:0"/></linearGradient><linearGradient id="linearGradient5805"><stop id="stop5807" offset="0" style="stop-color:#fff;stop-opacity:1"/><stop id="stop5809" offset="1" style="stop-color:#fff;stop-opacity:0"/></linearGradient><linearGradient xlink:href="#WhiteTransparent-4" id="linearGradient5822" x1="73.712" x2="82.754" y1="180.476" y2="187.66" gradientTransform="matrix(.4928 0 0 .4928 -6 -9.723)" gradientUnits="userSpaceOnUse"/><linearGradient id="linearGradient10981-3"><stop id="stop10983-2" offset="0" style="stop-color:#729fcf;stop-opacity:1"/><stop id="stop10985-3" offset="1" style="stop-color:#729fcf;stop-opacity:0"/></linearGradient><linearGradient xlink:href="#linearGradient10981-3" id="linearGradient1030" x1="180.813" x2="153.701" y1="217.5" y2="144.5" gradientTransform="translate(-130.166 -83.353)" gradientUnits="userSpaceOnUse"/><filter id="ShadowBlur" x="0" y="0" filterUnits="userSpaceOnUse"><feGaussianBlur id="feGaussianBlur24" in="SourceAlpha" result="blur" stdDeviation="3"/></filter><filter id="filter6017" color-interpolation-filters="sRGB"><feGaussianBlur id="feGaussianBlur6019" stdDeviation=".805"/></filter><filter id="filter6031" color-interpolation-filters="sRGB"><feGaussianBlur id="feGaussianBlur6033" stdDeviation="3.49"/></filter><filter id="filter8490" color-interpolation-filters="sRGB"><feGaussianBlur id="feGaussianBlur8492" stdDeviation="2.416"/></filter><filter id="filter8732" width="1.156" height="1.228" x="-.078" y="-.114" color-interpolation-filters="sRGB"><feGaussianBlur id="feGaussianBlur8734" stdDeviation="1.958"/></filter><filter id="filter8764" width="1.149" height="1.351" x="-.074" y="-.175" color-interpolation-filters="sRGB"><feGaussianBlur id="feGaussianBlur8766" stdDeviation="2.12"/></filter><filter id="filter8906" width="1.171" height="1.556" x="-.085" y="-.278" color-interpolation-filters="sRGB"><feGaussianBlur id="feGaussianBlur8908" stdDeviation=".565"/></filter><filter id="filter8980" width="1.14" height="1.946" x="-.07" y="-.473" color-interpolation-filters="sRGB"><feGaussianBlur id="feGaussianBlur8982" stdDeviation=".821"/></filter><filter id="filter9068" width="1.152" height="1.331" x="-.076" y="-.166" color-interpolation-filters="sRGB"><feGaussianBlur id="feGaussianBlur9070" stdDeviation=".665"/></filter><filter id="filter9298" color-interpolation-filters="sRGB"><feGaussianBlur id="feGaussianBlur9300" stdDeviation=".326"/></filter><filter id="filter5983-5" width="1.165" height="1.245" x="-.083" y="-.122" color-interpolation-filters="sRGB"><feGaussianBlur id="feGaussianBlur5985-9" stdDeviation="3.687"/></filter><filter id="filter5845" color-interpolation-filters="sRGB"><feGaussianBlur id="feGaussianBlur5847" stdDeviation="1.241"/></filter><filter id="filter10997-7" color-interpolation-filters="sRGB"><feGaussianBlur id="feGaussianBlur10999-0" stdDeviation="2.77"/></filter><radialGradient xlink:href="#linearGradient8568" id="radialGradient9177" cx="116.31" cy="250.897" r="30.6" fx="116.31" fy="250.897" gradientTransform="matrix(1.57005 0 0 1.05093 -75.5 -22.096)" gradientUnits="userSpaceOnUse"/><radialGradient xlink:href="#linearGradient8568" id="radialGradient8574" cx="132.444" cy="251.994" r="30.6" fx="132.444" fy="251.994" gradientTransform="matrix(2.00325 0 0 1.3409 -132.875 -95.166)" gradientUnits="userSpaceOnUse"/><radialGradient xlink:href="#linearGradient8738" id="radialGradient8744" cx="210.25" cy="168.5" r="34.25" fx="210.25" fy="168.5" gradientTransform="matrix(1 0 0 .42336 0 97.164)" gradientUnits="userSpaceOnUse"/><radialGradient xlink:href="#linearGradient8738" id="radialGradient8768" cx="217.5" cy="182.082" r="34.25" fx="217.5" fy="182.082" gradientTransform="matrix(1 0 0 .42336 0 97.164)" gradientUnits="userSpaceOnUse"/><radialGradient xlink:href="#linearGradient8916" id="radialGradient8922" cx="228.219" cy="204.832" r="14.094" fx="228.219" fy="204.832" gradientTransform="matrix(1 0 0 .14775 0 174.57)" gradientUnits="userSpaceOnUse"/><radialGradient xlink:href="#linearGradient8916" id="radialGradient8994" cx="228.219" cy="204.832" r="14.094" fx="228.219" fy="204.832" gradientTransform="matrix(1 0 0 .14775 0 174.57)" gradientUnits="userSpaceOnUse"/><radialGradient xlink:href="#linearGradient8998" id="radialGradient9004" cx="89.875" cy="187.869" r="22.75" fx="89.875" fy="187.869" gradientTransform="matrix(1 0 0 .40708 0 115.76)" gradientUnits="userSpaceOnUse"/><radialGradient xlink:href="#linearGradient9040" id="radialGradient9046" cx="90.281" cy="230.836" r="10.469" fx="90.281" fy="230.836" gradientTransform="matrix(1.18508 -.32836 .12286 .4434 -45.068 152.922)" gradientUnits="userSpaceOnUse"/><radialGradient xlink:href="#linearGradient9286" id="radialGradient11553" cx="68.4" cy="21.226" r="54.783" fx="68.4" fy="21.226" gradientTransform="matrix(1.72215 0 0 1.69498 -49.395 -14.078)" gradientUnits="userSpaceOnUse"/><radialGradient xlink:href="#linearGradient5805" id="radialGradient5811" cx="181.227" cy="214.551" r="22.466" fx="181.227" fy="214.551" gradientTransform="matrix(1.35152 0 0 1.71757 -63.706 -153.956)" gradientUnits="userSpaceOnUse"/><clipPath id="clipoutline1" clipPathUnits="userSpaceOnUse"><path id="outline1" d="M54.1 12.5 12.9 54.7C-2.7 70.3 23 69 32.3 74.9c4.3 2.8-13.8 6.4-10.1 10.1 3.6 3.7 21.7 7.1 25.3 10.7 3.6 3.7-7.3 7.6-3.7 11.3 3.5 3.7 11.9.2 13.4 8.6 1.1 6.2 15.4 3.1 21.8-2.2 4-3.4-6.9-3.4-3.3-7.1 9-9.1 17-4.1 20.3-12.5 1.8-4.5-13.6-7.7-9.5-10.6 9.8-6.9 45.8-10.4 29.2-27L73 12.5c-5.3-5-14-5-18.9 0zm-9.9 64.7c.9 0 30.8 4 19.3 7.1-4.4 1.2-24.6-7.1-19.3-7.1zm57.2 16.6c0 2.1 16.3 3.3 15.4-.5-1.3-6.4-13.6-5.9-15.4.5zm-69.5 11.1c3.7 3.2 9.3-.7 11.1-5.2-3.6-4.7-16.9.3-11.1 5.2zm67.5-6.7c-4.6 4.2.8 8.6 5.3 5.7 1.2-.8-.1-4.7-5.3-5.7z"/></clipPath><clipPath id="clipPath9086" clipPathUnits="userSpaceOnUse"><use xlink:href="#outline1" id="use9088" width="400" height="300" x="0" y="0" class="low-specularity" style="fill:#fff;fill-opacity:1"/></clipPath></defs><style id="style26" type="text/css">.low-specularity{opacity:.25}</style><g id="g9139" style="display:inline;enable-background:new" transform="matrix(.99658 0 0 .99627 .22 -1.598)"><g id="g6035" style="opacity:.7832512" transform="translate(0 .488)"><path id="path5987" d="m54.1 12.988-41.2 42.2c-15.6 15.6 10.1 14.3 19.4 20.2 4.3 2.8-13.8 6.4-10.1 10.1 3.6 3.7 21.7 7.1 25.3 10.7 3.6 3.7-7.3 7.6-3.7 11.3 3.5 3.7 11.9.2 13.4 8.6 1.1 6.2 15.4 3.1 21.8-2.2 4-3.4-6.9-3.4-3.3-7.1 9-9.1 17-4.1 20.3-12.5 1.8-4.5-13.6-7.7-9.5-10.6 9.8-6.9 45.8-10.4 29.2-27L73 12.988c-5.3-5-14-5-18.9 0zm47.3 81.3c0 2.1 16.3 3.3 15.4-.5-1.3-6.4-13.6-5.9-15.4.5zm-69.5 11.1c3.7 3.2 9.3-.7 11.1-5.2-3.6-4.7-16.9.3-11.1 5.2zm67.5-6.7c-4.6 4.2.8 8.6 5.3 5.7 1.2-.8-.1-4.7-5.3-5.7z" style="fill:#000;fill-opacity:1;filter:url(#filter6017)"/><path id="path6021" d="m54.1 13.965-41.2 42.2c-15.6 15.6 10.1 14.3 19.4 20.2 4.3 2.8-13.8 6.4-10.1 10.1 3.6 3.7 21.7 7.1 25.3 10.7 3.6 3.7-7.3 7.6-3.7 11.3 3.5 3.7 11.9.2 13.4 8.6 1.1 6.2 15.4 3.1 21.8-2.2 4-3.4-6.9-3.4-3.3-7.1 9-9.1 17-4.1 20.3-12.5 1.8-4.5-13.6-7.7-9.5-10.6 9.8-6.9 45.8-10.4 29.2-27L73 13.965c-5.3-5-14-5-18.9 0zm47.3 81.3c0 2.1 16.3 3.3 15.4-.5-1.3-6.4-13.6-5.9-15.4.5zm-69.5 11.1c3.7 3.2 9.3-.7 11.1-5.2-3.6-4.7-16.9.3-11.1 5.2zm67.5-6.7c-4.6 4.2.8 8.6 5.3 5.7 1.2-.8-.1-4.7-5.3-5.7z" style="opacity:.5763547;fill:#000;fill-opacity:1;filter:url(#filter6031)"/></g><path id="use7631" d="M54.1 12.5 12.9 54.7C-2.7 70.3 23 69 32.3 74.9c4.3 2.8-13.8 6.4-10.1 10.1 3.6 3.7 21.7 7.1 25.3 10.7 3.6 3.7-7.3 7.6-3.7 11.3 3.5 3.7 11.9.2 13.4 8.6 1.1 6.2 15.4 3.1 21.8-2.2 4-3.4-6.9-3.4-3.3-7.1 9-9.1 17-4.1 20.3-12.5 1.8-4.5-13.6-7.7-9.5-10.6 9.8-6.9 45.8-10.4 29.2-27L73 12.5c-5.3-5-14-5-18.9 0zm47.3 81.3c0 2.1 16.3 3.3 15.4-.5-1.3-6.4-13.6-5.9-15.4.5zm-69.5 11.1c3.7 3.2 9.3-.7 11.1-5.2-3.6-4.7-16.9.3-11.1 5.2zm67.5-6.7c-4.6 4.2.8 8.6 5.3 5.7 1.2-.8-.1-4.7-5.3-5.7z" style="fill:#000;fill-opacity:1"/><path id="use7639" d="M54.1 12.5 12.9 54.7C-2.7 70.3 23 69 32.3 74.9c4.3 2.8-13.8 6.4-10.1 10.1 3.6 3.7 21.7 7.1 25.3 10.7 3.6 3.7-7.3 7.6-3.7 11.3 3.5 3.7 11.9.2 13.4 8.6 1.1 6.2 15.4 3.1 21.8-2.2 4-3.4-6.9-3.4-3.3-7.1 9-9.1 17-4.1 20.3-12.5 1.8-4.5-13.6-7.7-9.5-10.6 9.8-6.9 45.8-10.4 29.2-27L73 12.5c-5.3-5-14-5-18.9 0zm47.3 81.3c0 2.1 16.3 3.3 15.4-.5-1.3-6.4-13.6-5.9-15.4.5zm-69.5 11.1c3.7 3.2 9.3-.7 11.1-5.2-3.6-4.7-16.9.3-11.1 5.2zm67.5-6.7c-4.6 4.2.8 8.6 5.3 5.7 1.2-.8-.1-4.7-5.3-5.7z" style="fill:none"/><use xlink:href="#outline1" id="use7641" width="400" height="300" x="0" y="0" class="low-specularity" clip-path="url(#clipPath9086)" style="opacity:.6699507;fill:url(#linearGradient9175);filter:url(#filter8490)" transform="matrix(.99054 0 0 .99054 .605 .604)"/><path id="path7643" d="M16.565 57.04c-11.202 11.1 8.477 7.972 23.615 13.926l31.285-55c-4.743-4.845-10.798-4.44-15.138 0L16.565 57.039z" style="opacity:.5052631;fill:url(#shinySpecular-4);stroke:none"/><path id="icecap-7" d="m70.5 15.5 16.3 16.6c1.5 1.5 1.5 4.6.6 5.5L79.3 31l-1.6 9.7-6.7-3.6L60.1 44l-3.6-14.5-5.8 12.6-14.5-.1c-2.8 0-2.4-2.9.5-5.8 5.7-6.3 16.8-17 20.3-20.7 3.6-3.7 9.9-3.6 13.5 0z" style="fill:url(#IcecapTip-6);opacity:1"/><path id="path8566" d="M113 203.5s3.34 5.1 3 7.5c-.668 4.709-10.81 7.058-8.563 11.25 2.22 4.141 10.222 1.794 16.938 6.125 6.688 4.313 4.89 13.101 9.75 15.313 9.48 4.312 34.375-7.438 33.125-7.188s-24.57 5.095-29.82.845c-5.986-4.845-7.702-8.23-12.118-11.095-4.137-2.685-9.95-3.78-11.302-5.979-1.353-2.198 2.71-5.034 2.99-9.271.169-2.544-4-7.5-4-7.5z" style="opacity:.2167488;fill:url(#radialGradient9177);fill-opacity:1;fill-rule:evenodd;stroke:none" transform="matrix(.52965 0 0 .52965 -11.722 -13.864)"/><path id="path8718" d="M113 203.5s3.34 5.1 3 7.5c-.668 4.709-10.81 7.058-8.563 11.25 2.22 4.141 10.222 1.794 16.938 6.125 6.688 4.313 4.89 13.101 9.75 15.313 9.48 4.312 34.375-7.438 33.125-7.188-41.34.157-33.625-10.495-49.563-17.5-2.302-1.012-.968-3.763-.687-8 .169-2.544-4-7.5-4-7.5z" style="opacity:.2758621;fill:url(#radialGradient8574);fill-opacity:1;fill-rule:evenodd;stroke:none;filter:url(#filter8732)" transform="matrix(.52965 0 0 .52965 -11.722 -13.864)"/><path id="path8736" d="M183.25 181.75c37.104-13.655 49.024-15.53 61.25-27.75-14.16 11.954-44.099 18.366-68.5 29l7.25-1.25z" style="opacity:.453202;fill:url(#radialGradient8744);fill-opacity:1;fill-rule:evenodd;stroke:none" transform="matrix(.52965 0 0 .52965 -11.722 -13.864)"/><path id="path8746" d="M183.25 181.75c61.104-21.655 50.774-21.53 61.25-27.75-19.428 7.437-55.734 8.23-68.5 29l7.25-1.25z" style="opacity:.5123153;fill:url(#radialGradient8768);fill-opacity:1;fill-rule:evenodd;stroke:none;filter:url(#filter8764)" transform="matrix(.52965 0 0 .52965 -11.722 -14.791)"/><path id="path8864" d="M237.875 199.063c0 1.346-3.554 2.437-7.938 2.437-4.383 0-7.937-1.091-7.937-2.438 0-1.346 3.554-2.437 7.938-2.437 4.383 0 7.937 1.091 7.937 2.438z" style="opacity:.2857143;fill:url(#linearGradient8912);fill-opacity:1;fill-rule:nonzero;stroke:none;stroke-width:1;marker:none;visibility:visible;display:inline;overflow:visible;enable-background:accumulate" transform="matrix(.52965 0 0 .52965 -12.384 -14.791)"/><path id="path8874" d="M237.875 199.063c0 1.346-3.554 2.437-7.938 2.437-4.383 0-7.937-1.091-7.937-2.438 0-1.346 3.554-2.437 7.938-2.437 4.383 0 7.937 1.091 7.937 2.438z" style="opacity:.6206894;fill:url(#linearGradient8910);fill-opacity:1;fill-rule:nonzero;stroke:none;stroke-width:1;marker:none;visibility:visible;display:inline;overflow:visible;filter:url(#filter8906);enable-background:accumulate" transform="matrix(.71315 0 0 1.14078 -54.578 -134.955)"/><path id="path8914" d="M214.125 203.75c3.77 3.484 24.756 5.272 28.188-1-6.737 4.784-21.717 3.103-28.188 1z" style="fill:url(#radialGradient8922);fill-opacity:1;fill-rule:evenodd;stroke:none;filter:url(#filter8980)" transform="matrix(.52965 0 0 .52965 -11.722 -14.239)"/><path id="path8984" d="M236.446 199.063c0 1.702-2.914 3.082-6.509 3.082-3.594 0-6.508-1.38-6.508-3.083 0-1.702 2.914-3.082 6.509-3.082 3.594 0 6.508 1.38 6.508 3.083z" style="opacity:.2857143;fill:url(#linearGradient8990);fill-opacity:1;fill-rule:nonzero;stroke:none;stroke-width:1;marker:none;visibility:visible;display:inline;overflow:visible;enable-background:accumulate" transform="matrix(.20425 -.10356 .23952 .4724 5.755 30.287)"/><path id="path8986" d="M236.993 199.063c0 1.181-3.159 2.14-7.055 2.14-3.897 0-7.056-.959-7.056-2.14 0-1.182 3.159-2.14 7.055-2.14 3.897 0 7.056.958 7.056 2.14z" style="opacity:.6206894;fill:url(#linearGradient8992);fill-opacity:1;fill-rule:nonzero;stroke:none;stroke-width:1;marker:none;visibility:visible;display:inline;overflow:visible;filter:url(#filter8906);enable-background:accumulate" transform="matrix(.27502 -.13944 .51588 1.01747 -65.353 -69.3)"/><path id="path8988" d="M217.058 201.94c3.769 3.485 26.97 8.912 25.255.81-3.318 5.323-18.785 1.293-25.255-.81z" style="fill:url(#radialGradient8994);fill-opacity:1;fill-rule:evenodd;stroke:none;filter:url(#filter8980)" transform="matrix(.20425 -.10356 .23952 .4724 6.26 30.65)"/><path id="path8996" d="M68.25 186c0-.62 38.846 11.838 45.5 18.5-5.471-5.338-33.16-17.616-37.375-17.75-4.215-.134-7.625-.5-8.125-.75z" style="fill:url(#radialGradient9004);fill-opacity:1;fill-rule:evenodd;stroke:none" transform="matrix(.52965 0 0 .52965 -11.722 -13.864)"/><g id="g9018" transform="matrix(.87901 -.193 .23383 .69593 -20.21 36.726)"><path id="path9006" d="M237.875 199.063c0 1.346-3.554 2.437-7.938 2.437-4.383 0-7.937-1.091-7.937-2.438 0-1.346 3.554-2.437 7.938-2.437 4.383 0 7.937 1.091 7.937 2.438z" style="opacity:.2857143;fill:url(#linearGradient9023);fill-opacity:1;fill-rule:nonzero;stroke:none;stroke-width:1;marker:none;visibility:visible;display:inline;overflow:visible;enable-background:accumulate" transform="matrix(.52965 0 0 .52965 -84.416 -4.728)"/><path id="path9008" d="M237.875 199.063c0 1.346-3.554 2.437-7.938 2.437-4.383 0-7.937-1.091-7.937-2.438 0-1.346 3.554-2.437 7.938-2.437 4.383 0 7.937 1.091 7.937 2.438z" style="opacity:.6206894;fill:url(#linearGradient9025);fill-opacity:1;fill-rule:nonzero;stroke:none;stroke-width:1;marker:none;visibility:visible;display:inline;overflow:visible;filter:url(#filter8906);enable-background:accumulate" transform="matrix(.71315 0 0 1.14078 -126.61 -124.892)"/></g><path id="path9038" d="M80.5 220.063s2.103 5.65 7.875 5.937c5.839.29 12.503-7.007 13.063-9.625-1 2.25-6.59 9.033-13.813 8.938-4.1-.054-7.125-5.25-7.125-5.25z" style="opacity:.6157635;fill:url(#radialGradient9046);fill-opacity:1;fill-rule:evenodd;stroke:none;filter:url(#filter9068)" transform="matrix(.52965 0 0 .52965 -11.623 -14.427)"/><path id="87235" d="M63.406 10.219c-3.098 0-6.134 1.122-8.281 3.312L13.937 55.72c-3.765 3.765-4.67 6.23-4.437 7.625.116.697.459 1.303 1.188 1.937.728.635 1.831 1.257 3.156 1.813 2.65 1.112 6.218 2.008 9.719 2.969 3.5.96 6.93 1.974 9.53 3.624.397.259.77.577 1.032 1.032.262.455.354 1.056.25 1.562-.208 1.013-.832 1.547-1.469 2.031-1.273.969-3.023 1.774-4.781 2.626-1.758.851-3.525 1.723-4.406 2.437-.44.357-.6.678-.594.656.006-.022-.117-.273.094-.062.551.567 2.274 1.538 4.468 2.406 2.195.868 4.881 1.746 7.594 2.625 2.713.88 5.458 1.75 7.781 2.656 2.324.907 4.218 1.75 5.47 3 .622.64 1.062 1.436 1.155 2.25.094.814-.126 1.578-.437 2.219-.621 1.281-1.62 2.267-2.531 3.219-.911.951-1.737 1.86-2.032 2.469-.147.304-.17.502-.156.624.014.123.035.247.313.532a1.457 1.457 0 0 1 .031.031c1.194 1.262 3.787 1.44 6.719 2.125 1.466.343 2.999.862 4.312 2 1.314 1.138 2.3 2.87 2.719 5.219.176.994.703 1.479 1.969 1.875 1.266.396 3.194.465 5.312.156 4.237-.619 9.26-2.695 12.156-5.094.18-.153.13-.112.188-.187-.195-.14-.652-.437-1.406-.813-.892-.444-1.945-.86-2.75-1.875-.403-.508-.68-1.31-.563-2.094.118-.784.547-1.436 1.125-2.03 4.746-4.8 9.422-5.945 12.938-6.876 1.758-.465 3.229-.891 4.344-1.594 1.114-.702 1.985-1.663 2.718-3.53.081-.203.079-.262-.031-.5-.11-.24-.404-.622-.875-1.032-.941-.819-2.51-1.7-4.063-2.563-1.552-.863-3.06-1.668-4.156-2.687-.548-.51-1.122-1.152-1.187-2.125-.066-.973.572-1.852 1.312-2.375 2.746-1.933 6.897-3.405 11.406-4.969 4.51-1.564 9.362-3.182 13.313-5.031 3.951-1.85 6.857-3.979 7.781-6.125.462-1.073.547-2.159.063-3.563-.484-1.403-1.59-3.12-3.562-5.093L72 13.562l-.031-.03c-2.358-2.208-5.479-3.313-8.563-3.313zm45.938 80c-2.635.095-5.06 1.301-6.094 3.187.294.11.558.235 1.031.344 1.376.316 3.296.52 5.188.563 1.892.041 3.784-.118 4.937-.438.505-.14.773-.282.906-.375-.255-1.091-.864-1.862-1.906-2.438-1.078-.595-2.556-.898-4.062-.843zm-70.5 9.062c-2.09-.145-4.717.687-6 1.719-.642.516-.914.994-.938 1.313-.024.318.078.741.938 1.468a1.457 1.457 0 0 1 0 .031c1.353 1.17 2.882 1.048 4.625.094 1.46-.8 2.757-2.3 3.625-3.875a4.57 4.57 0 0 0-2.25-.75zm61 .625c-.448.569-.691 1.098-.719 1.469-.038.512.107.907.5 1.281.737.701 2.34 1.003 3.969.125a1.99 1.99 0 0 0-.344-.844c-.5-.734-1.669-1.525-3.406-2.03z" style="fill:none;stroke:url(#radialGradient11553);stroke-width:1.0035907;stroke-miterlimit:4;stroke-opacity:1;stroke-dasharray:none;filter:url(#filter9298)"/><path id="path5897" d="M95.5 172c-5.09 1.502-21.592 7.737-19.25 12.5 2.244 4.563 40.611 6.401 46.5 20 2.568 5.93-5.892 10.403-3.75 16.5 1.65 4.695 14.412 16.49 22.486 22.068 6.333 4.374 14.651-3.523 11.264-10.068-5.396-10.428 18.443-23.2 29.25-29 6.305-3.384-13-20-13-20l-73.5-12z" style="opacity:.3251231;fill:url(#linearGradient5905);fill-opacity:1;fill-rule:evenodd;stroke:none;filter:url(#filter5983-5)" transform="matrix(.4883 0 0 .4883 -5.81 -7.704)"/><path id="path5783" d="M41.742 78.533c2.232 1.64 6.637.65 9.282 1.842 6.35 2.859 14.155 6.045 12.719.404l-1.616 1.342-.031-2.557-3.752.916s-2.907-2.333-4.239-3.102c-.278-.16-1.708 1.293-1.708 1.293l-.257-1.544a47.62 47.62 0 0 0-5.315-.272c-3.88.031-6.499.638-5.083 1.678z" style="fill:url(#linearGradient5801);fill-opacity:1;fill-rule:evenodd;stroke:none"/><path id="path5803" d="M182.75 187.25c-1.76 6.478 21.628 15.28 19.875 19.75-3.859 9.842-24.976 3.138-41.125 23.75-2.313 2.953 3.25 13.5 2.5 12.25s-6.465-9.963-5-14.25c4.594-13.445 49.013-18.457 40.875-24.875-4.68-3.69-21.506-13.887-17.125-16.625z" style="opacity:.4778325;fill:url(#radialGradient5811);fill-opacity:1;fill-rule:evenodd;stroke:none;filter:url(#filter5845)" transform="matrix(.4883 0 0 .4883 -5.81 -7.704)"/><path id="path6041" d="M236.5 201.188c0 .586-1.147 1.062-2.563 1.062-1.415 0-2.562-.476-2.562-1.063 0-.586 1.147-1.062 2.563-1.062 1.415 0 2.562.476 2.562 1.063z" style="opacity:.5862069;fill:#fff;fill-opacity:1;fill-rule:nonzero;stroke:none;stroke-width:1;marker:none;visibility:visible;display:inline;overflow:visible;enable-background:accumulate" transform="matrix(.4883 0 0 .4883 -6.36 -8.01)"/><path id="path6043" d="M236.5 201.188c0 .586-1.147 1.062-2.563 1.062-1.415 0-2.562-.476-2.562-1.063 0-.586 1.147-1.062 2.563-1.062 1.415 0 2.562.476 2.562 1.063z" style="opacity:.5862069;fill:#fff;fill-opacity:1;fill-rule:nonzero;stroke:none;stroke-width:1;marker:none;visibility:visible;display:inline;overflow:visible;enable-background:accumulate" transform="matrix(.30966 0 0 .4883 27.528 1.574)"/><path id="path6045" d="M236.5 201.188c0 .586-1.147 1.062-2.563 1.062-1.415 0-2.562-.476-2.562-1.063 0-.586 1.147-1.062 2.563-1.062 1.415 0 2.562.476 2.562 1.063z" style="opacity:.5862069;fill:#fff;fill-opacity:1;fill-rule:nonzero;stroke:none;stroke-width:1;marker:none;visibility:visible;display:inline;overflow:visible;enable-background:accumulate" transform="matrix(.54786 0 0 .4883 -92.102 1.116)"/><path id="path5049" d="M36.672 76.529c-7.153 4.424-18.274 6.034-6.104 8.972-1.45-3.228 3.139-2.872 6.104-8.972z" style="opacity:.2512315;fill:url(#linearGradient5822);fill-opacity:1;fill-rule:nonzero;stroke:none;stroke-width:2.0478933;marker:none;visibility:visible;display:inline;overflow:visible;enable-background:accumulate"/><path id="path10207" d="M8.834 171.647s22.592-2.128 27.818-8.646c3.058-3.814-12.151-8.264-8.868-12 12.35-14.054 22.73-13.468 37.05-19.354 14.32-5.886 9.036-8.769 4.404-11.353-7.932-4.427-25.587-9.143-19.747-19.647 5.877-10.57 57.343-25.25 57.343-25.25 15.596-5.328 13.64-14.964 6-23l-46-45.75s2.283 43.389-7 62c-11.471 23-72.544 48.662-47 51.5 9 1 13.32 4.07 17 11 7.577 14.269-21 40.5-21 40.5z" style="opacity:.3631579;color:#000;fill:url(#linearGradient1030);fill-opacity:1;fill-rule:nonzero;stroke:none;stroke-width:2;marker:none;visibility:visible;display:inline;overflow:visible;filter:url(#filter10997-7);enable-background:accumulate" transform="matrix(.4883 0 0 .4883 57.75 32.997)"/></g></svg>