<svg xmlns="http://www.w3.org/2000/svg" width="32" height="32" viewBox="0 0 8.467 8.467"><defs><linearGradient id="a" x1="16.181" x2="16.181" y1="28.39" y2="5.61" gradientTransform="matrix(.26458 0 0 .26458 100.277 143.404)" gradientUnits="userSpaceOnUse"><stop stop-color="#7400E1"/><stop offset="1" stop-color="#4000BF"/></linearGradient></defs><path fill="#fff" d="M104.51 151.92a4.018 4.018 0 1 0 0-8.036 4.018 4.018 0 0 0 0 8.036z" style="stroke-width:.264583" transform="translate(-100.277 -143.669)"/><path fill="#4000bf" d="M104.51 143.669a4.233 4.233 0 1 0 0 8.466 4.233 4.233 0 0 0 0-8.466zm0 .43a3.803 3.803 0 1 1 0 7.606 3.803 3.803 0 0 1 0-7.606z" style="stroke-width:.264583" transform="translate(-100.277 -143.669)"/><path fill="url(#a)" fill-rule="evenodd" d="M104.558 144.889a3.014 3.014 0 1 1-2.787 1.864 1.172 1.172 0 1 0 1.638-1.638 3.005 3.005 0 0 1 1.15-.226z" clip-rule="evenodd" style="fill:url(#a);stroke-width:.264583" transform="translate(-100.277 -143.669)"/></svg>