<?xml version="1.0" encoding="UTF-8" standalone="no"?>
<!-- Created with Inkscape (http://www.inkscape.org/) -->

<svg
   width="8.4666662mm"
   height="8.4666672mm"
   viewBox="0 0 8.4666662 8.4666672"
   version="1.1"
   id="svg1"
   xmlns:inkscape="http://www.inkscape.org/namespaces/inkscape"
   xmlns:sodipodi="http://sodipodi.sourceforge.net/DTD/sodipodi-0.dtd"
   xmlns="http://www.w3.org/2000/svg"
   xmlns:svg="http://www.w3.org/2000/svg">
  <sodipodi:namedview
     id="namedview1"
     pagecolor="#505050"
     bordercolor="#ffffff"
     borderopacity="1"
     inkscape:showpageshadow="0"
     inkscape:pageopacity="0"
     inkscape:pagecheckerboard="1"
     inkscape:deskcolor="#d1d1d1"
     inkscape:document-units="mm" />
  <defs
     id="defs1">
    <linearGradient
       id="paint0_linear"
       x1="16.180799"
       y1="28.3899"
       x2="16.180799"
       y2="5.61023"
       gradientUnits="userSpaceOnUse"
       gradientTransform="matrix(0.26458333,0,0,0.26458333,100.27708,143.40417)">
      <stop
         stop-color="#7400E1"
         id="stop4" />
      <stop
         offset="1"
         stop-color="#4000BF"
         id="stop5" />
    </linearGradient>
  </defs>
  <g
     inkscape:label="Layer 1"
     inkscape:groupmode="layer"
     id="layer1"
     transform="translate(-100.27708,-143.66874)">
    <path
       d="m 104.51039,151.92018 c 2.21914,0 4.01809,-1.79895 4.01809,-4.01809 0,-2.21912 -1.79895,-4.01807 -4.01809,-4.01807 -2.21912,0 -4.01808,1.79895 -4.01808,4.01807 0,2.21914 1.79896,4.01809 4.01808,4.01809 z"
       fill="#ffffff"
       id="path1"
       style="stroke-width:0.264583" />
    <path
       d="m 104.51041,143.66875 c -2.338,0 -4.23333,1.89533 -4.23333,4.23334 0,2.33801 1.89533,4.23333 4.23333,4.23333 2.33802,0 4.23334,-1.89532 4.23334,-4.23333 0,-2.33801 -1.89532,-4.23334 -4.23334,-4.23334 z m 0,0.43051 c 2.10024,0 3.80283,1.70259 3.80283,3.80283 0,2.10023 -1.70259,3.80283 -3.80283,3.80283 -2.10024,0 -3.80282,-1.7026 -3.80282,-3.80283 0,-2.10024 1.70258,-3.80283 3.80282,-3.80283 z"
       fill="#4000bf"
       id="path2"
       style="stroke-width:0.264583" />
    <path
       fill-rule="evenodd"
       clip-rule="evenodd"
       d="m 104.55825,144.88854 c 1.66436,0 3.01358,1.34921 3.01358,3.01357 0,1.66434 -1.34922,3.01355 -3.01358,3.01355 -1.66433,0 -3.01355,-1.34921 -3.01355,-3.01355 0,-0.40677 0.0806,-0.7947 0.22667,-1.14871 0.21329,0.29046 0.55726,0.47903 0.94527,0.47903 0.64725,0 1.17195,-0.5247 1.17195,-1.17195 0,-0.38801 -0.18857,-0.73198 -0.47906,-0.94527 0.35404,-0.14608 0.74198,-0.22667 1.14872,-0.22667 z"
       fill="url(#paint0_linear)"
       id="path3"
       style="fill:url(#paint0_linear);stroke-width:0.264583" />
  </g>
</svg>
