<svg xmlns="http://www.w3.org/2000/svg" width="84.89" height="94.38" viewBox="0 0 22.46 24.971"><path d="M110.421 135.467H94.517a1.384 1.384 0 0 0-1.384 1.383v18.389a1.384 1.384 0 0 0 1.384 1.384h15.904a1.384 1.384 0 0 0 1.384-1.384V136.85a1.384 1.384 0 0 0-1.384-1.383z" class="b" style="fill:#3f60a8;fill-opacity:.4;stroke-width:.264583" transform="translate(-93.133 -135.467)"/><path d="M112.728 137.774H96.824a1.384 1.384 0 0 0-1.384 1.384v18.386a1.386 1.386 0 0 0 1.384 1.386h15.904a1.386 1.386 0 0 0 1.384-1.387v-18.385a1.384 1.384 0 0 0-1.384-1.384z" class="b" style="fill:#3f60a8;fill-opacity:.4;stroke-width:.264583" transform="translate(-93.133 -135.467)"/><path d="M99.041 140.081h15.169a1.384 1.384 0 0 1 1.384 1.384v17.59a1.381 1.381 0 0 1-1.384 1.383H99.041a1.381 1.381 0 0 1-1.383-1.384v-17.59a1.384 1.384 0 0 1 1.383-1.383z" class="a" style="fill:#3e5fa8;stroke-width:.264583" transform="translate(-93.133 -135.467)"/><path d="M102.534 144.478v10.983h1.46v-3.844l1.831-1.71 3.97 5.557h1.851l-4.813-6.554 4.628-4.429h-1.892l-5.556 5.477v-5.477z" class="c" style="fill:#fff;stroke-width:.264583" transform="translate(-93.133 -135.467)"/></svg>