<?xml version="1.0" encoding="UTF-8" standalone="no"?>
<!-- Created with Inkscape (http://www.inkscape.org/) -->

<svg
   width="22.460484mm"
   height="24.971394mm"
   viewBox="0 0 22.460484 24.971394"
   version="1.1"
   id="svg1"
   inkscape:export-filename="kustomize.svg"
   inkscape:export-xdpi="1366.097"
   inkscape:export-ydpi="1366.097"
   xmlns:inkscape="http://www.inkscape.org/namespaces/inkscape"
   xmlns:sodipodi="http://sodipodi.sourceforge.net/DTD/sodipodi-0.dtd"
   xmlns="http://www.w3.org/2000/svg"
   xmlns:svg="http://www.w3.org/2000/svg">
  <sodipodi:namedview
     id="namedview1"
     pagecolor="#505050"
     bordercolor="#ffffff"
     borderopacity="1"
     inkscape:showpageshadow="0"
     inkscape:pageopacity="0"
     inkscape:pagecheckerboard="1"
     inkscape:deskcolor="#d1d1d1"
     inkscape:document-units="mm" />
  <defs
     id="defs1" />
  <g
     inkscape:label="Layer 1"
     inkscape:groupmode="layer"
     id="layer1"
     transform="translate(-93.133333,-135.46667)">
    <path
       class="b"
       d="M 110.42121,135.46667 H 94.517104 a 1.3837708,1.3837708 0 0 0 -1.383771,1.38377 v 18.38854 a 1.3837708,1.3837708 0 0 0 1.383771,1.38377 h 15.904106 a 1.3837708,1.3837708 0 0 0 1.38377,-1.38377 v -18.38854 a 1.3837708,1.3837708 0 0 0 -1.38377,-1.38377 z"
       id="path5"
       style="fill:#3f60a8;fill-opacity:0.4;stroke-width:0.264583" />
    <path
       class="b"
       d="m 112.72837,137.77384 h -15.9041 a 1.3837708,1.3837708 0 0 0 -1.383771,1.38377 v 18.38589 a 1.3864166,1.3864166 0 0 0 1.383771,1.38642 h 15.9041 a 1.3864166,1.3864166 0 0 0 1.38378,-1.38642 v -18.38589 a 1.3837708,1.3837708 0 0 0 -1.38378,-1.38377 z"
       id="path6"
       style="fill:#3f60a8;fill-opacity:0.4;stroke-width:0.264583" />
    <path
       class="a"
       d="m 99.041479,140.081 h 15.168561 a 1.3837708,1.3837708 0 0 1 1.38377,1.38377 v 17.5895 a 1.381125,1.381125 0 0 1 -1.38377,1.38378 H 99.041479 a 1.381125,1.381125 0 0 1 -1.383771,-1.38378 v -17.5895 a 1.3837708,1.3837708 0 0 1 1.383771,-1.38377 z"
       id="path7"
       style="fill:#3e5fa8;stroke-width:0.264583" />
    <path
       class="c"
       d="m 102.53398,144.47838 v 10.98285 h 1.4605 v -3.84439 l 1.83092,-1.70921 3.96875,5.55625 h 1.85208 l -4.81277,-6.55373 4.62756,-4.42913 h -1.89177 l -5.55625,5.47688 v -5.47688 z"
       id="path8"
       style="fill:#ffffff;stroke-width:0.264583" />
  </g>
</svg>
