<svg xmlns="http://www.w3.org/2000/svg" xmlns:xlink="http://www.w3.org/1999/xlink" width="128" height="128" style="display:inline;enable-background:new" version="1.0"><defs><linearGradient id="b"><stop offset="0" style="stop-color:#c64600;stop-opacity:1"/><stop offset=".846" style="stop-color:#c64600;stop-opacity:1"/><stop offset=".923" style="stop-color:#e66100;stop-opacity:1"/><stop offset="1" style="stop-color:#c64600;stop-opacity:1"/></linearGradient><linearGradient id="a"><stop offset="0" style="stop-color:#1a5fb4;stop-opacity:1"/><stop offset=".188" style="stop-color:#1c71d8;stop-opacity:1"/><stop offset=".375" style="stop-color:#1a5fb4;stop-opacity:1"/><stop offset="1" style="stop-color:#1a5fb4;stop-opacity:1"/></linearGradient><linearGradient xlink:href="#a" id="c" x1="12" x2="116" y1="64" y2="64" gradientUnits="userSpaceOnUse"/><linearGradient xlink:href="#b" id="d" x1="63.971" x2="116" y1="112" y2="112" gradientTransform="matrix(1 0 0 .99997 0 .003)" gradientUnits="userSpaceOnUse"/></defs><g style="display:inline" transform="translate(0 -172)"><rect width="104" height="100" x="12" y="184" ry="39" style="opacity:1;fill:#3584e4;fill-opacity:1;stroke:none;stroke-width:.1;stroke-miterlimit:4;stroke-dasharray:none;stroke-opacity:1"/><path d="M12 74.523v4h.04C12.834 99.417 29.904 116 51 116h26l-13.03-.004V112H51c-21.095 0-38.165-16.583-38.96-37.477H12z" style="opacity:1;fill:url(#c);fill-opacity:1;stroke:none;stroke-width:5;stroke-miterlimit:4;stroke-dasharray:none;stroke-opacity:1" transform="translate(0 172)"/><path d="M116 104c0 4.432-3.568 8-8 8H63.97v3.996L77 116h31c4.432 0 8-3.568 8-8v-4z" style="display:inline;fill:url(#d);fill-opacity:1;stroke-width:.99998552;enable-background:new" transform="translate(0 172)"/><path d="M20 184c-4.432 0-8 3.568-8 8v37.324c2.417 6.195 5.9 11.984 10.607 17.051 5.504 5.924 13.68 10.88 22.143 12.717 8.462 1.838 17.207.56 23.86-5.973 2.278-2.238 4.199-5.554 4.876-8.951.678-3.397.113-6.873-2.574-9.445-.853-.817-2.113-1.512-3.392-1.743-1.272-.229-2.558 0-3.483 1.02 1.032.938 1.265 2.243 1.033 3.525-.232 1.291-.932 2.562-1.756 3.422-2.585 2.7-6.083 3.266-9.492 2.586-3.408-.68-6.731-2.604-8.976-4.89-4.91-5-6.856-11.179-6.746-17.532.036-2.117.301-4.254.761-6.373 1.84-8.474 6.799-16.657 12.73-22.168 3.789-3.518 7.98-6.35 12.44-8.57z" style="opacity:1;fill:#ff9632;fill-opacity:1;stroke:none;stroke-width:0;stroke-miterlimit:4;stroke-dasharray:none;stroke-opacity:1"/><path d="M76.889 208.148c-6.342-.11-12.51 1.833-17.498 6.733-2.279 2.238-4.198 5.556-4.875 8.953-.678 3.397-.113 6.873 2.574 9.445.852.817 2.113 1.512 3.392 1.742 1.272.23 2.558 0 3.483-1.021-1.032-.938-1.265-2.243-1.033-3.525.232-1.291.932-2.562 1.755-3.422 2.586-2.7 6.084-3.266 9.493-2.586 3.408.68 6.73 2.605 8.974 4.89 4.91 5 6.858 11.179 6.748 17.532a32.737 32.737 0 0 1-.761 6.373c-1.84 8.474-6.799 16.657-12.73 22.168-3.789 3.518-7.98 6.35-12.44 8.57H108c4.432 0 8-3.568 8-8v-37.324c-2.417-6.195-5.9-11.984-10.607-17.051-5.504-5.924-13.679-10.877-22.141-12.715a32.72 32.72 0 0 0-6.363-.762z" style="opacity:1;fill:#ff9632;fill-opacity:1;stroke:none;stroke-width:0;stroke-miterlimit:4;stroke-dasharray:none;stroke-opacity:1"/></g></svg>