<?xml version="1.0" encoding="UTF-8" standalone="no"?>
<!-- Created with Inkscape (http://www.inkscape.org/) -->

<svg
   width="66.674995mm"
   height="66.675003mm"
   viewBox="0 0 66.674995 66.675003"
   version="1.1"
   id="svg1"
   xmlns:inkscape="http://www.inkscape.org/namespaces/inkscape"
   xmlns:sodipodi="http://sodipodi.sourceforge.net/DTD/sodipodi-0.dtd"
   xmlns="http://www.w3.org/2000/svg"
   xmlns:svg="http://www.w3.org/2000/svg">
  <sodipodi:namedview
     id="namedview1"
     pagecolor="#505050"
     bordercolor="#ffffff"
     borderopacity="1"
     inkscape:showpageshadow="0"
     inkscape:pageopacity="0"
     inkscape:pagecheckerboard="1"
     inkscape:deskcolor="#d1d1d1"
     inkscape:document-units="mm" />
  <defs
     id="defs1" />
  <g
     inkscape:label="Layer 1"
     inkscape:groupmode="layer"
     id="layer1"
     transform="translate(-71.172914,-114.56459)">
    <g
       id="mole"
       transform="matrix(0.26458333,0,0,0.26458333,71.172917,114.56458)">
      <path
         d="m 0,126 c 0,69.6 56.5,126 126,126 69.5,0 126,-56.4 126,-126 C 252,56.4 195.6,0 126,0 56.4,0 0,56.4 0,126 Z"
         id="bg"
         fill="#192e45" />
      <g
         id="body"
         transform="translate(16.537031,66.8)">
        <path
           d="M 7.3629695,29.8 0.26296948,44.2 9.8629695,30.8 c 0,0.1 -0.6,19.3 -0.6,19.3 L 11.96297,35.6 c 7.199999,13.7 23.099999,34.8 45.399999,50.5 1.7,1.2 3.9,3.3 4.6,4.1 0,0 21.3,10.8 54.100001,-14.2 0.3,-0.2 0.7,-0.4 1,-0.6 l 0.5,0.3 7.2,4.8 c -2.5,-0.7 -7.3,-1.9 -7.3,-1.9 -15.8,18.2 -41.500001,21.2 -55.3,12 -0.600001,-0.4 -4,1 -4.600001,3 -0.399999,1.1 0,2.3 0.5,3.2 2.8,5.2 7,4.7 5,10.8 -1.399999,3.3 -3.399999,6.5 -5.6,9.5 -4.6,6.2 -11.799999,11.7 -11.1,15 32.6,40.2 106.100001,34.6 134.100001,-1.3 -0.4,-5.2 -8.6,-7.7 -14.3,-20.4 1.6,0.5 4,1.2 4,1.1 0,-0.1 -6.8,-11.1 -7.1,-12.2 l 4.4,0.3 c 0,0 -5.8,-7.2 -6,-7.9 l 5.9,-0.8 c 0,0 -7.4,-8.5 -7.5,-9.2 l 7.5,1.2 -8.2,-9.9 h 3.9 l -4.6,-6.7 -37.3,-14.7 c -14.3,-8.9 -27,-19.8 -36.600001,-28.2 l -19.3,-9.4 c -18.5,-1.4 -35.8,-0.9 -46.4,1.2 l 6.8,-11.6 -9.899999,11.8 c -0.6,-0.2 -1.3,-0.4 -1.3,-0.4 l 0.7,-15 -3.3,14 z"
           id="fur"
           fill="#d2943b" />
        <path
           d="M 11.86297,14 C 6.9629695,11.7 1.2629695,15 0.26296948,19.5 c -1.2,4.3 1.80000002,9.6 7.10000002,10.3 C 12.36297,26.7 16.662969,18.7 11.86297,14 Z"
           id="nose"
           fill="#ffcd86" />
      </g>
      <g
         id="helmet"
         transform="translate(71.5,35.408839)">
        <path
           d="m 29.7,34.491161 c -1.5,-4.1 -1.1,-9.4 1,-14.4 3,-6.9 8.7,-11.5 14.1,-11.5 1.1,0 2.1,0.2 3.1,0.6 3.1,-2.8 6.7,-5.1 10.7,-6.7 22,-8.8 54.3,6.9 62.6,28.5 4,10.5 2.8,21.9 -0.6,32.4 -2.8,8.6 -13,21 -9.2,30.3 -1.5,-0.4 -32.8,-11 -41.8,-15.8 -14.1,-8.8 -26.7,-19.6 -36.2,-27.9 l -0.3,-0.3 -32,-15.2 c -0.4,-0.2 -0.8,-0.4 -1.1,-0.6 4.4,0.2 21.9,2.3 29.7,0.6"
           fill="#ffd524"
           id="path1" />
        <g
           id="lamp"
           transform="translate(29.4163,9.284991)"
           fill-rule="nonzero">
          <ellipse
             id="lamp-light"
             fill="#ffffff"
             transform="rotate(-66.37784,12.87074,15.70599)"
             cx="12.87074"
             cy="15.70599"
             rx="13.599884"
             ry="8.0999308" />
          <path
             d="m 19.1837,1.40617 c -5.3,-2.3 -12.4,2.2 -15.9,10.1 -3.5,7.9 -1.9,16.1 3.4,18.5 5.3,2.3 12.4,-2.2 15.9,-10.1 3.5,-7.9 1.9,-16.1 -3.4,-18.5 z m 0.5,17.3 c -2.8,6.3 -8.1,10.1 -11.8,8.5 -3.8,-1.7 -4.6,-8.1 -1.8,-14.5 2.8,-6.3 8.1,-10.1 11.9,-8.5 3.7,1.7 4.5,8.2 1.7,14.5 z"
             id="lamp-ring"
             fill="#192e45" />
        </g>
      </g>
    </g>
  </g>
</svg>
