<svg xmlns="http://www.w3.org/2000/svg" width="252" height="252" viewBox="0 0 66.675 66.675"><path fill="#192e45" d="M0 33.337c0 18.415 14.949 33.338 33.338 33.338 18.388 0 33.337-14.923 33.337-33.338S51.753 0 33.338 0C14.923 0 0 14.922 0 33.337Z"/><path fill="#d2943b" d="m6.324 25.559-1.879 3.81 2.54-3.546-.159 5.107.715-3.837c1.905 3.625 6.112 9.208 12.012 13.362a9.01 9.01 0 0 1 1.217 1.085s5.635 2.857 14.314-3.758c.08-.052.185-.105.264-.158l.133.08 1.905 1.27a98.148 98.148 0 0 0-1.932-.504c-4.18 4.816-10.98 5.61-14.631 3.175-.159-.105-1.059.265-1.217.794-.106.291 0 .609.132.847.74 1.376 1.852 1.243 1.323 2.857-.37.873-.9 1.72-1.482 2.514-1.217 1.64-3.122 3.095-2.937 3.969 8.626 10.636 28.073 9.154 35.48-.344-.105-1.376-2.274-2.038-3.783-5.398.424.132 1.059.318 1.059.291 0-.026-1.8-2.937-1.879-3.228l1.164.08s-1.534-1.905-1.587-2.09l1.56-.212s-1.957-2.25-1.983-2.434l1.984.317-2.17-2.62h1.032l-1.217-1.772-9.869-3.89c-3.783-2.354-7.144-5.238-9.684-7.46l-5.106-2.488c-4.895-.37-9.472-.238-12.277.318l1.8-3.07-2.62 3.123c-.159-.053-.344-.106-.344-.106l.185-3.969-.873 3.704z"/><path fill="#ffcd86" d="M7.514 21.378c-1.296-.608-2.804.265-3.069 1.456-.317 1.137.476 2.54 1.879 2.725 1.322-.82 2.46-2.937 1.19-4.18Z"/><path fill="#ffd524" d="M26.776 18.494c-.397-1.084-.291-2.487.264-3.81.794-1.825 2.302-3.042 3.731-3.042.291 0 .556.053.82.158a9.478 9.478 0 0 1 2.831-1.772c5.821-2.329 14.367 1.825 16.563 7.54 1.059 2.778.741 5.795-.159 8.573-.74 2.275-3.44 5.556-2.434 8.017-.397-.106-8.678-2.91-11.06-4.18-3.73-2.33-7.064-5.187-9.577-7.383l-.08-.079-8.466-4.022c-.106-.053-.212-.105-.291-.158 1.164.053 5.794.608 7.858.158"/><g transform="matrix(.26458 0 0 .26458 26.7 11.825)"><ellipse cx="12.871" cy="15.706" fill="#fff" rx="13.6" ry="8.1" transform="rotate(-66.378 12.87 15.706)"/><path fill="#192e45" d="M19.184 1.406c-5.3-2.3-12.4 2.2-15.9 10.1-3.5 7.9-1.9 16.1 3.4 18.5 5.3 2.3 12.4-2.2 15.9-10.1 3.5-7.9 1.9-16.1-3.4-18.5zm.5 17.3c-2.8 6.3-8.1 10.1-11.8 8.5-3.8-1.7-4.6-8.1-1.8-14.5 2.8-6.3 8.1-10.1 11.9-8.5 3.7 1.7 4.5 8.2 1.7 14.5z"/></g></svg>