<svg xmlns="http://www.w3.org/2000/svg" xmlns:xlink="http://www.w3.org/1999/xlink" xml:space="preserve" width="64" height="48" version="1.0" viewBox="0 0 437.571 203.218"><defs><linearGradient xlink:href="#a" id="h" x1="218.786" x2="218.786" y1="1.039" y2="202.718" gradientUnits="userSpaceOnUse"/><linearGradient xlink:href="#d" id="i" x1="218.253" x2="218.253" y1="170.357" y2="37.341" gradientUnits="userSpaceOnUse"/><linearGradient xlink:href="#f" id="k" x1="397.478" x2="370.733" y1="116.972" y2="116.972" gradientUnits="userSpaceOnUse"/><linearGradient xlink:href="#b" id="l" x1="730.297" x2="703.554" y1="117.72" y2="117.72" gradientTransform="scale(-1 1) rotate(-1.501 341.61 29415.289)" gradientUnits="userSpaceOnUse"/><linearGradient xlink:href="#a" id="m" x1="218.786" x2="218.786" y1="122.652" y2="156.099" gradientTransform="matrix(3.73476 0 0 3.73476 -596.858 -347.177)" gradientUnits="userSpaceOnUse"/><radialGradient xlink:href="#c" id="g" cx="218.254" cy="95.125" r="79.13" gradientUnits="userSpaceOnUse"/><radialGradient xlink:href="#e" id="j" cx="218.565" cy="96.648" r="25.083" gradientTransform="matrix(1.222 0 0 1.2633 -48.583 -25.68)" gradientUnits="userSpaceOnUse"/></defs><path d="M216.629.75c65.684-3.749 129.158 35.375 176.625 70.625 16.908 12.556 52.775 36.589 41.75 56.25-14.225 16.405-41.208 8.19-85.75 29.5-59.112 28.28-63.004 45.102-131 45.583-70.336.498-71.937-18.817-134.25-46.583-49.188-21.917-76.427-12.082-82.25-29.25-7.934-22.54 23.704-43.32 41-55.5C121.22 16.119 155.442.692 216.629.75z" clip-rule="evenodd" style="fill:#fff;fill-rule:evenodd;stroke:#fff" transform="translate(10.418 -51.886) scale(.95238)"/><g transform="translate(10.418 -51.886) scale(.95238)"><radialGradient id="c" cx="218.254" cy="95.125" r="79.13" gradientUnits="userSpaceOnUse"><stop offset=".533" style="stop-color:#1b617e"/><stop offset=".563" style="stop-color:#457e96"/><stop offset=".598" style="stop-color:#709cae"/><stop offset=".637" style="stop-color:#97b7c4"/><stop offset=".678" style="stop-color:#b7cdd6"/><stop offset=".722" style="stop-color:#d1dfe5"/><stop offset=".77" style="stop-color:#e6eef1"/><stop offset=".824" style="stop-color:#f4f7f9"/><stop offset=".89" style="stop-color:#fcfdfe"/><stop offset="1" style="stop-color:#fff"/></radialGradient><ellipse cx="218.254" cy="95.125" rx="80" ry="78.25" style="fill:url(#g)"/><ellipse cx="218.254" cy="95.875" rx="74.25" ry="72.382" style="opacity:.3;fill:none;stroke:#004c78;stroke-width:12"/><ellipse cx="218.254" cy="95.125" rx="80" ry="78.25" style="fill:none;stroke:#002040"/><ellipse cx="218.371" cy="96.119" rx="77.633" ry="75.738" style="fill:none;stroke:#002040"/><ellipse cx="218.463" cy="96.959" rx="75.093" ry="73.01" style="fill:none;stroke:#002040"/><ellipse cx="218.628" cy="96.958" rx="35.958" ry="36" style="fill:none;stroke:#002040"/><ellipse cx="218.295" cy="96.959" rx="43.791" ry="43.667" style="fill:none;stroke:#002040"/><ellipse cx="218.128" cy="96.458" rx="51.291" ry="51.167" style="fill:none;stroke:#002040"/><ellipse cx="218.628" cy="96.417" rx="58.291" ry="57.125" style="fill:none;stroke:#002040"/><ellipse cx="218.254" cy="96.125" rx="64.5" ry="63" style="fill:none;stroke:#002040"/><ellipse cx="218.129" cy="96.5" rx="68.875" ry="66.875" style="fill:none;stroke:#002040"/><ellipse cx="218.254" cy="96.375" rx="72.5" ry="70.75" style="fill:none;stroke:#002040"/><path d="m196.67 74.125-30.666-38.5M194.17 76.125l-35.666-34M199.504 71.292l-28.667-39.5M203.17 69.625l-27.666-41M208.17 67.125l-27-41.833M193.337 79.125 153.67 48.292M191.67 81.792l-42.833-26.167M190.337 85.125 144.67 63.459M189.17 88.125l-47.5-17M188.004 90.959 139.67 79.625M187.67 94.459l-49.166-7.167M188.004 97.459l-49.834-1.667M188.17 100.792l-49.666 3.167M188.504 103.292l-48.334 8.833M189.337 106.459l-46.833 14M191.004 109.459l-45.667 18.333M192.17 112.459l-42.666 23M193.67 114.625l-39.166 28M196.004 117.625l-36.667 30.834M198.337 119.459l-32.667 34.333M200.337 121.459l-28.333 37.833M203.17 123.459l-23.833 39.833M206.004 124.792l-19.334 42M209.004 126.125l-15 43.834M212.504 127.625l-10.5 43.834M215.837 128.125l-6 44.834M218.337 128.625l-.083 44.75M221.171 128.792l5.5 44M224.004 128.125l10.833 43.5M227.004 126.125l15.5 43M229.837 124.459l20.334 42.333M233.004 123.125l24.667 40M235.837 121.292l28.834 37.833M238.837 119.625l32.5 34.334M241.004 117.292l36 31M242.671 114.959l39.666 27.166M245.337 112.625l40.834 22.667M246.171 109.625l44.166 18.5M247.337 106.459l46.167 14.833M248.171 103.625l47.833 8.667M248.671 101.125l49 2.5M249.004 96.792l49.167-.667M248.837 94.125l49-6.166M248.171 91.292l48.5-11.667M248.004 88.292l46.5-16.833M246.337 85.125l45-21.666M245.337 81.792l42.5-25.5M243.337 79.459l39.834-30.167M241.004 76.625l36.667-33.666M238.504 73.625l33.833-36M235.504 71.792l31.167-39M233.671 69.459l26.5-41.167M228.504 67.459l24.167-43.167M225.171 65.292l19.333-44.333M221.504 64.625l14.167-45.666M218.004 64.125l-.167-47.166M216.837 64.292l-9-47.167M189.837 21.792l21.167 43.667M199.337 18.959l14.5 46.166M219.671 64.459l6.833-47" style="fill:none;stroke:#002040"/></g><path d="M148.754 51.375c2.398-3.634 2.877-8.167 5.745-11.562 3.06-3.622 7.006-8.261 10.8-11.127 4.922-3.718 12.169-6.65 17.906-8.754 4.176-1.532 8.327-2.186 12.72-3.288 10.276-2.579 20.225-3.699 30.997-3.27 9.191.368 18.737 2.012 26.994 6.018 4.748 2.305 8.88 5.614 13.082 8.408 3.82 2.54 6.458 4.66 9.424 7.896 3.088 3.367 8.693 9.718 8.448 14.54-17.333-5.735-34.16-10.778-52.517-11.355-18.1-.569-42.6.619-55.724 3.181-7.886 1.54-19.063 5.563-28.125 9.313M185.42 167.042c11.834 2.375 23.547 3.657 34.834 3.333 13.04-.375 20.042-1.417 35.042-4.917-6.981 8.023-11.5 9.334-20.523 10.952-7.427 1.332-15.16-.144-22.74-.1-6.23.035-13.98.72-19.698-1.868-2.838-1.285-3.121-3.192-4.957-5.067" style="fill:#fff" transform="translate(10.418 -51.886) scale(.95238)"/><g transform="translate(10.418 -51.886) scale(.95238)"><linearGradient id="a" x1="218.786" x2="218.786" y1="1.039" y2="202.718" gradientUnits="userSpaceOnUse"><stop offset=".472" style="stop-color:#c7e9f2"/><stop offset=".57" style="stop-color:#b2dff1"/><stop offset="1" style="stop-color:#45beee"/></linearGradient><path d="M216.588 1.292c65.684-3.749 129.2 34.833 176.666 70.083 16.908 12.556 52.775 36.589 41.75 56.25-14.225 16.405-41.208 8.19-85.75 29.5-59.112 28.28-63.004 45.102-131 45.583-70.336.498-71.937-18.817-134.25-46.583-49.188-21.917-76.427-12.082-82.25-29.25-7.934-22.54 23.704-43.32 41-55.5C121.22 16.119 155.4 1.235 216.588 1.292z" clip-rule="evenodd" style="opacity:.6;fill:url(#h);fill-rule:evenodd"/><linearGradient id="d" x1="218.253" x2="218.253" y1="170.357" y2="37.341" gradientUnits="userSpaceOnUse"><stop offset=".418" style="stop-color:#fff"/><stop offset=".492" style="stop-color:#def1f8"/><stop offset=".669" style="stop-color:#9cd7ec"/><stop offset=".819" style="stop-color:#65c7e5"/><stop offset=".934" style="stop-color:#34bee0"/><stop offset="1" style="stop-color:#04bbdf"/></linearGradient><path d="M217.233 37.597c43.265-2.001 75.859 6.506 163.27 69.278 6.089 4.37 27.485 13.133 23.25 15.25-10.5 5.25-19.86-.11-43.75 6.5-45.548 12.599-93.935 41.865-141.827 41.732-48.385-.133-69.268-18.231-143.672-41.482-16-5-37.5-2.25-41.5-6-5.313-4.98 17.219-11.008 24.669-16.185 100.824-70.048 116.466-69.13 159.56-69.093z" clip-rule="evenodd" style="opacity:.4;fill:url(#i);fill-rule:evenodd"/><g style="opacity:.5"><path d="M242.415 62.64c-1.435-7.466-7.46-10.565-12.833-9.757" clip-rule="evenodd" style="fill:#fff;fill-rule:evenodd"/><path d="M242.415 62.64c-1.435-7.466-7.46-10.565-12.833-9.757" style="fill:none"/><path d="M252.074 60.05c-1.917-8.816-9.947-11.926-18.264-10.889-4.3.537-9.573 1.58-12.947 4.545-3.284 2.886 2.903 3.096 4.49 2.898 1.916-.239-1.76-.074.175-.023-1.393-.037.343.127.576.181.803.187 1.67.741 2.498 1.306 2.412 1.644 3.554 4.403 4.154 7.16.61 2.807 9.002.585 10.408.208 1.634-.438 9.54-2.496 8.91-5.385z" style="fill:#fff"/></g></g><g style="opacity:.57999998" transform="translate(10.418 -51.886) scale(.95238)"><radialGradient id="e" cx="218.565" cy="96.648" r="25.083" gradientTransform="matrix(1.222 0 0 1.2633 -48.583 -25.68)" gradientUnits="userSpaceOnUse"><stop offset=".802" style="stop-color:#091520"/><stop offset=".824" style="stop-color:#0d1925"/><stop offset=".854" style="stop-color:#162431"/><stop offset=".888" style="stop-color:#233445"/><stop offset=".927" style="stop-color:#324b65"/><stop offset=".968" style="stop-color:#436a93"/><stop offset="1" style="stop-color:#4d88c7"/></radialGradient><path d="M249.004 96.419c0 17.585-13.655 31.84-30.505 31.84-16.84 0-30.495-14.255-30.495-31.84 0-17.59 13.654-31.846 30.495-31.846 16.85 0 30.505 14.256 30.505 31.846z" style="fill:url(#j)"/><path d="m218.295 53.292-.041 86.208" style="fill:none;stroke:#fff"/><path d="m177.171 96.958 83.417-.166" style="opacity:.75;fill:none;stroke:#fff;stroke-width:1.60000002"/><ellipse cx="218.462" cy="96.709" rx="13.709" ry="14.333" style="opacity:.76000001;fill:none;stroke:#fff;stroke-width:1.60000002"/><ellipse cx="218.379" cy="96.542" rx="30.375" ry="31.083" style="opacity:.79000005;fill:none;stroke:#fff;stroke-width:1.60000002"/><ellipse cx="218.17" cy="96.543" rx="4.834" ry="4.666" style="fill:#fff;stroke:#fff"/></g><g clip-rule="evenodd"><path d="M216.629.75c65.684-3.749 129.158 35.375 176.625 70.625 16.908 12.556 52.775 36.589 41.75 56.25-14.225 16.405-41.208 8.19-85.75 29.5-59.112 28.28-63.004 45.102-131 45.583-70.336.498-71.937-18.817-134.25-46.583-49.188-21.917-76.427-12.082-82.25-29.25-7.934-22.54 23.704-43.32 41-55.5C121.22 16.119 155.442.692 216.629.75z" style="opacity:.8;fill:none;fill-rule:evenodd;stroke:#004c78" transform="translate(10.418 -51.886) scale(.95238)"/><path d="M215.754 5.125C278.42 1.572 339.204 38.333 384.49 71.73c16.13 11.894 53.782 35.019 43.263 53.645-13.573 15.541-42.257 8.564-84.75 28.75-56.4 26.795-60.628 42.545-125.5 43-67.105.473-69.548-17.942-129-44.25-46.928-20.765-73.827-12.865-79.75-29-7.25-19.75 24.831-40.606 41.334-52.145C124.95 19.379 157.378 5.07 215.754 5.124z" style="opacity:.8;fill:none;fill-rule:evenodd;stroke:#004c78" transform="translate(10.418 -51.886) scale(.95238)"/><path d="M216.504 7.375c60.87-3.5 119.734 31.512 163.724 64.413 15.668 11.718 57.47 38.09 43.026 53.337-13.5 14.25-42.049 7.947-83.325 27.836-54.783 26.398-58.89 40.914-121.905 41.361-65.181.467-67.554-16.676-125.302-42.592-45.584-20.457-73.715-12.71-79.468-28.605-7.042-19.457 26.123-39.97 42.152-51.338C128.123 20.213 159.801 7.32 216.504 7.375z" style="opacity:.8;fill:none;fill-rule:evenodd;stroke:#004c78" transform="translate(10.418 -51.886) scale(.95238)"/><path d="M216.356 2.983c64.533-3.664 126.314 34.3 172.947 68.745 16.613 12.266 52.47 35.488 41.64 54.7-13.976 16.03-40.19 8.947-84.248 28.825-58.624 26.45-61.898 44.071-128.703 44.54-69.103.486-71.488-18.918-131.896-45.517-47.845-21.067-75.045-13.368-80.808-28.583-7.904-20.865 22.735-40.902 40.671-53.712C119.766 19.272 156.243 2.926 216.356 2.983z" style="opacity:.8;fill:none;fill-rule:evenodd;stroke:#004c78" transform="translate(10.418 -51.886) scale(.95238)"/><path d="M217.004 33.75c47.133-.02 80 6.625 176.77 76.679 6.58 4.764 23.23 11.446 19.48 14.946-11.143 10.4-15.429.204-41.33 7.37-49.381 13.66-101.858 46.105-153.78 45.96-52.458-.145-72.516-19.987-153.14-45.33-10.965-3.446-35.82-.077-41-7.75-4.418-6.544 12.05-10.334 20.127-15.946C153.441 33.735 170.283 33.77 217.004 33.75z" style="opacity:.7;fill:none;fill-rule:evenodd;stroke:#004c78;stroke-width:.60000002" transform="translate(10.418 -51.886) scale(.95238)"/><path d="M216.879 35c45.978-.082 80.5 6.5 173.39 74.852 6.414 4.718 23.283 11.377 20.985 14.773-5.75 8.5-18.408.814-41.75 7.5-48 13.75-100.5 44.25-151.352 44.638-51.15.39-72.386-19.302-151.398-44.138-10.746-3.377-35.5-.5-40.75-6.75-4.978-5.926 13.7-11.258 21.616-16.758C154.744 34.692 171.608 35.081 216.879 35z" style="opacity:.7;fill:none;fill-rule:evenodd;stroke:#004c78;stroke-width:.60000002" transform="translate(10.418 -51.886) scale(.95238)"/><path d="M217.129 36.188c44.701.01 79.5 5.937 169.707 73.09 6.259 4.658 23.918 12.097 21.668 15.097-5.024 6.698-19.919.91-42.25 7-46.75 12.75-98.227 43.613-148.094 43.475-50.38-.14-71.725-18.636-149.156-42.975-10.53-3.31-35.5-1.25-40.75-6.25-5.491-5.23 15.027-11.678 22.785-17.068 104.981-72.936 121.218-72.38 166.09-72.37z" style="opacity:.7;fill:none;fill-rule:evenodd;stroke:#004c78;stroke-width:.60000002" transform="translate(10.418 -51.886) scale(.95238)"/><path d="M217.191 37.438c44.423-.12 76.438 5.062 166.28 71.516 6.147 4.547 26.7 12.73 22.533 15.171-10.25 6-18.265-.018-42.75 6.5-46.652 12.418-96.216 42.726-145.086 42.59-49.373-.137-71.781-18.489-147.664-42.34-10.32-3.243-33.75-1.25-39.75-6-5.826-4.612 16.033-11.344 23.635-16.627 102.882-71.478 118.828-70.691 162.802-70.81z" style="opacity:.7;fill:none;fill-rule:evenodd;stroke:#004c78;stroke-width:.60000002" transform="translate(10.418 -51.886) scale(.95238)"/><path d="M217.285 38.594c43.27-.222 76.344 5.906 163.219 69.781 6.037 4.44 27.484 13.133 23.25 15.25-10.5 5.25-19.861-.11-43.75 6.5-45.549 12.599-93.936 41.865-141.828 41.732-48.385-.133-69.268-18.231-143.672-41.482-16-5-37.729-2.02-41.5-6-4.5-4.75 17.219-11.008 24.669-16.185C158.497 38.142 174.19 38.815 217.285 38.594z" style="opacity:.7;fill:none;fill-rule:evenodd;stroke:#004c78;stroke-width:.60000002" transform="translate(10.418 -51.886) scale(.95238)"/></g><path d="M284.754 157.875c9.917 5.816 17.25 11.25 12.75 27" clip-rule="evenodd" style="opacity:.8;fill:none;fill-rule:evenodd;stroke:#004c78" transform="translate(10.418 -51.886) scale(.95238)"/><path d="M309.254 178.875c4.5-13-5.59-25.75-12.5-25.75M320.254 172.375c4.75-11.25-6.25-22.75-12-24.25M332.004 165.875c2.75-12-6.75-20.25-11.75-22M342.754 160.125c2.25-11.5-6-18.75-12-20.5M352.504 155.125c2-12.5-3.5-19.25-8.75-20.5M360.754 151.625c5.75-12.25-1.25-19.5-4-21M369.504 148.625c7.75-14.25 2.5-19.75-.5-20.5M381.504 126.375c7.5 9.5-.671 19.75-1.5 19.75M392.004 126.125c7.5 8.5-.111 16.75-.25 16.75M401.004 124.875c5.5 9-.783 16.25-1.75 16.25M403.754 123.625c8.25 3.75 11 10.75 10.75 14.5M404.254 122.375c0 .553 14.75 3 32.5 1M433.504 108.125c-3.25 4.5-14.424 11.25-32.25 11.25M422.254 94.625c0 12.16-13.75 16.25-25.75 22M410.504 83.875c0 16.72-13.25 23-22.5 28.5M398.004 75.125c0 17.411-10.75 25.5-19.75 31.5M387.254 66.875c0 17.688-9.75 26.25-20 32M376.254 59.125c0 17.688-9.75 25.25-19.75 32M363.254 50.375c0 19.346-6.75 29.25-15.75 35M350.254 41.875c4 20.25-7.25 33-12 37M335.754 33.375c8 16.25-3.5 31-8.75 38.75M325.254 28.375c5.25 20.5-4.5 33.5-10.5 37M312.004 21.625c6.25 19.5-3.75 31-9.25 37.25M301.004 16.875c4 15.25-3.75 32.25-10 36.25M135.004 15.791c-3.167 21.668 6.666 35 10.166 37.5M124.67 20.459c-5.833 21.5 6.334 36.332 8.834 38.832M112.67 26.291c-6.833 21.168 6 36 9.5 39.334M99.67 33.625c-4.833 20.166 7 35.5 10.834 39.5M86.504 41.791c-1.334 20.168 8.5 35.5 13.166 38.334M73.17 50.291c-3.5 17.5 10.334 33.001 16.5 35.834M60.67 58.791c-2.333 17.834 12.5 29.167 20.334 33.167M49.337 66.459c0 18.056 12.333 29.166 21.167 32.666M38.504 74.625c-1.167 17.667 12.5 29.5 21 32.167M28.337 81.292c-1.333 18.5 13 26.5 19.833 31.666M13.837 94.125c0 12.344 14.333 17.333 26 22.333M2.67 108.625c0 5.897 13.834 9.167 31.667 10.667M.504 123.125s14.333 2.5 31.666 0M21.337 138.625c0-7.877 6-13 11.667-14.25M35.504 125.458c-4.667 8.667 1.193 16.667 2.666 16.667M44.004 126.625c-6.167 8.833.373 16.667.833 16.667M54.837 126.958c-7 10.167.97 19.167 2.167 19.167M66.004 128.292c-6.667 10.666.372 20.666.833 20.666M76.337 152.958c-5.833-12.666 1.193-21.333 2.667-21.333M85.67 156.792c-5.5-12 2.684-21.167 6-21.167M93.67 160.625c0-11.331 5.5-19.5 11.167-20.5M104.67 166.125c-2.333-12.5 6.167-20.333 11.5-21.5M115.337 171.625c-2.333-14 6.5-20.833 12.167-22.833M126.17 177.792c-1-14 7.167-22.834 13.667-24.167M136.837 183.792c-2.5-15.834 7.833-24.167 14.667-25.667" style="opacity:.8;fill:none;stroke:#004c78" transform="translate(10.418 -51.886) scale(.95238)"/><g transform="translate(10.418 -51.886) scale(.95238)"><linearGradient id="f" x1="397.478" x2="370.733" y1="116.972" y2="116.972" gradientUnits="userSpaceOnUse"><stop offset="0" style="stop-color:#fff"/><stop offset=".114" style="stop-color:#e0edf4"/><stop offset=".337" style="stop-color:#aacee1"/><stop offset=".544" style="stop-color:#80b5d3"/><stop offset=".731" style="stop-color:#61a3c8"/><stop offset=".889" style="stop-color:#4f98c1"/><stop offset="1" style="stop-color:#4894bf"/></linearGradient><path d="M384.54 113.585c1.814 1.258 3.562 1.962 5.528 3.03 1.594.868 3.217 1.68 4.817 2.535 1.247.666 3.556 2.068 2.156 3.706-.91 1.066-3.111.899-4.402 1.08-2.045.284-4.56.175-6.6 0-2.498-.217-5.11.375-7.651.375-1.835 0-3.684.079-5.5.074-.654-.002-1.478.15-1.925-.427-.465-.598-.139-1.263.224-1.76.436-.594.846-1.386 1.37-1.85.47-.413 1.086-.7 1.556-1.063 1.147-.883 1.545-1.818.53-2.959-1.01-1.136-1.752-1.94-1.804-3.548-.065-2.054 1.24-2.477 2.987-2.925 2.617-.671 2.397-.222 4.588 1.032 1.05.6 3.629 2.355 4.125 2.7z" clip-rule="evenodd" style="opacity:.5;fill:url(#k);fill-rule:evenodd;stroke:#004c78"/><g style="opacity:.5"><path d="M380.879 118.48c-.334 1.75 1.916 1.75 3.083 1.75" style="fill:none"/><path d="M379.543 118.71c-.309 2.01 2.114 2.096 3.548 2.096.656 0 1.358-.146 1.913-.512.413-.273.37-.639-.17-.639-.96 0-2.843.055-2.62-1.404.11-.712-2.567-.22-2.671.459z" style="fill:#262261"/></g><path d="M384.047 114.94c1.322.917 2.596 1.431 4.031 2.208 1.161.633 2.344 1.225 3.51 1.848.91.486 2.593 1.508 1.573 2.703-.663.778-2.27.654-3.21.785-1.49.208-3.324.13-4.81 0-1.822-.156-3.725.276-5.579.276-1.337 0-2.685.056-4.01.052-.476 0-1.076.11-1.403-.31-.339-.435-.1-.92.163-1.284.319-.432.618-1.009 1-1.349.342-.3.791-.509 1.134-.773.835-.645 1.126-1.326.386-2.156-.736-.83-1.277-1.416-1.316-2.588-.047-1.498.904-1.805 2.18-2.133 1.907-.488 1.745-.161 3.343.753.767.437 2.646 1.718 3.008 1.968z" clip-rule="evenodd" style="opacity:.5;fill:none;fill-rule:evenodd;stroke:#1b75bc;stroke-width:.40000001"/><path d="M383.438 116.416c.867.6 1.703.938 2.646 1.447.76.416 1.537.805 2.303 1.213.595.319 1.7.99 1.03 1.774-.435.51-1.487.428-2.105.515-.978.137-2.181.084-3.156 0-1.195-.103-2.445.18-3.66.18-.878 0-1.762.037-2.63.035-.313 0-.709.072-.922-.204-.223-.284-.065-.605.107-.843.209-.282.405-.66.656-.885.225-.197.52-.334.744-.507.547-.422.738-.87.253-1.415-.483-.543-.839-.928-.863-1.697-.03-.984.592-1.184 1.428-1.4 1.252-.32 1.147-.106 2.196.494.504.287 1.736 1.127 1.973 1.293z" clip-rule="evenodd" style="opacity:.5;fill:none;fill-rule:evenodd;stroke:#1b75bc;stroke-width:.40000001"/></g><g transform="translate(10.418 -51.886) scale(.95238)"><linearGradient id="b" x1="730.297" x2="703.554" y1="117.72" y2="117.72" gradientTransform="scale(-1 1) rotate(-1.501 341.61 29415.289)" gradientUnits="userSpaceOnUse"><stop offset="0" style="stop-color:#fff"/><stop offset=".114" style="stop-color:#e0edf4"/><stop offset=".337" style="stop-color:#aacee1"/><stop offset=".544" style="stop-color:#80b5d3"/><stop offset=".731" style="stop-color:#61a3c8"/><stop offset=".889" style="stop-color:#4f98c1"/><stop offset="1" style="stop-color:#4894bf"/></linearGradient><path d="M50.428 114.408c-1.847 1.21-3.613 1.867-5.607 2.884-1.616.825-3.26 1.595-4.881 2.408-1.264.633-3.61 1.973-2.252 3.648.88 1.09 3.086.98 4.372 1.194 2.037.338 4.554.295 6.597.174 2.503-.152 5.098.509 7.639.574 1.834.05 3.68.177 5.495.219.654.015 1.474.19 1.937-.376.48-.585.171-1.259-.18-1.766-.419-.604-.808-1.407-1.32-1.885-.459-.425-1.066-.727-1.527-1.102-1.123-.914-1.497-1.86-.452-2.973 1.04-1.11 1.802-1.893 1.897-3.5.119-2.052-1.112-2.85-2.91-3.003-2.316-.196-2.225.279-4.523 1.137-1.134.423-3.78 2.035-4.285 2.367z" clip-rule="evenodd" style="opacity:.5;fill:url(#l);fill-rule:evenodd;stroke:#004c78"/><g style="opacity:.5"><path d="M53.959 119.397c.287 1.758-1.961 1.7-3.128 1.67" style="fill:none"/><path d="M52.606 119.76c.034.266.027.473-.087.719.004-.008-.114.143-.055.097.11-.084.291-.104.42-.131-.34.073-.67.06-1.183.046-.648-.016-1.367.152-1.913.512-.422.28-.361.625.172.639 1.674.043 5.668-.1 5.35-2.607-.073-.583-2.799-.023-2.704.725z" style="fill:#262261"/></g><path d="M50.884 115.775c-1.345.882-2.632 1.363-4.087 2.102-1.178.603-2.375 1.163-3.558 1.755-.922.463-2.63 1.44-1.643 2.661.642.794 2.252.714 3.188.87 1.485.247 3.32.215 4.809.125 1.825-.108 3.716.373 5.57.422 1.337.034 2.683.127 4.006.158.477.013 1.074.139 1.411-.274.35-.426.125-.917-.13-1.287-.306-.44-.59-1.026-.964-1.375-.333-.31-.777-.53-1.113-.804-.818-.666-1.09-1.355-.33-2.165s1.315-1.382 1.385-2.553c.086-1.496-.856-1.827-2.123-2.188-1.895-.54-1.742-.207-3.362.665-.778.417-2.69 1.647-3.059 1.888z" clip-rule="evenodd" style="opacity:.5;fill:none;fill-rule:evenodd;stroke:#1b75bc;stroke-width:.40000001"/><path d="M51.455 117.267c-.883.578-1.727.893-2.684 1.377-.77.396-1.557.764-2.333 1.152-.604.303-1.726.944-1.078 1.746.422.522 1.477.468 2.092.57.974.162 2.178.142 3.155.083 1.197-.072 2.44.244 3.655.276.877.023 1.76.084 2.628.104.312.008.705.091.926-.18.231-.279.08-.603-.085-.845-.201-.288-.388-.672-.632-.902-.22-.203-.511-.347-.73-.527-.537-.436-.716-.889-.217-1.42.496-.531.863-.907.908-1.674.056-.983-.562-1.2-1.392-1.437-1.243-.353-1.143-.136-2.207.436-.512.274-1.766 1.08-2.006 1.24z" clip-rule="evenodd" style="opacity:.5;fill:none;fill-rule:evenodd;stroke:#1b75bc;stroke-width:.40000001"/></g><text xml:space="preserve" x="216.655" y="231.72" style="font-size:86.27305603px;font-style:normal;font-variant:normal;font-weight:700;font-stretch:normal;text-align:center;line-height:100%;writing-mode:lr-tb;text-anchor:middle;fill:none;fill-opacity:1;stroke:#373a45;stroke-width:11.76450825;stroke-linecap:butt;stroke-linejoin:miter;stroke-miterlimit:4;stroke-dasharray:none;stroke-opacity:1;font-family:Nimbus Mono L;-inkscape-font-specification:Nimbus Mono L Bold" transform="matrix(1.33726 0 0 1.33726 -73.788 -68.287)"><tspan x="216.655" y="231.72" dx="0 0 0 0" style="font-size:86.27305603px;font-style:normal;font-variant:normal;font-weight:700;font-stretch:normal;text-align:center;line-height:100%;writing-mode:lr-tb;text-anchor:middle;fill:none;fill-opacity:1;stroke:#373a45;stroke-width:11.76450825;stroke-miterlimit:4;stroke-dasharray:none;stroke-opacity:1;font-family:Nimbus Mono L;-inkscape-font-specification:Nimbus Mono L Bold">NMAP</tspan></text><text xml:space="preserve" x="216.655" y="231.72" style="font-size:86.27305603px;font-style:normal;font-variant:normal;font-weight:700;font-stretch:normal;text-align:center;line-height:100%;writing-mode:lr-tb;text-anchor:middle;fill:url(#m);fill-opacity:1;stroke:none;stroke-width:1.86042225;stroke-linecap:butt;stroke-linejoin:miter;stroke-miterlimit:4;stroke-dasharray:none;stroke-opacity:1;font-family:Nimbus Mono L;-inkscape-font-specification:Nimbus Mono L Bold" transform="matrix(1.33726 0 0 1.33726 -73.788 -68.287)"><tspan x="216.655" y="231.72" dx="0 0 0 0" style="font-size:86.27305603px;font-style:normal;font-variant:normal;font-weight:700;font-stretch:normal;text-align:center;line-height:100%;writing-mode:lr-tb;text-anchor:middle;fill:url(#m);fill-opacity:1;stroke:none;stroke-width:1.86042225;stroke-miterlimit:4;stroke-dasharray:none;font-family:Nimbus Mono L;-inkscape-font-specification:Nimbus Mono L Bold">NMAP</tspan></text></svg>