<?xml version="1.0" encoding="UTF-8" standalone="no"?>
<svg
   width="95.713997"
   height="100.00119"
   viewBox="0 0 95.713997 100.00119"
   fill="none"
   version="1.1"
   id="svg2"
   sodipodi:docname="notion3.svg"
   xmlns:inkscape="http://www.inkscape.org/namespaces/inkscape"
   xmlns:sodipodi="http://sodipodi.sourceforge.net/DTD/sodipodi-0.dtd"
   xmlns="http://www.w3.org/2000/svg"
   xmlns:svg="http://www.w3.org/2000/svg">
  <defs
     id="defs2" />
  <sodipodi:namedview
     id="namedview2"
     pagecolor="#505050"
     bordercolor="#ffffff"
     borderopacity="1"
     inkscape:showpageshadow="0"
     inkscape:pageopacity="0"
     inkscape:pagecheckerboard="1"
     inkscape:deskcolor="#d1d1d1" />
  <path
     d="M 9.9172173,8.5730469 60.092156,4.8670311 C 66.255549,4.3383775 67.83879,4.6947426 71.714373,7.5121126 L 87.730854,18.795195 c 2.641455,1.940512 3.521033,2.469165 3.521033,4.581966 v 61.881487 c 0,3.878304 -1.408232,6.172461 -6.338403,6.522479 L 26.647335,95.310321 C 22.947667,95.485329 21.18579,94.956676 19.247998,92.48751 L 7.4534921,77.150208 C 5.3379709,74.327398 4.4611133,72.214597 4.4611133,69.744524 V 14.739161 c 0,-3.171015 1.4082316,-5.8151897 5.456104,-6.1661141 z"
     fill="#ffffff"
     id="path1"
     style="display:inline;stroke-width:0.906781" />
  <path
     fill-rule="evenodd"
     clip-rule="evenodd"
     d="M 61.35,0.22819266 6.017,4.3151927 C 1.553,4.7011927 0,7.6181927 0,11.114193 v 60.66 c 0,2.723 0.967,5.053 3.3,8.167 l 13.007,16.913 c 2.137,2.723 4.08,3.306997 8.16,3.113 l 64.257,-3.89 c 5.433,-0.387 6.99,-2.917 6.99,-7.193 v -68.243 c 0,-2.21 -0.873,-2.847 -3.443,-4.733 L 74.167,3.1441927 C 69.894,0.03719266 68.147,-0.35580734 61.35,0.22719266 Z M 25.92,19.524193 c -5.247,0.353 -6.437,0.433 -9.417,-1.99 l -7.576,-6.026 c -0.77,-0.78 -0.383,-1.7530003 1.557,-1.9470003 l 53.193,-3.887 c 4.467,-0.39 6.793,1.167 8.54,2.527 l 9.123,6.6100003 c 0.39,0.197 1.36,1.36 0.193,1.36 l -54.933,3.307 -0.68,0.047 z m -6.117,68.777 v -57.933 c 0,-2.53 0.777,-3.697 3.103,-3.893 L 86,22.781193 c 2.14,-0.193 3.107,1.167 3.107,3.693 v 57.547 c 0,2.53 -0.39,4.67 -3.883,4.863 l -60.377,3.5 c -3.493,0.193 -5.043,-0.97 -5.043,-4.083 z m 59.6,-54.827 c 0.387,1.75 0,3.5 -1.75,3.7 l -2.91,0.577 v 42.773 c -2.527,1.36 -4.853,2.137 -6.797,2.137 -3.107,0 -3.883,-0.973 -6.21,-3.887 l -19.03,-29.94 v 28.967 l 6.02,1.363 c 0,0 0,3.5 -4.857,3.5 l -13.39,0.777 c -0.39,-0.78 0,-2.723 1.357,-3.11 l 3.497,-0.97 v -38.3 l -4.853,-0.393 c -0.39,-1.75 0.58,-4.277 3.3,-4.473 l 14.367,-0.967 19.8,30.327 v -26.83 l -5.047,-0.58 c -0.39,-2.143 1.163,-3.7 3.103,-3.89 l 13.4,-0.78 z"
     fill="#000000"
     id="path2"
     style="display:inline" />
</svg>
