<svg xmlns="http://www.w3.org/2000/svg" width="95.714" height="100.001" fill="none"><path fill="#fff" d="m9.917 8.573 50.175-3.706c6.164-.529 7.747-.172 11.622 2.645l16.017 11.283c2.641 1.94 3.52 2.47 3.52 4.582V85.26c0 3.878-1.407 6.172-6.338 6.522l-58.266 3.53c-3.7.174-5.461-.354-7.399-2.823L7.453 77.15c-2.115-2.823-2.992-4.935-2.992-7.405V14.739c0-3.17 1.408-5.815 5.456-6.166z" style="display:inline;stroke-width:.906781"/><path fill="#000" fill-rule="evenodd" d="M61.35.228 6.017 4.315C1.553 4.701 0 7.618 0 11.115v60.66c0 2.722.967 5.052 3.3 8.166l13.007 16.913c2.137 2.723 4.08 3.307 8.16 3.113l64.257-3.89c5.433-.387 6.99-2.917 6.99-7.193V20.641c0-2.21-.873-2.847-3.443-4.733L74.167 3.144C69.894.037 68.147-.356 61.35.227ZM25.92 19.524c-5.247.353-6.437.433-9.417-1.99l-7.576-6.026c-.77-.78-.383-1.753 1.557-1.947l53.193-3.887c4.467-.39 6.793 1.167 8.54 2.527l9.123 6.61c.39.197 1.36 1.36.193 1.36L26.6 19.478l-.68.047zm-6.117 68.777V30.368c0-2.53.777-3.697 3.103-3.893L86 22.781c2.14-.193 3.107 1.167 3.107 3.693v57.547c0 2.53-.39 4.67-3.883 4.863l-60.377 3.5c-3.493.193-5.043-.97-5.043-4.083zm59.6-54.827c.387 1.75 0 3.5-1.75 3.7l-2.91.577v42.773c-2.527 1.36-4.853 2.137-6.797 2.137-3.107 0-3.883-.973-6.21-3.887l-19.03-29.94v28.967l6.02 1.363s0 3.5-4.857 3.5l-13.39.777c-.39-.78 0-2.723 1.357-3.11l3.497-.97v-38.3l-4.853-.393c-.39-1.75.58-4.277 3.3-4.473l14.367-.967 19.8 30.327v-26.83l-5.047-.58c-.39-2.143 1.163-3.7 3.103-3.89l13.4-.78z" clip-rule="evenodd" style="display:inline"/></svg>