<svg xmlns="http://www.w3.org/2000/svg" xml:space="preserve" id="a" x="0" y="0" style="enable-background:new 0 0 568 200" version="1.1" viewBox="0 0 568 200"><style>.st0,.st2{fill:#555}.st2{fill-rule:evenodd;clip-rule:evenodd;stroke:#555;stroke-width:2;stroke-linecap:round;stroke-linejoin:round}</style><path d="M552 124.5v48.6c0 6.6-2.3 7.9-8.1 4.6-11.6-6.6-23.2-13.3-34.8-19.8-4.2-2.3-6.1-5.4-6-10.3.2-14.3 0-28.5.1-42.8 0-5.1-1.8-8.6-6.4-11s-9.1-5.1-13.5-7.7c-3.3-2-6.6-2.1-9.9-.1-5 2.9-10.1 5.8-15.2 8.7-3 1.7-4.3 4-4.3 7.6.1 23.5 0 46.9-.1 70.4 0 7.2-2.2 8.4-8.5 4.8-11.5-6.6-22.9-13.2-34.5-19.6-4.2-2.3-6.1-5.4-6-10.3.2-14.3 0-28.5.1-42.8 0-5.1-1.8-8.6-6.4-11-4.5-2.3-8.9-4.9-13.2-7.5-3.7-2.3-7.2-2.2-11 .1-4.3 2.6-8.7 5.2-13.2 7.6-4.4 2.3-6.3 5.7-6.2 10.6.2 14.5 0 29.1.1 43.6 0 4.4-1.6 7.3-5.4 9.4-12.1 6.8-24.1 13.8-36.2 20.6-4.8 2.7-7.4 1.2-7.4-4.3 0-32.9 0-65.9-.1-98.8 0-4 1.6-6.9 5.1-8.9 21.3-12.2 42.6-24.4 63.8-36.6 3.5-2 6.8-2 10.3.1 13.7 7.9 27.5 15.7 41.2 23.7 2.1 1.2 3.5 1.2 5.6 0 13.3-7.8 26.8-15.3 40.1-23.2 4.3-2.5 8-2.6 12.4 0 20.6 12 41.4 23.9 62.1 35.7 4.1 2.3 5.8 5.5 5.8 10.1-.1 16.2 0 32.4 0 48.6h-.3v-.1zM19.3 124.2c0-15.9.1-31.9-.1-47.8-.1-5 1.7-8.2 6.1-10.7C46.2 53.8 67 41.8 87.7 29.8c3.8-2.2 7.1-2.3 10.9-.1 20.9 12.1 41.8 24.1 62.8 36 4.1 2.3 5.9 5.4 5.9 10.1-.1 32.4-.1 64.8-.2 97.3 0 6.6-2.4 8-8.1 4.8-11.7-6.7-23.4-13.5-35.2-20-3.9-2.2-5.8-5.1-5.7-9.7.2-14.4 0-28.8.1-43.2.1-5.1-1.7-8.7-6.3-11-4.7-2.4-9.3-5.2-13.9-7.9-3.2-1.9-6.3-1.9-9.6 0-4.9 2.9-9.8 5.8-14.8 8.5-3.9 2.1-5.3 5.3-5.3 9.6.1 14.5-.1 29.1.1 43.6.1 4.9-1.8 8-6 10.3-11.7 6.5-23.2 13.2-34.8 19.8-5.7 3.3-8.2 1.9-8.2-4.6 0-16.4 0-32.7-.1-49.1z" class="st0"/><path d="M145.3 65h-7.7l4.5 7.9h7.7l-4.5-7.9z" style="fill-rule:evenodd;clip-rule:evenodd;fill:#555"/><path d="m202.4 89.7-1.7-3.2-5.2-8.9-5.7.1 1.5 2.7-14.6.1-3.2-5.5-10.7.1 57.9 91 21.7-38.8L225 97.4l-1.8-3.1-4-6.9h0z" class="st2"/><path d="M256.3 80.9c4.6-7.9 9.2-15.8 13.7-23.7 1-1.7 2.2-2.4 4.2-2.4 13.4.1 26.8 0 40.1 0 3.8 0 4.8 1.5 3.2 5-4.2 7.1-8.5 14.1-12.3 21.4-4.5 7.7-9 15.3-13.5 23-9.9 17.2-19.8 34.4-29.8 51.5-4.9 8.2-9.7 16.4-15.3 24.2-1.2 1.7-2.5 3.4-3.9 4.9-3.6 3.8-6.6 3.8-10.2-.1-1.7-1.8-7.2-9.8-4.3-5.1-4.7-7.4-10.4-15.8-15.1-23.2 1.5-3.5 18-33.3 22.3-40.8.5-.5 14.6-23.8 20.9-34.7z" style="fill:#f4dd4b"/><path d="m213.2 156.4 22.8-41.9-6.2-10.4" style="fill-rule:evenodd;clip-rule:evenodd"/><path d="m168.3 51.7-6.4.1 3.9 6.4h2.3l3.6 6 10.5-.2-6.4-10.6-6.4.2-1.1-1.9zM167.4 20.8l-6.3.1 3.8 6.3 6.3-.1-3.8-6.3zM156.2 29.7l-5.3.1 3.2 5.2 5.3-.1-3.2-5.2zM178.6 10.1l-4.4.1 2.3 3.8 4.4-.1-2.3-3.8zM168.4 38.8l-5.6.2 2.9 4.8 5.6-.2-2.9-4.8zM195.6 41.9l-9 .2-1.5-2.4-8.1.2 4.3 7 5.5-.1 4.2 6.9 11.6-.2-7-11.6zM186.1 26.3l-7.8.2 4.1 6.8 7.8-.2-4.1-6.8zM151.6 12l-3.6.1 1.9 3.1 3.6-.1-1.9-3.1zM211 66l-14.3.3 2.9 4.6h4.3l2.7 4.3 9.9-.2-5.5-9zM154.9 41.5l-4.4.1 2.3 3.8 4.4-.1-2.3-3.8z" class="st2"/></svg>