<svg xmlns="http://www.w3.org/2000/svg" viewBox="0 0 448.17 560"><defs><radialGradient id="a" cx="438.3" cy="639.01" r="569.94" gradientUnits="userSpaceOnUse"><stop offset="0" stop-color="#6877ec"/><stop offset=".6" stop-color="#5362cf"/><stop offset="1" stop-color="#4352b9"/></radialGradient><radialGradient id="b" cx="65.64" cy="-16.21" r="746.46" gradientUnits="userSpaceOnUse"><stop offset="0" stop-color="#00d5ff"/><stop offset=".38" stop-color="#00b8eb"/><stop offset="1" stop-color="#0080c5"/></radialGradient><radialGradient id="f" cx="259.68" cy="-34.71" r="431.37" gradientUnits="userSpaceOnUse"><stop offset="0" stop-color="#fff"/><stop offset="1"/></radialGradient><linearGradient id="c" x1="74.77" x2="277.23" y1="67.3" y2="512.72" gradientUnits="userSpaceOnUse"><stop offset="0" stop-color="#294ca7"/><stop offset=".48" stop-color="#96a7d4"/><stop offset=".84" stop-color="#e1e6f3"/><stop offset="1" stop-color="#fff"/></linearGradient><linearGradient id="d" x1="-228.74" x2="451" y1="-144.29" y2="651.89" gradientUnits="userSpaceOnUse"><stop offset="0" stop-color="#6877ec"/><stop offset=".29" stop-color="#97a1f2"/><stop offset=".77" stop-color="#e2e4fb"/><stop offset="1" stop-color="#fff"/></linearGradient><linearGradient id="e" x1="-151.22" x2="450.08" y1="-285.9" y2="430.63" gradientUnits="userSpaceOnUse"><stop offset="0" stop-color="#8397cc"/><stop offset=".15" stop-color="#97a8d4"/><stop offset=".73" stop-color="#e2e6f3"/><stop offset="1" stop-color="#fff"/></linearGradient></defs><g data-name="Layer 1" style="isolation:isolate"><path d="M168.08 560a570.54 570.54 0 0 0 291.76-156.41L56.25 0v448.17Z" style="fill:url(#a)" transform="translate(-56.25)"/><path d="M56.25 448.17c247.52 0 448.17-200.65 448.17-448.17H56.25Z" style="fill:url(#b)" transform="translate(-56.25)"/><path d="m56.25 448.17 17.25 17.25c121.57-4.45 231.4-55.68 312-136.23l-12.29-12.28A446.8 446.8 0 0 1 56.25 448.17Z" style="fill:url(#c);mix-blend-mode:multiply" transform="translate(-56.25)"/><path d="M168.08 560a570.54 570.54 0 0 0 291.76-156.41L56.25 0v448.17Z" style="fill:url(#d);mix-blend-mode:multiply" transform="translate(-56.25)"/><path d="M459.84 403.59 56.25 0l366.89 437.13c12.69-10.67 24.98-21.82 36.7-33.54Z" style="fill:url(#e);mix-blend-mode:multiply" transform="translate(-56.25)"/><path d="m56.25 0 316.91 316.91q4.23-4.25 8.35-8.6Z" style="mix-blend-mode:screen;fill:url(#f)" transform="translate(-56.25)"/></g></svg>