<?xml version="1.0" encoding="UTF-8" standalone="no"?>
<!-- Created with Inkscape (http://www.inkscape.org/) -->

<svg
   width="33.681454mm"
   height="33.681458mm"
   viewBox="0 0 33.681454 33.681458"
   version="1.1"
   id="svg1"
   xmlns:inkscape="http://www.inkscape.org/namespaces/inkscape"
   xmlns:sodipodi="http://sodipodi.sourceforge.net/DTD/sodipodi-0.dtd"
   xmlns="http://www.w3.org/2000/svg"
   xmlns:svg="http://www.w3.org/2000/svg">
  <sodipodi:namedview
     id="namedview1"
     pagecolor="#505050"
     bordercolor="#ffffff"
     borderopacity="1"
     inkscape:showpageshadow="0"
     inkscape:pageopacity="0"
     inkscape:pagecheckerboard="1"
     inkscape:deskcolor="#d1d1d1"
     inkscape:document-units="mm" />
  <defs
     id="defs1" />
  <g
     inkscape:label="Layer 1"
     inkscape:groupmode="layer"
     id="layer1"
     transform="translate(-85.073763,-136.56399)">
    <rect
       x="96.292099"
       y="159.02711"
       class="st2"
       width="11.218333"
       height="11.218333"
       id="rect8"
       style="fill:#99e1f4;stroke-width:0.264583" />
    <polygon
       class="st2"
       points="70.6,108.5 28.2,108.5 28.2,150.9 70.6,150.9 "
       id="polygon8"
       transform="matrix(0.26458333,0,0,0.26458333,77.612513,119.10148)"
       style="fill:#99e1f4" />
    <rect
       x="85.073769"
       y="159.02711"
       class="st3"
       width="11.218333"
       height="11.218333"
       id="rect9"
       style="fill:#1a82e2;stroke-width:0.264583" />
    <polygon
       class="st4"
       points="113.1,108.5 113.1,150.9 155.5,150.9 155.5,108.5 "
       id="polygon9"
       transform="matrix(0.26458333,0,0,0.26458333,77.612513,119.10148)"
       style="fill:#00b2e3" />
    <rect
       x="96.292099"
       y="136.564"
       class="st4"
       width="11.218333"
       height="11.218333"
       id="rect10"
       style="fill:#00b2e3;stroke-width:0.264583" />
    <polygon
       class="st5"
       points="70.6,150.9 113.1,150.9 113.1,108.5 70.6,108.5 "
       id="polygon10"
       transform="matrix(0.26458333,0,0,0.26458333,77.612513,119.10148)"
       style="fill:#009dd9" />
    <rect
       x="107.53689"
       y="136.564"
       class="st3"
       width="11.218333"
       height="11.218333"
       id="rect11"
       style="fill:#1a82e2;stroke-width:0.264583" />
  </g>
</svg>
