<svg xmlns="http://www.w3.org/2000/svg" width="127.3" height="127.3" viewBox="0 0 33.681 33.681"><path d="M96.292 159.027h11.218v11.218H96.292z" class="st2" style="fill:#99e1f4;stroke-width:.264583" transform="translate(-85.074 -136.564)"/><path d="M70.6 108.5H28.2v42.4h42.4z" class="st2" style="fill:#99e1f4" transform="matrix(.26458 0 0 .26458 -7.461 -17.463)"/><path d="M85.074 159.027h11.218v11.218H85.074z" class="st3" style="fill:#1a82e2;stroke-width:.264583" transform="translate(-85.074 -136.564)"/><path d="M113.1 108.5v42.4h42.4v-42.4z" class="st4" style="fill:#00b2e3" transform="matrix(.26458 0 0 .26458 -7.461 -17.463)"/><path d="M96.292 136.564h11.218v11.218H96.292z" class="st4" style="fill:#00b2e3;stroke-width:.264583" transform="translate(-85.074 -136.564)"/><path d="M70.6 150.9h42.5v-42.4H70.6z" class="st5" style="fill:#009dd9" transform="matrix(.26458 0 0 .26458 -7.461 -17.463)"/><path d="M107.537 136.564h11.218v11.218h-11.218z" class="st3" style="fill:#1a82e2;stroke-width:.264583" transform="translate(-85.074 -136.564)"/></svg>