<svg xmlns="http://www.w3.org/2000/svg" width="510" height="218" fill="none"><path fill="#17AF66" d="M320.42 144.755c8.379 10.26 23.94 18.297 44.973 18.297 27.36 0 44.973-13.851 44.973-33.516 0-17.1-15.048-26.163-26.676-27.36 12.654-2.223 24.966-11.628 24.966-25.992 0-18.981-16.416-30.951-43.092-30.951-20.007 0-34.371 7.695-43.605 18.126l11.97 15.048c8.037-7.695 17.955-11.97 29.07-11.97 11.97 0 21.204 4.617 21.204 13.68 0 8.55-8.379 12.654-21.033 12.654-4.446 0-12.141 0-14.193-.171v21.204c1.71-.171 9.405-.171 14.193-.171 15.903 0 22.914 4.275 22.914 13.509 0 8.721-7.695 14.706-21.546 14.706-11.115 0-23.598-4.788-31.464-12.996l-12.654 15.903ZM447.514 161h24.453V68.318h33.174V46.943h-90.972v21.375h33.345V161Z"/><path fill="#17AF66" fill-rule="evenodd" d="M285.802 91.166c-2.178-3.03-4.294-6.13-5.935-9.52-1.46-3.014-2.542-6.232-3.624-9.451-1.321-3.93-2.642-7.86-4.651-11.42-26.43-46.84-73.485-61.35-118.936-60.758C110.96.56 42.278 24.43 11.416 96.871a143.737 143.737 0 0 0-5.177 14.565c-2.258 7.638-3.92 15.507-5.008 23.469l-.045-.007c-5.004 50.388 6.417 76.609 23.224 81.93 11.249 3.561 21.148-1.243 32.763-11.007 12.769-10.734 17.771-18.839 16.339-30.005-1.48-11.544-13.942-19.958-25.216-22.958-16.31-4.738-9.739-15.196-9.739-15.196s17.57 12.622 45.907 9.445c25.851-2.898 30.768-8.296 30.768-8.296-.04-26.675 14.276-45.28 32.986-47.073-13.001 6.128-20.51 27.3-20.485 44.478l.068 45.468 6.468.009c18.961.028 35.124-19.039 35.092-40.597l-.013-8.928s14.188-7.693 34.327-9.95c9.532-1.069 16.991-.072 23.431 1.854-3.746-4.562-6.167-9.957-6.373-16.316-.089-2.774 4.498-3.991 5.505.008 3.589 16.12 12.81 23.02 35.869 29.934 3.901.634 8.186.795 13.072.247 9.996-1.374 19.974-6.908 21.571-18.66 1.496-11.007-3.983-18.538-9.588-26.243-.454-.623-.908-1.248-1.36-1.876Zm-108.104 45.175c2.588 25.524-11.916 36.302-11.916 36.302 20.239-1.214 43.128-19.695 41.971-43.434 0 0-8.974-1.304-30.055 7.132Zm75.039-44.53c3.593.005 6.501-3.123 6.495-6.987-.006-3.864-2.923-7.001-6.516-7.006-3.593-.005-6.501 3.123-6.495 6.987.006 3.864 2.923 7 6.516 7.006Z" clip-rule="evenodd"/></svg>