<svg xmlns="http://www.w3.org/2000/svg" width="512" height="512"><g fill="none" fill-rule="evenodd"><circle cx="256" cy="256" r="240" fill="#d04351"/><g fill="#fff"><path d="M278.627 120.235c12.497 12.497 12.497 32.759 0 45.255-9.486 9.487-23.448 11.772-35.09 6.855-14.462 15.691-14.079 40.142 1.149 55.37l40.305 40.306-.005.005.04.042c23.86 24.646 24.004 63.73.434 88.55 4.947 11.653 2.67 25.644-6.833 35.147-12.496 12.496-32.758 12.496-45.254 0s-12.497-32.759 0-45.255c9.486-9.487 23.448-11.772 35.09-6.855 14.462-15.692 14.079-40.142-1.148-55.37l-40.306-40.306.005-.005-.04-.042a63.718 63.718 0 0 1-17.617-37.457l-37.026 37.027c4.936 11.65 2.656 25.63-6.84 35.125-12.497 12.497-32.759 12.497-45.256 0s-12.496-32.758 0-45.254c9.497-9.497 23.476-11.777 35.126-6.84l71.171-71.172c-4.936-11.65-2.656-25.63 6.84-35.126 12.497-12.496 32.759-12.496 45.255 0zm-31.112 240.888c-4.687 4.686-4.687 12.284 0 16.97 4.686 4.687 12.284 4.687 16.97 0 4.687-4.686 4.687-12.284 0-16.97-4.686-4.686-12.284-4.686-16.97 0zM134.378 247.986c-4.687 4.686-4.687 12.284 0 16.97 4.686 4.687 12.284 4.687 16.97 0 4.686-4.686 4.686-12.284 0-16.97-4.686-4.686-12.284-4.686-16.97 0zM247.515 134.85c-4.687 4.686-4.687 12.284 0 16.97 4.686 4.687 12.284 4.687 16.97 0 4.687-4.686 4.687-12.284 0-16.97-4.686-4.686-12.284-4.686-16.97 0zM391.765 233.373c12.496 12.496 12.496 32.758 0 45.254-9.496 9.496-23.476 11.777-35.125 6.841l-45.877 45.88a78.335 78.335 0 0 0 3.219-37.163l25.687-25.687c-4.936-11.65-2.656-25.63 6.84-35.125 12.497-12.497 32.759-12.497 45.256 0zm-31.113 14.613c-4.686 4.686-4.686 12.284 0 16.97 4.686 4.687 12.284 4.687 16.97 0 4.687-4.686 4.687-12.284 0-16.97-4.686-4.686-12.284-4.686-16.97 0z"/></g></g></svg>