<svg xmlns="http://www.w3.org/2000/svg" width="293.575" height="293.806"><path fill-rule="evenodd" d="M286.999 145.374 145.229 6.488 6.342 148.183 145.23 287.144l141.77-141.77"/><path fill="none" stroke="#000" stroke-miterlimit="2.613" stroke-width=".216" d="M286.999 145.374 145.229 6.488 6.342 148.183 145.23 287.144Zm0 0"/><path fill="#006b05" fill-rule="evenodd" d="M272.815 145.374h8.496L145.23 281.456v-8.496l127.586-127.586"/><path fill="none" stroke="#000" stroke-miterlimit="2.613" stroke-width=".216" d="M272.815 145.374h8.496L145.23 281.456v-8.496Zm0 0"/><path fill="#007d17" fill-rule="evenodd" d="M12.03 148.183h8.496L145.229 272.96v8.496l-133.2-133.273"/><path fill="none" stroke="#000" stroke-miterlimit="2.613" stroke-width=".216" d="M12.03 148.183h8.496L145.229 272.96v8.496Zm0 0"/><path fill="#6f9" fill-rule="evenodd" d="M145.229 20.601v-8.426l-133.2 136.008h8.497L145.229 20.601"/><path fill="none" stroke="#000" stroke-miterlimit="2.613" stroke-width=".216" d="M145.23 20.601v-8.426L12.03 148.183h8.496Zm0 0"/><path fill="#45ff02" fill-rule="evenodd" d="M145.229 12.175v8.426l127.586 124.773h8.496L145.23 12.175"/><path fill="none" stroke="#000" stroke-miterlimit="2.613" stroke-width=".216" d="M145.23 12.175v8.426l127.585 124.773h8.496Zm0 0"/><path fill="#093" fill-rule="evenodd" d="m145.229 272.96 127.586-127.586L145.229 20.601 20.526 148.183 145.229 272.96"/><path fill="none" stroke="#000" stroke-miterlimit="2.613" stroke-width=".216" d="m145.23 272.96 127.585-127.586L145.229 20.601 20.526 148.183Zm0 0"/><path fill-rule="evenodd" d="m171.725 48.968 8.496 8.567-58.605 59.472V57.535h5.687l8.496-8.567v-22.61l-8.496-8.566H32.838l-8.496 8.567v22.61l8.496 8.566h6.625V250.28l10.368 8.496h29.304l203.11-209.809v-22.61l-8.496-8.566h-92.59l-9.434 8.567v22.61"/><path fill="none" stroke="#000" stroke-miterlimit="2.613" stroke-width=".216" d="m171.725 48.968 8.496 8.567-58.605 59.472V57.535h5.687l8.496-8.567v-22.61l-8.496-8.566H32.838l-8.496 8.567v22.61l8.496 8.566h6.625V250.28l10.368 8.496h29.304l203.11-209.809v-22.61l-8.496-8.566h-92.59l-9.434 8.567Zm0 0"/><path fill="#fff" fill-rule="evenodd" d="M35.647 51.847 29.96 46.16V29.167l5.687-5.687 88.848-.07 5.617 5.757-5.617 2.739-2.88-2.739-85.968 14.114v8.566"/><path fill="none" stroke="#000" stroke-miterlimit="2.613" stroke-width=".216" d="M35.647 51.847 29.96 46.16V29.167l5.687-5.687 88.848-.07 5.617 5.757-5.617 2.739-2.88-2.739-85.968 14.114Zm0 0"/><path fill="#fff" fill-rule="evenodd" d="m52.64 253.09-6.626-5.688V51.777l6.625-5.617v206.93"/><path fill="none" stroke="#000" stroke-miterlimit="2.613" stroke-width=".216" d="m52.64 253.09-6.626-5.688V51.777l6.625-5.617Zm0 0"/><path fill="#fff" fill-rule="evenodd" d="m194.405 51.847 5.687-5.687v11.375l-94.535 96.336L116 131.19l78.406-79.344"/><path fill="none" stroke="#000" stroke-miterlimit="2.613" stroke-width=".216" d="m194.405 51.847 5.687-5.687v11.375l-94.535 96.336L116 131.19Zm0 0"/><path fill="#7f7f7f" fill-rule="evenodd" d="m54.58 43.351-1.94 2.809-6.626 5.687H35.647V40.472l18.934 2.879"/><path fill="none" stroke="#000" stroke-miterlimit="2.613" stroke-width=".216" d="m54.58 43.351-1.94 2.809-6.626 5.687H35.647V40.472Zm0 0"/><path fill="#7f7f7f" fill-rule="evenodd" d="M115.999 51.847v79.344l-10.442 22.61V46.088h16.059l2.879-2.808-2.88-14.114h8.497V46.16l-5.617 5.687h-8.496"/><path fill="none" stroke="#000" stroke-miterlimit="2.613" stroke-width=".216" d="M115.999 51.847v79.344l-10.442 22.61V46.088h16.059l2.879-2.808-2.88-14.114h8.497V46.16l-5.617 5.687Zm0 0"/><path fill="#fff" fill-rule="evenodd" d="m183.03 51.847-5.617-5.687V29.167l6.554-5.687h86.04l6.624 5.687-9.504 8.497-84.097 5.617v8.566"/><path fill="none" stroke="#000" stroke-miterlimit="2.613" stroke-width=".216" d="m183.03 51.847-5.617-5.687V29.167l6.554-5.687h86.04l6.624 5.687-9.504 8.497-84.097 5.617Zm0 0"/><path fill="#7f7f7f" fill-rule="evenodd" d="M276.631 46.16 77.19 253.09H52.64v-8.497h18l199.366-204.12-2.879-11.306h9.504V46.16"/><path fill="none" stroke="#000" stroke-miterlimit="2.613" stroke-width=".216" d="M276.631 46.16 77.19 253.09H52.64v-8.497h18l199.366-204.12-2.879-11.306h9.504Zm0 0"/><path fill="#7f7f7f" fill-rule="evenodd" d="m201.967 43.351-1.945 2.809-5.617 5.687H183.03V40.472l18.937 2.879"/><path fill="none" stroke="#000" stroke-miterlimit="2.613" stroke-width=".216" d="m201.967 43.351-1.945 2.809-5.617 5.687H183.03V40.472Zm0 0"/><path fill="#ccc" fill-rule="evenodd" d="M105.557 153.8V46.09h16.059l2.879-2.81V31.907l-2.88-2.809h-83.16l-2.808 2.809V43.28l2.809 2.808h14.183v198.504l3.672 2.809h16.2L270.94 40.472v-8.137l-2.879-3.238H185.91l-2.88 2.809V43.35l2.88 2.809h14.183v11.375L105.557 153.8"/><path fill="none" stroke="#000" stroke-miterlimit="2.613" stroke-width=".216" d="M105.557 153.8V46.09h16.059l2.879-2.81V31.907l-2.88-2.809h-83.16l-2.808 2.809V43.28l2.809 2.808h14.183v198.504l3.672 2.809h16.2L270.94 40.472v-8.137l-2.879-3.238H185.91l-2.88 2.809V43.35l2.88 2.809h14.183v11.375Zm0 0"/><path fill-rule="evenodd" d="m157.112 153.945 6.62-5.688h16.993l4.754 5.688-5.687 16.992-6.555 5.687h-16.992l-4.825-5.687 5.692-16.992"/><path fill="none" stroke="#000" stroke-miterlimit="2.613" stroke-width=".216" d="m157.112 153.945 6.62-5.688h16.993l4.754 5.688-5.687 16.992-6.555 5.687h-16.992l-4.825-5.687Zm0 0"/><path fill-rule="evenodd" d="m162.8 247.472 17.062-50.976h-5.688l5.688-17.063h25.418l5.687 5.688h3.817l5.613-5.688h18.938l5.687 5.688h1.742l5.692-5.688h22.734l7.559 11.375-12.383 40.32h5.617l-5.473 16.344h-34.054l13.316-39.672h-8.492l-7.852 23.184h5.617l-5.328 16.488h-34.054l13.246-39.672h-8.496l-7.918 23.328h5.687l-5.328 16.344h-34.055"/><path fill="none" stroke="#000" stroke-miterlimit="2.613" stroke-width=".216" d="m162.8 247.472 17.062-50.976h-5.688l5.688-17.063h25.418l5.687 5.688h3.817l5.613-5.688h18.938l5.687 5.688h3.742l5.692-5.688h20.734l7.559 11.375-12.383 40.32h5.617l-5.473 16.344h-34.054l13.316-39.672h-8.492l-7.852 23.184h5.617l-5.328 16.488h-34.054l13.246-39.672h-8.496l-7.918 23.328h5.687l-5.328 16.344Zm0 0"/><path fill="#ccc" fill-rule="evenodd" d="m272.596 185.12 4.395 6.262-13.969 44.785h5.617l-1.875 5.618h-22.68l13.25-39.672h-19.87l-11.305 34.054h5.613l-1.871 5.618h-22.68l13.25-39.672h-19.875l-11.3 34.054h5.687l-1.945 5.618h-22.68l17.062-50.977h-5.687l1.871-5.687h20.809l5.687 5.687h5.617l5.688-5.687h16.992l5.688 5.687h5.687l5.691-5.687h17.133"/><path fill="none" stroke="#000" stroke-miterlimit="2.613" stroke-width=".216" d="m272.596 185.12 4.395 6.262-13.969 44.785h5.617l-1.875 5.618h-22.68l13.25-39.672h-19.87l-11.305 34.054h5.613l-1.871 5.618h-22.68l13.25-39.672h-19.875l-11.3 34.054h5.687l-1.945 5.618h-22.68l17.062-50.977h-5.687l1.871-5.687h20.809l5.687 5.687h5.617l5.688-5.687h16.992l5.688 5.687h5.687l5.691-5.687Zm0 0"/><path fill-rule="evenodd" d="m176.983 179.433-17.352 51.621h5.903l-5.617 16.418h-33.985l16.992-50.976h-5.687Zm-39.746 17.063 5.687-17.063h34.059"/><path fill="none" stroke="#000" stroke-miterlimit="2.613" stroke-width=".216" d="m176.983 179.433-17.352 51.621h5.903l-5.617 16.418h-33.985l16.992-50.976h-5.687Zm-39.746 17.063 5.687-17.063h34.059Zm0 0"/><path fill="#ccc" fill-rule="evenodd" d="m156.174 241.785 1.871-5.618h-5.687l17.062-51.046h-23.613l-1.945 5.687h6.625l-16.992 50.977h22.68"/><path fill="none" stroke="#000" stroke-miterlimit="2.613" stroke-width=".216" d="m156.174 241.785 1.871-5.618h-5.687l17.062-51.046h-23.613l-1.945 5.687h6.625l-16.992 50.977Zm0 0"/><path fill="#ccc" fill-rule="evenodd" d="m175.038 168.128 3.816-11.375-1.871-2.808h-11.379l-3.742 2.808-3.817 11.375 1.946 2.809h11.375l3.672-2.809"/><path fill="none" stroke="#000" stroke-miterlimit="2.613" stroke-width=".216" d="m175.038 168.128 3.816-11.375-1.871-2.808h-11.379l-3.742 2.808-3.817 11.375 1.946 2.809h11.375Zm0 0"/><path d="m145.121 3.352-14.359 15.043-3.643-3.13-95.145.024-10.246 10.536.378 24.25L32.231 60l4.706-.049-.022 53.432L3.3 148.29l33.808 34.166.117 69.495 12.779 9.394 30.24-.095 17.45-17.987 47.426 47.205 40.566-40.58 10.422-.136 7.393-19.541-3.972-.075 6.698-19.832 4.796.022-14.915 39.426 36.905.185 7.407-21.245-3.907-.064 6.255-18.442 4.339-.024-14.094 39.775 39.044.011 7.347-21.136h-5.703l11.497-38.266-8.568-13.531-17.94.022 31.538-31.772-50.1-49.416 44.493-45.633-.201-24.974-9.604-9.823-93.934-.079-10.807 9.815.036 2.387Z" style="fill:none;stroke:#fff;stroke-width:4.72441;stroke-dasharray:none;stroke-opacity:1"/></svg>