<svg xmlns="http://www.w3.org/2000/svg" width="31.847" height="24.62" fill="none"><path fill="#006da8" d="M15.877 24.62H3.599A3.599 3.599 0 0 1 0 21.021V7.05a3.599 3.599 0 0 1 3.599-3.598h17.57Z"/><path fill="#9f73ff" d="M15.97 0h12.278a3.599 3.599 0 0 1 3.599 3.599V17.57a3.599 3.599 0 0 1-3.599 3.6h-17.57Z"/><path fill="url(#a)" d="M15.97 0h12.278a3.599 3.599 0 0 1 3.599 3.599V17.57a3.599 3.599 0 0 1-3.599 3.6h-17.57Z" style="fill:url(#a)"/><defs><linearGradient id="a" x1="17.904" x2="35.298" y1="17.327" y2="3.159" gradientUnits="userSpaceOnUse"><stop stop-color="#01A4FF"/><stop offset=".792" stop-color="#01FFC2"/></linearGradient></defs></svg>