<svg xmlns="http://www.w3.org/2000/svg" width="299.994" height="299.991" viewBox="0 0 79.374 79.373"><g stroke-width=".265"><path fill="#88171a" d="M79.305 38.512S81.141 0 38.815 0C1.383 0 .213 36.943.213 36.943s-5.506 42.43 39.464 42.43c43.131 0 39.628-40.861 39.628-40.861zM26.972 25.055c7.942-4.86 18.088-1.89 21.89 5.417.72 1.385.812 3.516.356 4.97-1.576 5.015-5.296 7.827-10.401 9.022 1.505-1.289 2.703-2.75 3.084-4.769a6.985 6.985 0 0 0-1.202-5.544 7.08 7.08 0 0 0-8.151-2.485c-3.144 1.194-4.866 4.063-4.555 7.59.288 3.275 2.773 5.398 7.424 6.204-.695.368-1.23.64-1.754.93a16.911 16.911 0 0 0-5.436 4.728c-.472.638-.796.689-1.515.25-9.35-5.718-9.95-20.067.26-26.313zm-6.998 35.328c-1.502.381-2.957.946-4.492 1.45.75-5.067 6.684-9.734 11.702-9.201a12.933 12.933 0 0 0-2.445 6.85c-1.668.307-3.24.514-4.765.901zm31.958-49.47c1.485.054 2.972.032 4.457.067a7.686 7.686 0 0 1 1.102.154 10.744 10.744 0 0 1-1.12 1.437c-.531.495-1.131.979-1.896.227-.184-.181-.619-.14-.939-.144-1.477-.02-2.956-.067-4.43-.01a27.526 27.526 0 0 0-3.817.389c-.237.042-.59.828-.481 1.118.256.684.63 1.439 1.184 1.876 2.048 1.617 4.226 3.068 6.283 4.673 2 1.56 3.86 3.27 4.994 5.624 1.478 3.066 1.52 6.281.884 9.511-1.064 5.391-3.792 9.858-8.21 13.103-1.78 1.307-3.985 2.049-6.024 2.988-1.793.826-3.64 1.538-5.437 2.355-3.24 1.474-5.062 4.991-4.526 8.649.491 3.356 3.436 6.156 6.809 6.735 4.045.693 8.22-1.936 9.21-6.049 1.113-4.624-1.4-8.753-6.102-10.004-.208-.055-.415-.107-.847-.219 1.258-.562 2.344-.962 3.347-1.514q2.625-1.445 5.154-3.06c.496-.317.764-.317 1.187.049 3.235 2.796 5.164 6.275 5.705 10.54.896 7.06-2.446 13.546-8.75 16.87-9.752 5.143-21.686-.71-23.84-11.523-1.845-9.26 4.691-17.661 12.557-19.283 3.384-.697 6.477-2.106 8.882-4.711 1.552-1.681 2.304-3.124 2.56-3.775a10.468 10.468 0 0 0 .72-3.828 8.96 8.96 0 0 0-.784-3.28c-.821-1.872-3.967-4.85-4.746-5.478l-7.408-5.8c-.262-.215-.556-.199-1.193-.156-.757.052-2.692.159-3.527-.06.675-.511 2.517-1.256 3.308-1.854-2.401-1.622-5.141-1.036-7.657-1.52.581-1.084 3.46-2.75 5.098-2.935a24.217 24.217 0 0 0-.447-2.72c-.1-.368-.51-.725-.87-.935-.868-.51-1.79-.93-2.79-1.438a5.804 5.804 0 0 1 2.998-.927 11.196 11.196 0 0 1 3.002.293c1.784.407 3.208.141 4.627-1.071-1.117-.45-2.234-.861-3.317-1.347a32.553 32.553 0 0 1-3.116-1.63c2.81.39 5.528 1.444 8.402 1.06l.073-.392-6.675-1.554c3.98-.364 7.684-.424 11.192 1.284.987.481 2.02.88 2.966 1.428.462.268.772.796 1.15 1.207.302.326.543.762.913.959 1.402.746 2.945.775 4.518.738l.035-.528c1.582.495 3.364 2.32 3.36 3.653-2.563 0-5.125-.01-7.687.014-.273.003-.545.203-.818.311.26.151.514.423.778.433z"/><path d="M48.625 7.12a.392.392 0 0 0-.05.626.59.59 0 0 0 .813.217c.247-.124.489-.257.787-.414-.24-.205-.433-.375-.631-.538-.349-.287-.638-.107-.919.108z"/></g></svg>