<svg width="13" height="13" viewBox="0 0 13 13" fill="none" xmlns="http://www.w3.org/2000/svg">
  <path
    d="M4 12C5.65685 12 7 10.6569 7 9C7 7.34315 5.65685 6 4 6C2.34315 6 1 7.34315 1 9C1 10.6569 2.34315 12 4 12Z"
    stroke="#000000" stroke-width="2" stroke-linecap="round" stroke-linejoin="round" />
  <path d="M1 4V12" stroke="#000000" stroke-width="2" stroke-linecap="round" stroke-linejoin="round" />
  <path
    d="M9 1L8.36667 2.93333C8.33424 3.03374 8.27844 3.12501 8.20386 3.19965C8.12928 3.27429 8.03805 3.33016 7.93767 3.36267L6 4L7.93333 4.63333C8.03374 4.66576 8.12501 4.72156 8.19965 4.79614C8.27429 4.87072 8.33016 4.96195 8.36267 5.06233L9 7L9.63333 5.06667C9.66576 4.96626 9.72156 4.87499 9.79614 4.80035C9.87072 4.72571 9.96195 4.66984 10.0623 4.63733L12 4L10.0667 3.36667C9.96626 3.33424 9.87499 3.27844 9.80035 3.20386C9.72571 3.12928 9.66984 3.03805 9.63733 2.93767L9 1Z"
    stroke="#EAAF17" stroke-linecap="round" stroke-linejoin="round" />
</svg>
