<?xml version="1.0" encoding="UTF-8" standalone="no"?>
<svg
   class="img-fluid"
   id="outputsvg"
   width="490.33121"
   viewBox="0 0 4903.3121 4884.4025"
   height="488.44025"
   version="1.1"
   sodipodi:docname="bijlmerweide.svg"
   xmlns:inkscape="http://www.inkscape.org/namespaces/inkscape"
   xmlns:sodipodi="http://sodipodi.sourceforge.net/DTD/sodipodi-0.dtd"
   xmlns="http://www.w3.org/2000/svg"
   xmlns:svg="http://www.w3.org/2000/svg">
  <defs
     id="defs3" />
  <sodipodi:namedview
     id="namedview3"
     pagecolor="#505050"
     bordercolor="#ffffff"
     borderopacity="1"
     inkscape:showpageshadow="0"
     inkscape:pageopacity="0"
     inkscape:pagecheckerboard="1"
     inkscape:deskcolor="#d1d1d1"
     inkscape:export-bgcolor="#ffffffff" />
  <g
     inkscape:groupmode="layer"
     id="layer1"
     inkscape:label="bg"
     transform="translate(5.2102661,-7.0358257)">
    <rect
       style="opacity:0.7;fill:#ffffff;fill-opacity:1;stroke:#ffffff;stroke-width:50.4157;paint-order:markers stroke fill"
       id="rect3"
       width="4852.896"
       height="4833.9868"
       x="19.997583"
       y="32.243675" />
  </g>
  <g
     id="g4"
     transform="matrix(0.84303929,0,0,0.84303929,540.18063,365.54347)">
    <g
       id="l6tYY9HRY2KzB34oY36sTun"
       fill="#000000">
      <g
         id="g1">
        <path
           id="poXPeiBV9"
           d="m 1562,4858 c -7,-7 -12,-18 -12,-26 0,-9 -6,-12 -17,-7 -38,14 -79,16 -95,3 -15,-12 -13,-18 21,-68 22,-33 56,-68 86,-87 68,-42 118,-96 151,-160 23,-46 26,-60 19,-106 -4,-28 -8,-72 -10,-97 l -2,-44 -86,-13 c -48,-6 -115,-23 -149,-36 -136,-53 -123,-54 -191,8 -33,30 -65,55 -71,55 -6,0 -35,23 -63,51 -58,57 -69,88 -60,174 5,53 26,95 86,169 17,21 28,43 25,48 -3,5 -38,7 -79,4 l -73,-6 -17,43 c -9,24 -25,48 -35,55 -17,10 -22,8 -36,-13 -9,-14 -22,-25 -30,-25 -29,0 -112,-102 -140,-173 -26,-63 -29,-82 -27,-162 3,-104 24,-177 88,-305 23,-47 64,-139 89,-205 40,-101 71,-159 130,-240 8,-11 -57,-124 -109,-190 -9,-11 -37,-64 -63,-117 -26,-54 -50,-98 -55,-98 -4,0 -14,18 -23,40 -27,68 -113,93 -168,49 l -26,-20 -9,23 c -13,33 -48,67 -76,74 -27,7 -55,0 -55,-13 1,-4 27,-57 58,-118 50,-97 60,-110 85,-113 16,-2 56,-21 89,-42 33,-22 69,-42 79,-45 11,-4 17,-10 15,-14 -10,-15 24,-281 45,-357 62,-225 197,-488 323,-629 37,-41 66,-92 66,-117 0,-7 -9,-18 -19,-23 -188,-96 -251,-137 -306,-197 -77,-82 -124,-151 -180,-263 -36,-71 -44,-80 -70,-83 -29,-2 -101,-30 -157,-58 -14,-8 -35,-14 -45,-14 -20,0 -113,-88 -113,-106 0,-6 -22,-14 -48,-17 -46,-5 -119,-36 -152,-63 -8,-7 -35,-23 -59,-36 -52,-27 -64,-48 -29,-48 14,0 46,-7 72,-16 l 47,-16 -21,-23 c -12,-13 -35,-29 -51,-35 -35,-15 -35,-17 -7,-41 49,-40 161,-21 366,63 l 74,31 81,-58 c 45,-31 107,-74 137,-96 33,-23 66,-39 83,-39 16,0 26,4 23,9 -10,15 -56,199 -56,221 0,13 12,25 36,35 19,8 56,28 80,45 25,16 47,30 50,30 3,0 31,22 63,50 32,28 60,50 63,50 3,0 26,21 51,46 41,40 50,45 74,39 65,-18 112,-24 175,-25 67,0 69,-1 121,-48 29,-26 66,-54 82,-61 25,-10 134,-125 143,-150 1,-5 -10,-14 -26,-20 -16,-7 -52,-45 -85,-91 -47,-64 -57,-86 -57,-118 0,-45 38,-133 122,-283 30,-52 62,-114 72,-139 36,-90 51,-113 90,-137 28,-18 48,-24 71,-20 47,8 141,54 172,84 28,29 27,30 69,-51 15,-27 31,-55 38,-61 7,-7 25,-42 40,-79 52,-122 60,-68 11,77 -14,39 -23,73 -21,75 2,2 17,-13 33,-34 50,-67 125,-144 134,-138 15,9 10,23 -23,57 -18,19 -43,48 -56,66 -22,30 -22,31 -3,31 10,0 45,-10 77,-22 49,-19 59,-28 75,-63 21,-46 126,-153 179,-180 45,-23 115,-23 141,1 14,13 38,19 78,20 31,0 68,7 83,15 109,60 154,80 230,103 91,28 100,36 94,89 -4,33 -31,56 -66,57 -14,0 -41,5 -60,10 -20,5 -81,11 -136,13 -146,4 -168,30 -91,104 41,41 43,41 122,43 104,3 105,3 105,-18 0,-10 12,-32 28,-49 15,-17 34,-40 42,-50 26,-32 87,-53 154,-53 61,0 64,1 87,35 13,19 27,35 30,35 13,0 74,105 91,154 16,47 16,56 1,124 -16,70 -16,75 2,105 15,24 20,58 23,144 l 5,113 h 36 c 45,0 111,-18 111,-30 0,-5 19,-19 43,-31 23,-12 56,-32 72,-45 17,-12 56,-32 87,-44 109,-41 148,-75 198,-175 59,-119 95,-200 116,-266 9,-30 19,-56 21,-58 7,-10 42,33 48,60 9,41 24,45 32,9 3,-18 12,-34 20,-37 17,-7 52,32 59,66 3,14 10,45 16,69 14,56 6,314 -10,320 -7,2 -12,14 -12,26 0,44 -49,68 -91,45 -25,-13 -39,2 -70,71 -22,49 -104,152 -171,216 -41,40 -118,86 -166,99 -12,4 -30,19 -39,33 -73,116 -218,272 -398,428 -66,57 -142,123 -169,147 -113,97 -179,164 -202,202 -22,38 -23,45 -14,120 5,44 14,105 20,135 5,30 12,84 15,120 4,36 10,96 16,134 14,103 1,328 -24,401 -29,87 -90,213 -128,266 -121,167 -249,307 -318,347 -25,14 -55,34 -65,44 -11,10 -38,27 -61,38 -22,11 -49,33 -58,50 -34,57 -139,170 -216,233 -130,106 -119,91 -114,161 5,51 1,73 -22,130 -74,184 -245,394 -383,469 -87,47 -214,71 -240,45 z m 167,-96 c 23,-16 23,-16 2,-24 -28,-10 -46,-2 -60,28 -6,14 -11,27 -11,30 0,5 32,-11 69,-34 z m -707,-112 c 21,0 20,-1 -7,-30 -28,-29 -28,-29 -57,-12 -16,9 -36,24 -44,33 -13,14 -11,20 18,48 l 32,32 18,-36 c 13,-24 25,-35 40,-35 z m 885,-12 c 13,-13 23,-33 23,-50 0,-23 -4,-28 -25,-28 -22,0 -25,-4 -25,-39 0,-24 5,-41 14,-44 22,-9 56,-94 56,-139 v -39 l 38,3 c 37,3 37,3 42,53 l 5,50 13,-34 c 6,-19 12,-51 12,-72 0,-38 1,-39 34,-39 24,0 35,-5 38,-18 4,-16 -7,-14 -86,17 -72,28 -109,36 -177,39 l -87,4 5,101 c 5,99 4,104 -25,160 -26,48 -28,57 -14,57 9,1 33,9 52,20 46,25 79,25 107,-2 z m -886,-341 c -3,-71 12,-97 77,-138 37,-23 48,-37 52,-62 l 5,-32 h 65 c 44,0 76,6 100,19 19,10 51,22 70,27 19,4 60,15 90,24 352,105 458,92 687,-79 132,-99 134,-107 19,-87 -68,12 -196,13 -236,2 -19,-5 -26,-15 -28,-38 -3,-30 -5,-31 -65,-38 -34,-4 -100,-21 -147,-37 -158,-54 -150,-53 -200,-30 -68,31 -214,39 -288,16 -31,-10 -62,-25 -69,-33 -11,-14 -12,-11 -13,14 0,48 -25,75 -69,75 -33,0 -39,4 -54,35 -9,20 -17,40 -17,46 0,18 -63,173 -86,209 -31,51 -66,121 -74,150 l -7,25 83,-4 c 82,-3 84,-3 85,20 v 24 l 11,-25 c 6,-14 10,-51 9,-83 z m 1204,-508 c 87,-14 129,-28 83,-29 -26,0 -28,-3 -28,-40 v -40 l 113,6 c 61,4 115,11 118,16 28,43 404,-302 474,-435 11,-20 23,-37 27,-37 5,0 8,-5 8,-11 0,-6 8,-23 19,-37 30,-44 50,-119 67,-247 17,-131 16,-158 -21,-390 -46,-288 -43,-434 14,-601 l 19,-57 -53,56 c -30,31 -74,65 -101,77 -27,12 -58,30 -69,40 -32,28 -82,40 -166,40 h -79 v -45 c 0,-40 3,-47 26,-55 14,-6 46,-10 70,-10 29,0 65,-10 100,-27 84,-41 84,-49 0,-45 -86,5 -140,-8 -189,-45 -30,-23 -36,-34 -37,-65 v -38 h 55 c 32,0 55,4 55,11 0,24 65,38 133,29 116,-17 225,-91 291,-201 26,-43 50,-87 53,-99 5,-21 4,-20 -21,5 -23,23 -33,26 -84,23 l -57,-3 v -40 c 0,-33 4,-41 22,-43 12,-2 26,-9 32,-16 9,-10 -2,-14 -54,-19 -36,-4 -85,-15 -108,-25 -65,-30 -131,-99 -151,-157 -9,-27 -24,-60 -34,-73 l -17,-22 -53,52 c -72,72 -112,134 -112,174 0,18 -4,45 -10,59 -9,23 -15,26 -47,23 -37,-3 -38,-4 -41,-46 -8,-106 37,-210 133,-314 35,-38 74,-92 86,-119 21,-46 25,-49 60,-49 41,0 49,11 49,65 0,18 7,38 14,45 8,6 59,14 113,17 84,5 96,3 81,-8 -21,-18 -44,-87 -52,-161 l -7,-58 h -40 -39 v -43 c 0,-43 0,-43 -31,-39 -23,3 -29,8 -23,21 3,9 9,35 11,59 l 6,42 h -35 c -20,0 -41,-7 -48,-15 -25,-31 -65,-21 -232,59 -42,20 -81,36 -87,36 -6,0 -11,17 -11,39 0,54 -23,103 -66,141 -33,28 -42,32 -81,27 -26,-3 -46,0 -51,7 -4,6 -21,54 -39,106 l -32,95 h -43 c -41,0 -43,-1 -46,-33 -3,-27 10,-80 36,-150 3,-10 -3,-13 -23,-10 -24,3 -31,11 -46,56 -42,123 -33,244 26,365 42,84 164,202 261,250 57,29 166,57 220,57 33,0 34,1 34,39 0,40 0,40 -46,47 -65,9 -148,-1 -226,-30 -50,-18 -90,-43 -156,-99 -49,-42 -102,-91 -119,-110 -42,-48 -83,-135 -99,-210 -15,-69 -18,-259 -5,-325 l 8,-42 h -52 -52 l -67,75 c -37,42 -85,85 -107,95 -21,11 -39,24 -38,28 0,4 27,20 60,36 32,16 59,33 59,38 0,4 7,8 15,8 26,0 125,113 169,192 27,48 31,87 20,172 -7,45 -7,46 -44,46 h -37 l -12,-59 c -25,-126 -116,-249 -223,-299 -71,-33 -155,-53 -196,-46 -60,10 -156,36 -167,45 -5,5 -29,9 -53,9 -38,0 -51,-7 -111,-57 -38,-32 -108,-87 -155,-123 -48,-36 -105,-80 -128,-97 -46,-38 -58,-41 -58,-13 0,14 -9,21 -36,26 -80,15 -188,-22 -200,-69 -3,-12 -20,-33 -38,-45 -35,-24 -138,-64 -196,-77 l -34,-7 42,50 c 23,27 42,59 42,71 0,22 -3,22 110,25 l 55,1 3,43 c 2,33 0,42 -12,42 -24,0 -19,15 9,28 34,16 35,15 35,-8 0,-17 7,-20 41,-20 22,0 50,5 61,11 12,6 59,11 105,10 l 83,-1 v 45 c 0,43 -1,45 -30,45 -39,0 -39,19 -2,89 83,157 173,268 277,341 53,36 194,110 212,110 7,0 16,6 19,14 3,7 23,21 44,31 58,26 203,16 292,-19 35,-14 81,-26 101,-26 36,0 37,1 37,38 0,25 -6,44 -17,54 -24,19 -69,38 -93,38 -30,0 -33,19 -6,32 21,9 26,18 26,50 0,37 -1,38 -35,38 -45,0 -85,-20 -118,-60 -26,-30 -50,-37 -76,-21 -12,8 -13,16 -3,49 7,22 12,56 12,76 0,34 -1,36 -35,36 -30,0 -37,-4 -50,-36 -8,-20 -15,-58 -15,-84 0,-43 -3,-48 -26,-54 -15,-4 -28,-6 -29,-4 -1,2 -10,18 -20,37 -10,19 -35,56 -56,83 -104,133 -261,441 -293,578 -49,210 -49,211 -44,321 3,60 10,115 15,122 6,6 16,30 23,52 13,40 92,196 114,225 6,8 20,31 30,50 26,49 152,169 200,191 46,21 116,25 134,7 8,-8 2,-16 -27,-30 -47,-23 -151,-115 -151,-134 0,-8 -4,-14 -10,-14 -5,0 -10,-18 -10,-40 0,-39 1,-40 35,-40 27,0 35,4 35,18 0,9 21,31 45,47 25,17 46,35 46,40 1,6 5,-10 9,-35 6,-33 4,-49 -6,-61 -8,-8 -14,-18 -14,-22 0,-3 -13,-25 -28,-49 -16,-24 -36,-65 -46,-93 -10,-27 -23,-61 -29,-74 -16,-33 -16,-133 1,-138 6,-3 12,-11 12,-19 0,-11 10,-14 37,-12 37,3 38,4 46,53 13,84 48,178 82,220 18,22 36,51 40,64 9,30 123,143 199,196 55,39 57,41 54,82 l -3,41 60,18 c 33,10 74,22 90,26 48,14 249,35 260,27 6,-4 46,-13 90,-20 z M 3350,1864 c 25,-21 127,-120 228,-219 179,-177 271,-289 308,-372 17,-41 20,-43 61,-43 24,0 43,4 43,10 0,5 13,2 29,-8 127,-77 241,-234 241,-332 0,-37 2,-39 35,-42 l 35,-3 -17,-34 c -10,-19 -28,-41 -40,-49 -21,-13 -23,-12 -30,4 -3,11 -24,47 -46,82 -29,44 -46,62 -61,62 -12,0 -32,7 -44,16 -28,19 -154,84 -165,84 -5,0 -24,12 -43,26 -25,19 -34,34 -34,55 0,26 -4,29 -30,29 -23,0 -30,4 -30,20 0,17 -7,20 -46,20 -28,0 -51,-6 -61,-15 -27,-27 -45,-12 -74,60 -16,38 -51,102 -79,142 -27,39 -50,76 -50,82 0,6 -4,11 -9,11 -5,0 -12,8 -15,18 -4,9 -26,39 -51,67 -25,27 -45,55 -45,62 0,6 -38,49 -85,95 -47,45 -96,102 -109,125 l -24,42 37,3 c 33,3 36,6 39,36 2,19 -4,53 -13,75 l -16,42 58,-56 c 32,-31 78,-73 103,-95 z m 78,-552 c 72,-105 67,-98 92,-155 12,-26 26,-83 32,-125 11,-75 5,-172 -11,-172 -4,0 -25,25 -46,56 -21,30 -62,75 -90,99 -45,39 -51,48 -47,75 2,16 1,41 -2,55 -5,21 -12,25 -46,25 -39,0 -40,-1 -40,-33 0,-32 -2,-33 -31,-29 -42,6 -68,62 -47,100 7,13 19,27 28,30 40,14 50,34 50,104 0,66 1,68 25,68 14,0 28,7 32,16 7,20 16,10 101,-114 z M 740,1090 v -60 l -62,39 c -35,22 -64,44 -66,49 -4,14 45,30 91,31 l 37,1 z m 1386,-36 131,-7 29,-46 c 23,-36 29,-56 27,-93 -5,-104 -110,-238 -281,-356 l -82,-57 2,-47 c 3,-41 0,-47 -19,-51 -12,-2 -26,-1 -32,2 -6,4 -43,70 -82,146 -39,77 -79,151 -89,165 -27,40 -70,140 -70,165 0,12 23,52 51,89 68,90 107,109 209,101 41,-3 134,-8 206,-11 z m 1043,-84 c 21,-29 22,-34 7,-42 -24,-13 -46,-62 -46,-103 0,-19 -4,-35 -10,-35 -5,0 -10,5 -10,10 0,6 -13,10 -30,10 -36,0 -37,7 -10,92 11,34 20,78 20,96 0,32 0,32 28,18 15,-8 38,-29 51,-46 z m 161,-40 25,-20 -32,12 c -18,7 -33,16 -33,20 0,13 13,9 40,-12 z M 2438,803 c 15,-9 29,-18 31,-19 2,-2 -6,-15 -17,-29 -12,-15 -24,-46 -28,-71 -6,-43 -7,-44 -45,-44 -33,0 -39,-3 -40,-22 -1,-18 -3,-17 -8,7 -6,24 0,41 26,83 19,30 36,67 40,83 7,34 6,34 41,12 z m 902,-13 c 19,-9 58,-24 85,-33 28,-10 56,-27 64,-40 13,-20 13,-21 -2,-8 -10,8 -31,12 -52,9 -19,-2 -35,0 -35,4 0,24 -43,48 -85,48 -59,0 -69,-19 -63,-116 6,-96 16,-107 90,-102 41,3 62,0 70,-9 6,-7 21,-13 34,-13 34,0 30,-20 -14,-68 -43,-46 -58,-50 -106,-27 -95,45 -131,133 -111,273 15,104 20,112 58,105 18,-3 48,-13 67,-23 z m -558,-62 c -7,-7 -12,-21 -12,-32 0,-12 -11,-43 -25,-70 -15,-30 -25,-66 -25,-92 0,-37 5,-47 30,-66 21,-15 27,-25 20,-32 -8,-8 -13,-7 -18,0 -4,6 -38,15 -75,19 -80,8 -97,-1 -97,-51 v -34 h -72 c -40,0 -80,5 -88,10 -11,7 -3,10 31,10 53,0 69,13 69,56 0,26 -6,34 -30,44 -34,14 -45,26 -55,60 -6,20 -5,23 6,13 19,-19 133,-16 170,3 43,22 106,81 140,131 17,24 33,43 36,43 4,0 2,-5 -5,-12 z m 248,-138 c 11,-7 4,-10 -25,-10 -29,0 -36,3 -25,10 8,5 20,10 25,10 6,0 17,-5 25,-10 z m -754,-60 c 27,0 37,5 43,22 6,18 9,12 13,-28 3,-28 12,-65 21,-82 8,-18 11,-32 6,-32 -6,0 -52,21 -104,46 l -94,47 37,38 c 36,37 37,37 40,13 3,-20 9,-24 38,-24 z m 789,-236 c 112,-19 132,-29 72,-36 -24,-3 -72,-19 -106,-36 -56,-28 -61,-29 -61,-11 0,32 -61,25 -115,-13 -25,-17 -45,-35 -45,-40 0,-23 -101,-50 -114,-30 -13,21 121,130 206,167 42,18 55,18 163,-1 z m -365,3 c 0,-2 -20,-18 -45,-36 -25,-18 -45,-40 -45,-49 0,-12 -7,-9 -25,13 -32,39 -31,45 8,46 25,0 74,13 105,28 1,0 2,0 2,-2 z" />
        <path
           id="pELUf1opJ"
           d="m 2160,2646 c -64,-43 -117,-125 -165,-251 -15,-38 -31,-78 -36,-87 -5,-10 -9,-34 -9,-53 0,-33 2,-35 33,-35 47,0 54,9 81,86 43,128 106,223 174,266 27,17 32,25 32,59 0,38 -1,39 -38,39 -23,0 -51,-9 -72,-24 z" />
      </g>
    </g>
    <g
       id="l6Zj4p8EbYEFJU9zhKZdoCe"
       fill="#fba3b0">
      <g
         id="g2">
        <path
           id="pejdmeVJT"
           d="m 1825,4691 c -16,-4 -45,-16 -64,-25 -18,-10 -43,-15 -55,-12 -11,3 -27,1 -34,-3 -11,-6 -3,-24 32,-75 50,-74 62,-116 51,-184 -4,-26 -8,-63 -9,-82 l -1,-35 90,-6 c 89,-6 185,-34 278,-81 45,-23 57,-17 57,25 -1,105 -99,304 -217,435 -41,45 -75,57 -128,43 z m 202,-174 c 57,-61 96,-149 87,-197 -9,-45 -24,-36 -24,14 0,52 -47,151 -86,179 -27,21 -50,57 -36,57 5,0 32,-24 59,-53 z m -64,-34 c 29,-55 45,-137 28,-147 -7,-5 -11,6 -11,32 0,45 -34,130 -56,139 -18,7 -18,23 -1,23 8,0 25,-21 40,-47 z" />
        <path
           id="p12w3kTPJ8"
           d="m 819,4574 c -47,-124 -33,-239 43,-374 40,-69 108,-226 108,-248 0,-12 44,-109 67,-147 50,-83 77,-90 132,-36 30,30 130,66 158,57 10,-3 41,-6 68,-8 29,-1 74,-14 107,-30 l 57,-27 83,33 c 127,51 185,65 319,77 165,15 390,-8 502,-50 38,-15 35,3 -10,53 -42,46 -109,101 -268,221 -146,109 -224,138 -375,138 -104,0 -174,-13 -360,-68 -30,-9 -67,-18 -82,-20 -15,-3 -44,-14 -65,-25 -47,-25 -101,-36 -114,-23 -7,7 8,18 41,32 l 50,22 -17,23 c -10,13 -40,39 -67,58 -103,70 -173,177 -163,249 6,42 10,40 -79,43 -12,1 -30,8 -40,17 -11,9 -34,26 -51,38 l -33,22 z m 116,-70 c 22,-1 42,-3 44,-3 2,-1 -2,-8 -9,-16 -23,-27 -107,-10 -118,24 -4,11 1,12 19,6 13,-4 42,-9 64,-11 z m 23,-90 c 28,-8 9,-24 -29,-24 -43,0 -83,16 -74,30 5,7 72,4 103,-6 z m 134,-144 c 10,-17 40,-45 68,-62 36,-22 47,-35 40,-42 -25,-25 -150,70 -150,115 0,29 23,23 42,-11 z m 1178,-345 c 98,-12 118,-18 139,-40 l 26,-25 h -24 c -13,0 -55,9 -94,21 -50,15 -113,23 -216,27 -89,4 -145,11 -144,17 5,28 104,28 313,0 z m -1174,-80 c 18,-28 15,-60 -6,-60 -18,0 -44,51 -36,71 8,21 23,17 42,-11 z" />
        <path
           id="pEDtjI03o"
           d="m 1985,3834 c -112,-13 -135,-18 -240,-52 -99,-32 -149,-64 -230,-147 -60,-62 -105,-94 -105,-76 0,5 23,39 50,75 28,36 45,66 39,66 -14,0 -106,-46 -124,-62 -22,-20 -37,-31 -80,-62 -32,-22 -28,-17 18,27 54,51 129,97 185,112 12,4 22,13 22,21 0,8 -10,14 -22,14 -13,0 -36,7 -52,15 -45,24 -142,23 -197,-2 -52,-23 -177,-141 -205,-193 -10,-19 -24,-42 -30,-50 -22,-29 -101,-185 -114,-225 -7,-22 -16,-44 -20,-50 -25,-34 -28,-270 -5,-371 8,-35 22,-94 31,-131 32,-139 188,-447 293,-581 22,-27 49,-68 60,-91 16,-30 27,-41 39,-37 9,2 34,7 55,11 37,6 37,6 37,54 0,47 26,129 37,118 3,-3 0,-21 -5,-39 -6,-18 -13,-52 -16,-74 -7,-47 3,-54 82,-54 36,0 48,5 69,30 28,34 81,65 91,54 4,-4 2,-9 -5,-11 -28,-10 -94,-65 -87,-72 10,-8 45,-21 111,-41 43,-13 82,-45 70,-56 -4,-4 -30,3 -58,16 -142,61 -375,57 -412,-6 -4,-8 -14,-14 -21,-14 -17,0 -159,-74 -211,-110 -68,-48 -161,-145 -201,-212 -21,-34 -49,-79 -62,-98 -13,-19 -28,-54 -35,-77 -10,-39 -13,-42 -54,-48 -24,-3 -67,-17 -96,-29 -28,-13 -73,-31 -98,-40 -30,-11 -51,-26 -60,-44 -7,-15 -15,-30 -17,-34 -2,-3 11,-9 28,-13 57,-13 26,-28 -62,-30 -95,-3 -139,-15 -213,-59 -47,-29 -48,-31 -25,-37 48,-13 63,-9 102,32 27,28 43,38 50,31 7,-7 -12,-38 -61,-97 -39,-49 -68,-91 -65,-96 2,-4 23,-1 46,7 22,7 51,14 64,14 36,0 181,50 218,75 l 34,23 48,-27 c 27,-15 85,-50 129,-78 44,-29 81,-48 83,-43 2,5 -2,35 -7,66 -16,82 -14,134 3,134 8,0 32,15 54,33 23,17 80,61 128,97 47,36 117,91 155,123 67,56 86,65 104,48 16,-14 129,-41 197,-47 157,-15 336,86 407,228 17,33 36,87 42,119 6,32 15,59 19,59 4,0 11,-24 14,-54 6,-48 4,-61 -19,-103 -45,-80 -144,-193 -170,-193 -8,0 -15,-4 -15,-9 0,-11 -141,-81 -163,-81 -37,0 -22,-20 49,-60 52,-30 96,-65 141,-116 l 66,-74 h 89 c 48,0 88,1 88,3 0,1 -7,34 -15,72 -39,185 1,392 98,502 69,79 207,185 271,208 80,29 135,38 180,30 46,-9 47,-25 2,-25 -54,0 -163,-28 -220,-57 -97,-48 -219,-166 -261,-250 -44,-90 -58,-166 -52,-273 5,-84 28,-183 46,-201 3,-4 39,-10 80,-14 l 73,-6 -21,38 c -34,61 -63,155 -51,167 15,15 22,2 55,-99 15,-49 33,-96 38,-103 6,-8 28,-12 59,-11 41,2 53,-2 79,-27 59,-56 72,-125 43,-236 -17,-69 -91,-187 -132,-213 -15,-10 -46,-37 -70,-61 -55,-55 -160,-134 -178,-134 -32,0 -8,28 69,82 110,77 212,180 248,249 41,81 49,173 20,231 -38,76 -36,75 -156,83 -266,18 -352,17 -398,-3 -66,-29 -157,-153 -157,-213 0,-24 54,-152 80,-189 25,-36 147,-273 147,-285 -1,-5 11,-16 24,-24 44,-25 108,-7 179,49 68,55 81,58 125,32 17,-10 80,-41 140,-68 106,-47 113,-49 195,-47 141,3 219,24 311,85 53,35 85,64 98,88 l 18,35 83,3 c 46,1 86,5 89,7 11,12 -24,53 -63,74 l -44,23 -41,-26 c -23,-15 -41,-32 -41,-40 0,-7 -16,-34 -35,-60 -41,-52 -67,-58 -109,-25 -33,26 -33,34 4,104 16,31 27,61 24,66 -3,6 0,16 6,24 10,12 17,11 48,-5 21,-11 56,-20 81,-20 h 45 l -42,42 c -42,41 -58,86 -26,74 9,-3 18,-6 20,-6 2,0 4,-8 4,-18 0,-19 37,-58 83,-87 37,-24 50,-8 44,52 -5,48 0,58 18,39 8,-8 14,-36 14,-69 0,-35 7,-69 19,-94 20,-37 20,-37 25,-13 3,14 8,74 11,133 6,117 21,161 61,179 30,14 92,-8 165,-58 48,-33 90,-44 90,-24 0,21 -62,109 -88,125 -15,10 -49,34 -77,55 -54,40 -85,55 -85,40 0,-5 9,-14 19,-20 13,-7 19,-19 18,-37 -3,-41 -21,-38 -53,8 -45,65 -105,89 -225,89 -123,0 -180,-8 -208,-29 -19,-14 -21,-21 -12,-44 10,-26 6,-57 -8,-57 -4,0 -17,22 -30,49 -12,27 -50,80 -84,118 -70,76 -86,100 -109,158 -21,53 -31,132 -18,140 13,8 30,-37 30,-79 0,-20 12,-51 29,-77 36,-53 151,-169 168,-169 19,0 59,60 82,121 16,41 34,67 68,95 61,52 79,61 140,74 44,10 58,9 89,-6 19,-9 41,-25 47,-36 17,-26 47,-23 47,5 0,28 -36,87 -52,87 -8,0 -18,10 -23,22 -6,13 -19,24 -30,26 -30,6 -41,20 -22,28 34,13 66,-7 111,-67 36,-47 46,-69 46,-98 0,-37 -23,-71 -47,-71 -19,0 -43,-49 -43,-87 0,-21 8,-54 18,-73 15,-30 22,-35 61,-37 24,-2 50,-8 57,-14 12,-9 14,-3 14,35 0,25 5,46 10,46 12,0 13,-11 11,-66 -2,-38 1,-44 49,-84 28,-23 72,-72 98,-109 53,-75 67,-91 80,-91 33,0 53,171 33,286 -11,59 -36,134 -59,171 -46,74 -190,275 -211,293 -3,3 -21,22 -39,43 -37,44 -39,41 -12,-16 28,-57 41,-115 27,-124 -16,-10 -47,36 -47,71 0,53 -91,194 -153,238 -94,65 -127,79 -214,90 -91,12 -159,1 -170,-28 -5,-14 -53,-20 -53,-6 1,15 75,63 114,73 47,13 124,6 164,-14 101,-51 162,-74 162,-60 0,18 -108,121 -160,154 -76,48 -104,59 -155,59 -55,0 -95,15 -95,35 0,33 141,14 185,-25 11,-10 42,-28 69,-40 53,-23 150,-119 188,-184 13,-22 65,-83 116,-134 50,-52 92,-100 92,-106 0,-6 20,-34 45,-61 25,-28 47,-58 51,-67 3,-10 10,-18 15,-18 5,0 9,-5 9,-10 0,-6 24,-46 54,-89 29,-43 65,-109 80,-148 l 26,-69 52,6 c 29,4 54,12 56,18 5,16 42,15 42,-1 0,-7 -10,-18 -21,-25 -12,-8 -18,-17 -13,-22 11,-10 64,-1 64,11 0,5 7,9 16,9 12,0 15,-6 10,-24 -5,-20 1,-30 33,-55 21,-17 43,-31 47,-31 12,0 137,-64 166,-84 12,-9 32,-16 44,-16 15,0 32,-18 61,-63 22,-34 43,-72 47,-84 6,-19 12,-21 39,-16 50,9 77,31 97,79 20,45 36,56 46,29 8,-19 44,-20 44,-1 0,7 -5,28 -11,47 -6,19 -13,40 -15,47 -3,9 -17,6 -53,-13 -28,-14 -55,-25 -61,-25 -5,0 -10,18 -10,39 0,105 -116,259 -259,343 -55,33 -71,35 -71,8 0,-36 -26,-21 -47,28 -50,114 -140,211 -653,701 -96,92 -116,107 -122,91 -7,-20 9,-92 36,-154 11,-27 13,-43 6,-50 -15,-15 -26,1 -50,72 -57,172 -59,265 -14,552 35,218 39,304 20,445 -17,128 -37,203 -67,247 -11,14 -19,31 -19,37 0,6 -3,11 -8,11 -4,0 -16,17 -27,37 -56,107 -333,376 -441,431 -66,33 -194,70 -299,87 -55,9 -104,21 -109,26 -12,11 -40,10 -181,-7 z m 495,-104 c 0,-6 -30,-10 -69,-10 -38,0 -76,-3 -85,-6 -9,-3 -16,-1 -16,4 0,12 33,18 113,21 32,0 57,-3 57,-9 z m -780,-37 c 0,-5 -26,-26 -56,-48 -76,-54 -190,-166 -199,-196 -4,-13 -22,-42 -40,-64 -34,-43 -71,-140 -81,-218 -6,-44 -24,-77 -24,-43 0,8 -5,16 -12,18 -13,5 -14,63 -1,81 5,7 17,37 27,67 11,30 32,74 47,98 16,24 29,45 29,48 0,3 18,30 41,60 53,72 137,154 185,181 39,21 84,30 84,16 z m 540,-1062 c 0,-5 -15,-18 -32,-29 -69,-43 -135,-146 -177,-274 -12,-36 -29,-69 -37,-72 -16,-6 -17,-2 -5,22 5,9 21,49 36,87 48,126 101,208 165,251 37,26 50,29 50,15 z M 790,1336 c 0,-7 -25,-11 -77,-11 -43,0 -93,-7 -111,-14 -37,-15 -58,-6 -27,12 49,29 215,39 215,13 z m -92,-132 c 35,-10 26,-24 -17,-24 -43,0 -101,-18 -101,-31 0,-4 -9,-13 -20,-19 -30,-16 -26,6 7,36 36,34 89,49 131,38 z M 3040,933 c -11,-37 -24,-94 -27,-125 -4,-42 -10,-58 -21,-58 -33,0 8,228 46,258 25,19 26,1 2,-75 z m -525,-72 c 5,-4 38,-20 73,-34 75,-32 165,-37 194,-10 17,15 18,15 7,-15 -6,-18 -17,-32 -24,-32 -8,0 -27,-19 -44,-43 -85,-124 -215,-186 -256,-123 -24,37 -10,91 38,143 22,24 38,45 36,47 -2,1 -28,16 -56,31 -59,31 -88,59 -79,74 6,9 83,-17 111,-38 z M 2289,584 c -6,-16 -13,-24 -16,-17 -5,13 16,58 23,50 3,-2 -1,-17 -7,-33 z m 111,-13 c 0,-59 15,-88 55,-109 32,-16 34,-20 21,-31 -28,-23 -67,-9 -88,31 -27,52 -29,148 -3,148 11,0 15,-11 15,-39 z m 320,-161 c 0,-16 -89,-28 -103,-13 -4,3 -3,11 2,17 10,12 101,9 101,-4 z" />
        <path
           id="p9AtoE8Fq"
           d="m 2655,712 c -27,-31 -41,-51 -30,-43 20,15 95,92 95,98 0,13 -22,-6 -65,-55 z" />
        <path
           id="pSFsL8kDd"
           d="m 575,3334 c 38,-86 54,-109 48,-67 -6,37 -55,136 -70,141 -6,2 4,-31 22,-74 z" />
        <path
           id="pipZHZsZg"
           d="m 670,3345 c -17,-21 0,-38 37,-37 15,1 38,-4 50,-10 13,-6 26,-9 29,-6 7,7 -14,50 -30,60 -19,13 -73,8 -86,-7 z" />
        <path
           id="p3DGAP6I3"
           d="m 690,3257 c 0,-8 19,-29 42,-46 47,-35 88,-41 88,-13 0,9 3,27 6,40 6,21 3,23 -27,22 -19,-1 -51,2 -71,5 -31,6 -38,5 -38,-8 z" />
        <path
           id="pqbwnAkRF"
           d="m 3112,1328 c 15,-13 29,-32 31,-43 4,-15 5,-14 6,6 1,28 -10,41 -44,53 -16,5 -14,2 7,-16 z" />
        <path
           id="p108owcqLk"
           d="m 2965,1328 c -25,-14 -45,-34 -45,-44 0,-4 10,2 23,13 12,11 31,25 42,31 11,6 16,11 10,11 -5,0 -19,-5 -30,-11 z" />
        <path
           id="pfiKgzLqt"
           d="m 3203,829 c -22,-47 -35,-193 -22,-265 19,-107 93,-174 194,-174 42,0 52,5 81,36 49,52 75,115 81,202 8,101 -9,135 -81,158 -28,10 -67,25 -86,35 -20,11 -63,22 -96,25 -56,6 -60,5 -71,-17 z m 146,-108 c 23,-23 36,-79 26,-110 -8,-25 -50,-38 -70,-21 -20,16 -30,96 -16,126 13,29 34,31 60,5 z m 140,-78 c 12,-26 -4,-83 -23,-83 -36,0 -60,84 -34,117 13,16 42,-2 57,-34 z" />
        <path
           id="pCS3hIhMe"
           d="m 3337,658 c 8,-44 13,-48 13,-10 0,17 -4,34 -10,37 -6,4 -7,-6 -3,-27 z" />
        <path
           id="pdlClouCK"
           d="m 4369,778 c -7,-13 -19,-34 -28,-48 l -15,-25 21,18 c 12,11 26,32 32,48 12,35 6,38 -10,7 z" />
        <path
           id="pZ0f1ZfdP"
           d="m 2861,565 c -33,-46 -33,-52 0,-35 16,9 49,58 49,75 0,16 -20,0 -49,-40 z" />
        <path
           id="pMZAUEyZ4"
           d="m 2780,365 c -80,-33 -190,-65 -225,-65 -59,0 -63,-13 -22,-72 20,-29 53,-64 73,-78 19,-14 44,-33 54,-43 13,-14 33,-19 69,-19 47,1 111,24 111,40 0,12 91,74 99,67 3,-4 -7,-18 -22,-31 -16,-13 -25,-29 -22,-34 9,-15 53,-2 115,34 70,41 133,66 168,66 52,0 72,48 27,68 -36,17 -203,45 -254,43 -24,-1 -59,-8 -78,-16 -51,-22 -145,-85 -178,-122 -32,-35 -55,-43 -55,-19 0,16 114,105 191,149 32,19 46,33 42,42 -7,20 -27,18 -93,-10 z" />
      </g>
    </g>
    <g
       id="l4i3XkjhNq6j8M1JaaqXuBk"
       fill="#fbe4db"
       style="display:inline">
      <g
         id="g3">
        <path
           id="pyY9GLJHA"
           d="m 1600,4811 c 0,-10 6,-24 14,-30 8,-6 19,-25 26,-41 17,-41 69,-58 114,-36 19,9 46,16 60,16 41,0 22,26 -53,70 -53,31 -77,40 -114,40 -39,0 -47,-3 -47,-19 z" />
        <path
           id="plvGb7Djw"
           d="m 1485,4800 c -9,-14 7,-44 37,-71 36,-34 95,-65 104,-56 8,8 -20,65 -51,103 -20,24 -80,41 -90,24 z" />
        <path
           id="p1EGjkPikL"
           d="m 939,4751 c -42,-33 -89,-90 -89,-108 0,-5 23,-25 51,-45 35,-26 62,-38 84,-38 26,0 40,8 65,38 17,20 40,47 51,58 28,32 24,36 -25,29 -43,-7 -45,-6 -62,26 -9,19 -20,43 -23,55 -6,20 -8,19 -52,-15 z" />
        <path
           id="pVjBggYm5"
           d="m 2988,1337 c -35,-13 -128,-99 -128,-118 0,-5 22,-9 49,-9 45,0 53,3 77,35 27,36 50,38 41,4 -6,-23 -3,-25 46,-34 46,-9 51,11 7,27 -46,15 -31,34 24,30 43,-3 46,-1 46,21 0,14 -7,30 -15,37 -23,19 -104,22 -147,7 z" />
        <path
           id="pqFrKf3bc"
           d="m 4409,857 c -9,-7 -14,-17 -12,-23 2,-6 -12,-35 -32,-65 -39,-59 -40,-82 -4,-127 l 19,-25 v 29 c 0,38 18,102 31,110 18,11 20,-2 5,-32 -21,-44 -28,-157 -11,-180 7,-11 17,-15 21,-11 11,11 18,317 8,327 -5,5 -16,3 -25,-3 z" />
        <path
           id="p4KGkGxxu"
           d="m 2611,736 c -19,-19 -49,-38 -69,-43 -39,-9 -58,-32 -49,-57 10,-25 48,-19 103,15 40,25 124,103 124,116 0,2 -17,3 -38,3 -30,0 -45,-7 -71,-34 z" />
        <path
           id="p13TGKMaMG"
           d="m 3318,673 c -6,-28 2,-53 18,-53 11,0 14,9 12,32 -3,35 -23,49 -30,21 z" />
        <path
           id="pYLiV0ZoB"
           d="m 4250,685 c 0,-5 15,-43 41,-102 11,-24 19,-49 19,-57 0,-27 20,-28 32,-2 20,46 -31,166 -72,166 -11,0 -20,-2 -20,-5 z" />
        <path
           id="ptTU088cq"
           d="m 3442,624 c 2,-15 9,-29 16,-32 10,-3 13,4 10,24 -2,15 -9,29 -16,32 -10,3 -13,-4 -10,-24 z" />
        <path
           id="p9n4C6rxL"
           d="m 2854,594 c -16,-13 -34,-23 -40,-24 -6,0 -17,-6 -23,-14 -10,-12 -8,-17 9,-26 32,-17 68,-4 90,33 24,38 24,43 7,50 -8,3 -27,-5 -43,-19 z" />
      </g>
    </g>
  </g>
</svg>
