<?xml version="1.0" encoding="UTF-8" standalone="no"?>
<svg
   class="img-fluid"
   id="outputsvg"
   width="877"
   height="877"
   viewBox="0 0 8770 8770"
   version="1.1"
   sodipodi:docname="diastase.svg"
   xmlns:inkscape="http://www.inkscape.org/namespaces/inkscape"
   xmlns:sodipodi="http://sodipodi.sourceforge.net/DTD/sodipodi-0.dtd"
   xmlns="http://www.w3.org/2000/svg"
   xmlns:svg="http://www.w3.org/2000/svg">
  <defs
     id="defs3" />
  <sodipodi:namedview
     id="namedview3"
     pagecolor="#505050"
     bordercolor="#ffffff"
     borderopacity="1"
     inkscape:showpageshadow="0"
     inkscape:pageopacity="0"
     inkscape:pagecheckerboard="1"
     inkscape:deskcolor="#d1d1d1"
     inkscape:export-bgcolor="#ffffffff" />
  <g
     id="g4"
     transform="translate(645.25,84.875)">
    <g
       id="l22t6FXLMMMwu98gBIoMN6Z"
       fill="#5a5eaf">
      <g
         id="g1">
        <path
           id="p2cwa9fk7"
           d="m 2540,8165 c 0,-12 -16,-15 -80,-15 -47,0 -80,-4 -80,-10 0,-5 -22,-10 -49,-10 -28,0 -53,-4 -56,-10 -3,-5 -24,-10 -46,-10 -21,0 -39,-4 -39,-10 0,-5 -20,-10 -45,-10 -33,0 -45,-4 -45,-15 0,-10 -11,-15 -35,-15 -19,0 -35,-4 -35,-10 0,-5 -16,-10 -35,-10 -19,0 -35,-4 -35,-10 0,-5 -13,-10 -30,-10 -16,0 -30,-4 -30,-10 0,-5 -11,-10 -24,-10 -13,0 -26,-7 -30,-15 -3,-8 -14,-15 -25,-15 -11,0 -23,-4 -26,-10 -3,-5 -17,-10 -31,-10 -13,0 -24,-4 -24,-10 0,-5 -9,-10 -20,-10 -11,0 -20,-4 -20,-10 0,-5 -11,-10 -25,-10 -16,0 -25,-6 -25,-15 0,-8 -9,-15 -19,-15 -11,0 -23,-4 -26,-10 -3,-5 -14,-10 -23,-10 -10,0 -24,-9 -32,-20 -8,-11 -22,-20 -32,-20 -10,0 -18,-4 -18,-10 0,-5 -9,-10 -20,-10 -11,0 -20,-4 -20,-10 0,-5 -7,-10 -15,-10 -8,0 -15,-4 -15,-10 0,-5 -9,-10 -20,-10 -11,0 -20,-7 -20,-15 0,-8 -7,-15 -15,-15 -8,0 -15,-4 -15,-10 0,-5 -8,-10 -18,-10 -10,0 -24,-9 -32,-20 -8,-11 -20,-20 -26,-20 -7,0 -14,-7 -18,-15 -3,-8 -11,-15 -18,-15 -8,0 -20,-9 -28,-20 -8,-11 -20,-20 -27,-20 -7,0 -13,-4 -13,-10 0,-5 -9,-10 -20,-10 -11,0 -20,-5 -20,-10 0,-14 -66,-80 -80,-80 -5,0 -10,-6 -10,-13 0,-7 -10,-19 -21,-27 -27,-19 -125,-116 -164,-163 -16,-20 -36,-37 -42,-37 -7,0 -13,-5 -13,-10 0,-6 -15,-26 -32,-45 -45,-47 -58,-63 -58,-72 0,-5 -9,-15 -20,-23 -11,-8 -20,-20 -20,-26 0,-7 -16,-29 -35,-48 -19,-20 -35,-42 -35,-49 0,-7 -9,-19 -20,-27 -11,-8 -20,-22 -20,-30 0,-9 -9,-26 -21,-38 -11,-13 -27,-38 -35,-57 -8,-19 -19,-35 -24,-35 -6,0 -10,-7 -10,-15 0,-8 -4,-15 -10,-15 -5,0 -10,-11 -10,-25 0,-14 -4,-25 -8,-25 -5,0 -15,-16 -22,-35 -8,-20 -20,-41 -27,-47 -7,-6 -13,-19 -13,-29 0,-11 -4,-19 -10,-19 -5,0 -10,-7 -10,-15 0,-8 -9,-30 -20,-50 -11,-20 -20,-47 -20,-60 0,-16 -6,-25 -15,-25 -9,0 -15,-9 -15,-25 0,-14 -4,-25 -10,-25 -5,0 -10,-13 -10,-30 0,-16 -4,-30 -10,-30 -5,0 -10,-16 -10,-35 0,-19 -4,-35 -10,-35 -5,0 -10,-18 -10,-40 0,-29 -4,-40 -15,-40 -11,0 -15,-11 -15,-40 0,-22 -4,-40 -10,-40 -5,0 -10,-22 -10,-49 0,-28 -4,-53 -10,-56 -5,-3 -10,-28 -10,-55 0,-27 -5,-52 -10,-55 -6,-3 -10,-37 -10,-75 0,-38 -4,-72 -10,-75 -14,-8 -14,-702 0,-710 6,-3 10,-37 10,-75 0,-38 5,-72 10,-75 6,-3 10,-28 10,-55 0,-27 4,-52 10,-55 5,-3 10,-26 10,-51 0,-24 5,-44 10,-44 6,0 10,-18 10,-39 0,-25 5,-41 15,-45 9,-3 15,-18 15,-35 0,-16 5,-33 10,-36 6,-3 10,-19 10,-36 0,-16 5,-29 10,-29 6,0 10,-13 10,-30 0,-16 5,-30 10,-30 6,0 10,-16 10,-35 0,-24 5,-35 15,-35 8,0 15,-9 15,-19 0,-11 5,-23 10,-26 6,-3 10,-19 10,-36 0,-16 5,-29 10,-29 6,0 10,-9 10,-20 0,-11 5,-20 10,-20 6,0 10,-9 10,-19 0,-10 7,-21 15,-25 8,-3 15,-15 15,-26 0,-11 5,-20 10,-20 6,0 10,-9 10,-20 0,-11 5,-20 10,-20 6,0 10,-7 10,-15 0,-8 5,-15 10,-15 6,0 10,-9 10,-20 0,-11 4,-20 10,-20 5,0 12,-11 16,-25 3,-14 10,-25 15,-25 5,0 9,-8 9,-18 0,-10 9,-24 20,-32 11,-8 20,-25 20,-37 0,-14 6,-23 15,-23 9,0 18,-12 21,-30 4,-16 10,-30 15,-30 5,0 9,-7 9,-15 0,-8 6,-15 13,-15 8,0 20,-12 28,-27 8,-16 22,-35 31,-44 10,-9 18,-19 18,-23 0,-8 14,-26 57,-71 18,-19 33,-37 33,-40 0,-3 10,-17 22,-30 34,-36 48,-53 48,-60 0,-8 27,-35 35,-35 3,0 35,-29 70,-65 36,-36 68,-65 72,-65 5,0 16,-8 24,-17 9,-10 26,-25 37,-33 12,-8 22,-20 22,-27 0,-7 7,-13 15,-13 8,0 15,-4 15,-10 0,-5 6,-10 13,-10 7,0 23,-9 35,-20 12,-11 26,-20 32,-20 5,0 10,-5 10,-11 0,-16 26,-39 44,-39 9,0 16,-4 16,-10 0,-5 7,-10 15,-10 8,0 15,-4 15,-10 0,-5 6,-10 14,-10 7,0 22,-11 32,-25 10,-14 27,-25 36,-25 10,0 18,-4 18,-10 0,-5 8,-10 18,-10 9,0 30,-11 45,-24 15,-13 52,-34 82,-46 30,-12 55,-26 55,-31 0,-5 9,-9 20,-9 11,0 20,-4 20,-10 0,-5 11,-10 25,-10 14,0 25,-3 25,-7 0,-5 20,-16 45,-26 41,-17 60,-37 35,-37 -5,0 -10,-7 -10,-15 0,-8 -4,-15 -8,-15 -5,0 -16,-16 -25,-35 -9,-19 -21,-35 -27,-35 -5,0 -10,-7 -10,-15 0,-9 -9,-25 -20,-37 -11,-12 -20,-28 -20,-35 0,-7 -4,-13 -10,-13 -5,0 -10,-9 -10,-20 0,-11 -7,-23 -15,-26 -8,-4 -15,-15 -15,-25 0,-10 -4,-19 -10,-19 -5,0 -10,-11 -10,-25 0,-14 -4,-25 -10,-25 -5,0 -10,-11 -10,-24 0,-14 -5,-28 -10,-31 -6,-3 -10,-20 -10,-36 0,-17 -6,-32 -15,-35 -10,-4 -15,-20 -15,-50 0,-24 -4,-44 -10,-44 -5,0 -10,-25 -10,-55 0,-30 -4,-55 -10,-55 -6,0 -10,-65 -10,-175 0,-110 4,-175 10,-175 6,0 10,-28 10,-65 0,-37 4,-65 10,-65 6,0 10,-20 10,-45 0,-33 4,-45 15,-45 10,0 15,-10 15,-29 0,-17 5,-33 10,-36 6,-3 10,-19 10,-36 0,-16 5,-29 10,-29 6,0 10,-9 10,-20 0,-11 5,-20 10,-20 6,0 10,-11 10,-25 0,-16 6,-25 15,-25 8,0 15,-9 15,-20 0,-11 5,-20 10,-20 6,0 10,-10 10,-23 0,-12 9,-29 20,-37 11,-8 20,-25 20,-37 0,-13 5,-23 11,-23 14,0 39,-26 39,-40 0,-7 18,-29 40,-50 22,-21 40,-40 40,-44 0,-7 118,-126 125,-126 8,0 55,-48 55,-55 0,-13 29,-35 47,-35 10,0 25,-9 33,-20 8,-11 20,-20 28,-20 7,0 15,-7 18,-15 4,-8 12,-15 20,-15 8,0 14,-4 14,-10 0,-5 6,-10 13,-10 18,0 67,-24 67,-32 0,-5 11,-8 25,-8 14,0 25,-4 25,-10 0,-5 9,-10 20,-10 11,0 20,-4 20,-10 0,-5 7,-10 16,-10 26,0 114,-32 114,-41 0,-5 16,-9 35,-9 19,0 35,-4 35,-10 0,-5 24,-10 54,-10 30,0 58,-4 61,-10 8,-14 475,-14 475,0 0,6 25,10 55,10 30,0 55,5 55,10 0,6 15,10 34,10 18,0 39,7 46,15 7,8 19,15 26,15 24,0 94,24 94,32 0,5 9,8 19,8 11,0 23,5 26,10 3,6 15,10 26,10 10,0 19,3 19,8 0,9 49,32 70,32 8,0 24,11 34,25 15,20 28,25 62,25 25,0 44,-5 44,-11 0,-6 5,-9 11,-7 23,8 175,144 229,205 30,34 59,62 63,63 5,0 21,-8 35,-18 39,-26 136,-67 222,-93 69,-22 93,-24 295,-24 226,0 227,0 370,48 244,81 468,287 575,527 59,135 74,216 74,420 0,137 -6,206 -29,315 -15,70 -90,218 -153,303 -55,74 -159,171 -233,217 -40,26 -40,26 -37,182 3,176 -9,154 108,182 91,22 332,124 440,186 36,21 74,43 85,49 46,26 156,105 242,174 276,220 516,523 663,837 69,147 66,139 95,230 14,44 30,89 35,100 10,23 19,63 26,115 3,19 9,44 14,55 19,46 51,322 57,495 5,146 -8,292 -43,490 -9,47 -18,101 -20,120 -3,19 -9,44 -14,55 -5,11 -11,34 -13,50 -6,35 -42,143 -57,167 -5,10 -10,25 -10,33 0,8 -4,23 -9,33 -5,9 -17,35 -27,57 -113,261 -261,480 -474,699 -326,338 -687,546 -1120,649 -58,14 -125,28 -150,32 -99,14 -339,35 -410,35 -62,0 -80,4 -103,23 -60,47 -83,63 -109,76 -16,8 -28,18 -28,23 0,4 -6,8 -13,8 -7,0 -35,15 -62,33 -28,19 -76,46 -108,62 -31,15 -60,31 -63,36 -3,5 -14,9 -25,9 -10,0 -19,5 -19,10 0,6 -7,10 -15,10 -8,0 -29,8 -48,19 -43,24 -97,36 -97,22 0,-7 -24,-11 -60,-11 -33,0 -60,4 -60,10 0,6 -13,10 -30,10 -16,0 -30,5 -30,10 0,6 -15,10 -34,10 -19,0 -41,7 -50,15 -8,8 -28,15 -45,15 -17,0 -31,5 -31,10 0,6 -20,10 -45,10 -25,0 -45,5 -45,10 0,6 -25,10 -55,10 -30,0 -55,5 -55,10 0,6 -32,10 -75,10 -60,0 -75,3 -75,15 0,13 -46,15 -350,15 -304,0 -350,-2 -350,-15 z m 625,-466 c 368,-52 606,-134 883,-302 45,-27 82,-53 82,-57 0,-4 8,-10 18,-13 9,-2 62,-38 117,-79 118,-89 319,-287 419,-413 76,-96 146,-192 146,-200 0,-3 15,-29 33,-58 56,-88 97,-158 97,-167 0,-4 9,-25 19,-47 40,-78 71,-150 71,-166 0,-9 5,-19 10,-22 6,-3 10,-16 10,-29 0,-12 4,-26 9,-31 7,-9 34,-102 63,-220 6,-22 12,-65 14,-95 3,-30 9,-64 14,-75 30,-68 30,-593 0,-660 -5,-11 -11,-42 -14,-70 -9,-96 -57,-288 -77,-309 -5,-6 -9,-20 -9,-32 0,-13 -4,-26 -10,-29 -5,-3 -10,-15 -10,-26 0,-10 -4,-27 -10,-37 -5,-9 -21,-44 -35,-77 -15,-33 -30,-68 -36,-77 -5,-10 -9,-24 -9,-32 0,-8 -4,-16 -8,-18 -4,-1 -19,-23 -33,-48 -43,-77 -52,-91 -128,-205 -93,-138 -125,-176 -286,-339 -127,-129 -213,-204 -325,-280 -30,-21 -57,-41 -60,-45 -3,-4 -21,-15 -40,-25 -19,-9 -53,-28 -75,-41 -74,-43 -98,-55 -112,-55 -7,0 -13,-3 -13,-8 0,-4 -15,-13 -32,-20 -40,-16 -97,-41 -120,-53 -10,-5 -24,-9 -31,-9 -7,0 -32,-9 -55,-20 -22,-11 -46,-20 -52,-20 -12,0 -102,-27 -137,-41 -23,-8 -23,-10 -23,-213 0,-205 0,-205 73,-260 123,-93 250,-239 296,-341 7,-16 17,-38 22,-47 15,-29 49,-160 61,-233 19,-114 10,-283 -20,-363 -6,-15 -16,-48 -23,-75 -7,-26 -17,-47 -21,-47 -4,0 -8,-7 -8,-15 0,-16 -39,-89 -83,-155 -38,-56 -223,-240 -263,-260 -16,-8 -31,-18 -34,-21 -6,-7 -94,-52 -130,-66 -14,-6 -36,-15 -50,-21 -38,-16 -87,-29 -183,-47 -132,-25 -273,-10 -441,46 -87,29 -216,96 -216,111 0,4 -6,8 -13,8 -11,0 -34,19 -114,91 -36,34 -110,115 -138,153 -38,52 -115,204 -115,227 0,10 -4,21 -10,24 -5,3 -10,19 -10,35 0,16 -4,31 -9,34 -7,5 -20,110 -23,191 -2,52 16,236 24,241 4,3 8,23 8,45 0,21 4,39 8,39 4,0 14,21 21,48 34,115 135,269 240,367 102,94 91,60 91,288 0,211 -3,227 -43,227 -17,0 -147,40 -192,60 -11,5 -38,14 -60,21 -53,16 -285,129 -315,154 -8,6 -22,14 -30,18 -20,7 -210,141 -235,165 -11,11 -58,53 -105,93 -47,41 -97,88 -111,104 -15,17 -42,46 -60,66 -45,48 -129,151 -159,196 -34,50 -126,190 -137,208 -62,103 -153,290 -153,315 0,6 -4,18 -9,28 -26,51 -67,181 -77,242 -4,22 -11,43 -15,46 -5,3 -9,24 -9,48 0,23 -4,46 -9,52 -5,5 -12,41 -15,79 -3,39 -10,120 -16,180 -12,119 -4,411 11,421 5,3 9,38 9,79 0,41 5,77 10,80 6,3 10,28 10,56 0,27 3,49 8,49 4,0 16,38 26,85 10,47 23,88 27,91 5,3 9,16 9,29 0,13 5,27 10,30 6,3 10,17 10,31 0,13 4,24 8,24 5,0 15,19 22,43 16,50 102,231 113,235 4,2 7,7 7,12 0,14 96,168 140,225 22,28 40,55 40,58 0,4 16,22 35,41 19,20 35,39 35,44 0,5 57,66 127,137 128,130 321,294 374,317 16,7 29,16 29,19 0,18 268,159 415,220 11,4 58,20 105,34 47,15 93,31 102,36 10,5 33,9 52,9 19,0 38,5 41,10 3,6 24,10 45,10 22,0 49,5 62,11 68,30 513,50 663,28 z" />
      </g>
    </g>
    <g
       id="l7FQbz5fWpZpxeVpMfuoHrq"
       fill="#fffffe">
      <g
         id="g2">
        <path
           id="pEvJ9kh93"
           d="m 2610,7724 c -63,-7 -125,-18 -138,-23 -13,-6 -40,-11 -62,-11 -21,0 -42,-4 -45,-10 -3,-5 -22,-10 -41,-10 -19,0 -42,-4 -52,-9 -9,-5 -55,-21 -102,-36 -47,-14 -94,-30 -105,-34 -147,-61 -415,-202 -415,-220 0,-3 -13,-12 -29,-19 -53,-23 -246,-187 -374,-317 -70,-71 -127,-132 -127,-137 0,-5 -16,-24 -35,-44 -19,-19 -35,-37 -35,-41 0,-3 -18,-30 -40,-58 -44,-57 -140,-211 -140,-225 0,-5 -3,-10 -7,-12 -11,-4 -97,-185 -113,-235 -7,-24 -17,-43 -22,-43 -4,0 -8,-11 -8,-24 0,-14 -4,-28 -10,-31 -5,-3 -10,-17 -10,-30 0,-13 -4,-26 -9,-29 -4,-3 -17,-44 -27,-91 -10,-47 -22,-85 -26,-85 -5,0 -8,-22 -8,-49 0,-28 -4,-53 -10,-56 -5,-3 -10,-39 -10,-79 0,-39 -4,-76 -9,-81 -16,-16 -23,-358 -11,-480 6,-60 13,-141 16,-180 3,-38 10,-74 15,-79 5,-6 9,-29 9,-52 0,-24 4,-45 9,-48 4,-3 11,-24 15,-46 10,-61 51,-191 77,-242 5,-10 9,-22 9,-28 0,-25 91,-212 153,-315 11,-18 103,-158 137,-208 30,-45 114,-148 159,-196 18,-20 45,-49 60,-66 14,-16 64,-63 111,-104 47,-40 94,-82 105,-93 25,-24 215,-158 235,-165 8,-4 22,-12 30,-18 30,-25 262,-138 315,-154 22,-7 49,-16 60,-21 45,-20 175,-60 192,-60 39,0 43,-17 43,-197 0,-194 10,-164 -91,-258 -105,-98 -206,-252 -240,-367 -7,-27 -17,-48 -21,-48 -4,0 -8,-18 -8,-39 0,-22 -4,-42 -8,-45 -10,-6 -26,-189 -25,-271 2,-89 15,-215 24,-221 5,-3 9,-18 9,-34 0,-16 5,-32 10,-35 6,-3 10,-14 10,-24 0,-23 77,-175 115,-227 28,-38 102,-119 138,-153 80,-72 103,-91 114,-91 7,0 13,-4 13,-8 0,-15 129,-82 216,-111 112,-37 193,-52 317,-58 113,-5 274,20 365,58 12,5 34,14 50,20 39,17 126,61 132,68 3,3 18,13 34,21 40,20 225,204 263,260 44,66 83,139 83,155 0,8 4,15 8,15 4,0 14,21 21,48 7,26 17,59 23,74 31,82 41,299 20,423 -12,74 -46,204 -61,233 -5,9 -15,31 -22,47 -46,102 -173,248 -296,341 -73,55 -73,55 -73,230 0,172 0,175 23,183 35,14 125,41 137,41 6,0 30,9 52,20 23,11 48,20 55,20 7,0 21,4 31,9 23,12 80,37 120,53 17,7 32,16 32,20 0,5 6,8 13,8 14,0 38,12 112,55 22,13 56,32 75,41 19,10 37,21 40,25 3,4 30,24 60,45 112,76 198,151 325,280 161,163 193,201 286,339 76,114 85,128 128,205 14,25 29,47 33,48 4,2 8,10 8,18 0,8 4,22 9,32 6,9 21,44 36,77 14,33 30,68 35,77 6,10 10,27 10,37 0,11 5,23 10,26 6,3 10,16 10,29 0,12 4,26 9,32 20,21 68,213 77,309 3,28 9,59 14,70 31,68 30,651 0,720 -5,11 -11,45 -14,75 -2,30 -8,73 -14,95 -29,118 -56,211 -63,220 -5,5 -9,19 -9,31 0,13 -4,26 -10,29 -5,3 -10,13 -10,22 0,16 -31,88 -71,166 -10,22 -19,43 -19,47 0,9 -41,79 -97,167 -18,29 -33,55 -33,58 0,8 -70,104 -146,200 -100,126 -301,324 -419,413 -55,41 -108,77 -117,79 -10,3 -18,9 -18,13 0,4 -37,30 -82,57 -277,168 -515,250 -883,302 -97,14 -446,11 -585,-5 z m 19,-2029 c 16,-674 14,-964 -4,-995 -8,-14 -24,-43 -35,-65 -11,-22 -43,-74 -70,-115 -27,-41 -58,-94 -70,-117 -11,-24 -24,-43 -29,-43 -5,0 -14,-13 -21,-30 -7,-16 -16,-30 -21,-30 -5,0 -9,-5 -9,-10 0,-9 -42,-76 -77,-125 -5,-6 -15,-22 -23,-36 -8,-14 -53,-85 -100,-157 -47,-73 -89,-140 -95,-150 -5,-10 -19,-31 -30,-47 -32,-48 -44,-68 -62,-102 -9,-18 -20,-33 -25,-33 -4,0 -8,-8 -8,-17 -1,-16 -2,-16 -15,1 -8,11 -15,30 -15,42 0,13 -4,26 -10,29 -5,3 -10,15 -10,25 0,11 -8,34 -18,52 -10,18 -21,44 -24,58 -7,30 -27,88 -39,112 -5,10 -9,27 -9,37 0,11 -5,33 -11,48 -6,15 -15,37 -20,48 -8,21 -20,58 -42,140 -34,118 -41,141 -49,149 -4,6 -8,27 -8,47 0,21 -4,40 -9,43 -5,3 -11,20 -14,38 -3,18 -13,58 -22,88 -9,30 -19,71 -22,90 -2,19 -8,44 -13,55 -5,11 -12,45 -15,75 -3,30 -10,93 -16,140 -16,135 -22,370 -10,370 7,0 11,29 11,79 0,44 5,83 10,86 6,3 10,28 10,54 0,26 8,65 19,87 10,21 21,58 25,82 6,41 10,51 34,99 7,13 12,34 12,48 0,14 5,25 10,25 6,0 10,7 10,15 0,8 4,23 9,33 5,9 13,28 19,42 17,41 82,183 99,215 89,169 144,269 152,275 3,3 13,19 21,35 8,17 34,59 57,94 24,35 43,69 43,76 0,7 3,15 8,17 8,3 142,204 142,213 0,3 16,28 35,55 19,27 35,52 35,55 0,4 20,35 45,71 25,35 45,67 45,71 0,5 9,19 20,33 26,32 90,140 90,151 0,5 5,9 10,9 6,0 10,6 10,13 0,8 15,36 33,63 32,49 32,49 39,-596 3,-355 11,-856 17,-1115 z m 611,1647 c 0,-4 7,-17 16,-27 16,-21 107,-159 137,-209 11,-17 27,-40 37,-51 9,-11 29,-40 43,-65 14,-25 35,-55 47,-67 11,-12 20,-27 20,-33 0,-7 20,-37 45,-69 25,-31 45,-61 45,-66 0,-4 16,-27 35,-51 19,-23 35,-45 35,-49 0,-4 19,-35 43,-69 23,-33 50,-78 60,-98 10,-20 22,-40 28,-44 6,-3 15,-16 20,-27 5,-12 20,-40 34,-62 55,-87 235,-445 235,-467 0,-9 5,-20 10,-23 6,-3 10,-16 10,-29 0,-12 4,-26 9,-32 5,-5 22,-47 36,-94 15,-47 31,-89 36,-94 5,-6 9,-31 9,-57 0,-26 4,-50 9,-53 4,-3 13,-45 20,-93 36,-262 29,-436 -30,-738 -6,-27 -13,-68 -16,-90 -3,-22 -9,-44 -13,-50 -4,-5 -11,-26 -14,-45 -15,-79 -30,-130 -38,-130 -4,0 -8,-20 -8,-45 0,-25 -4,-45 -9,-45 -5,0 -11,-17 -14,-37 -6,-50 -34,-151 -53,-187 -7,-16 -14,-42 -14,-57 0,-15 -5,-31 -10,-34 -6,-3 -10,-17 -10,-31 0,-13 -4,-32 -9,-42 -5,-9 -15,-37 -22,-62 -7,-25 -16,-49 -19,-55 -4,-5 -15,-35 -24,-65 -9,-30 -19,-61 -22,-69 -3,-9 -10,-6 -24,12 -11,14 -20,28 -20,32 0,4 -20,36 -45,71 -25,34 -45,67 -45,72 0,5 -9,17 -20,27 -11,10 -20,22 -20,27 0,4 -7,16 -16,26 -22,25 -81,111 -103,152 -11,19 -28,44 -38,55 -10,11 -30,40 -45,65 -14,25 -36,55 -47,67 -12,12 -21,26 -21,32 0,5 -17,31 -39,58 -21,27 -46,64 -56,83 -9,18 -26,42 -36,53 -10,12 -19,24 -19,28 0,11 -57,94 -75,109 -8,7 -15,19 -15,27 0,7 -9,26 -19,41 -19,26 -20,66 -35,822 -9,437 -16,1053 -16,1369 0,574 0,574 30,533 17,-23 30,-45 30,-50 z" />
      </g>
    </g>
    <g
       id="l7SXmJ8ZQNnMXXlMnIt1keY"
       fill="#b51869">
      <g
         id="g3">
        <path
           id="pmoF4nNe"
           d="m 4350,8100 c 0,-6 -35,-10 -86,-10 -63,0 -89,-4 -100,-15 -10,-10 -35,-15 -70,-15 -30,0 -54,-4 -54,-10 0,-5 -24,-10 -54,-10 -39,0 -55,-4 -60,-15 -3,-10 1,-18 12,-21 9,-3 34,-14 55,-25 22,-10 45,-19 53,-19 8,0 14,-4 14,-10 0,-5 9,-10 19,-10 11,0 22,-4 25,-9 3,-5 32,-21 63,-36 32,-16 80,-43 108,-62 27,-18 55,-33 62,-33 7,0 13,-4 13,-8 0,-5 12,-15 28,-23 26,-13 49,-29 109,-76 23,-19 41,-23 103,-23 71,0 311,-21 410,-35 25,-4 92,-18 150,-32 433,-103 794,-311 1120,-649 213,-219 361,-438 474,-699 10,-22 22,-48 27,-57 5,-10 9,-25 9,-33 0,-8 5,-23 10,-33 15,-24 51,-132 57,-167 2,-16 8,-39 13,-50 5,-11 11,-36 14,-55 2,-19 11,-73 20,-120 33,-189 48,-345 43,-460 -7,-154 -40,-425 -57,-465 -5,-11 -11,-36 -14,-55 -7,-52 -16,-92 -26,-115 -5,-11 -21,-56 -35,-100 -29,-91 -26,-83 -95,-230 -147,-314 -387,-617 -663,-837 -86,-69 -196,-148 -242,-174 -11,-6 -49,-28 -85,-49 -108,-62 -349,-164 -440,-186 -117,-28 -105,-3 -108,-212 -2,-186 -2,-186 37,-212 74,-46 178,-143 233,-217 63,-85 138,-233 153,-303 22,-105 29,-175 29,-285 -1,-174 -17,-261 -74,-390 -107,-240 -331,-446 -575,-527 -141,-47 -146,-48 -340,-48 -170,1 -198,3 -265,24 -90,27 -179,66 -239,103 -25,16 -50,28 -56,28 -5,0 -39,-33 -75,-73 -64,-71 -160,-160 -223,-204 -22,-16 -26,-23 -14,-23 9,0 17,-5 17,-11 0,-16 26,-39 44,-39 9,0 16,-4 16,-10 0,-5 7,-10 15,-10 8,0 15,-4 15,-10 0,-5 6,-10 13,-10 7,0 23,-9 35,-20 12,-11 25,-20 31,-20 14,0 71,-34 71,-42 0,-5 9,-8 19,-8 11,0 23,-4 26,-10 3,-5 15,-10 26,-10 10,0 19,-4 19,-10 0,-5 14,-10 30,-10 20,0 30,-5 30,-15 0,-10 11,-15 35,-15 19,0 35,-4 35,-10 0,-5 20,-10 45,-10 25,0 45,-4 45,-10 0,-6 32,-10 75,-10 43,0 75,-4 75,-10 0,-13 297,-13 305,0 3,6 40,10 81,10 43,0 74,4 74,10 0,6 20,10 45,10 25,0 45,5 45,10 0,6 16,10 35,10 24,0 35,5 35,15 0,10 10,15 30,15 17,0 30,5 30,10 0,6 11,10 25,10 14,0 25,5 25,10 0,6 8,10 19,10 10,0 24,7 31,14 6,8 27,20 46,26 19,6 34,16 34,21 0,5 9,9 20,9 11,0 20,5 20,10 0,6 7,10 15,10 8,0 15,4 15,9 0,5 14,14 30,21 17,7 30,16 30,21 0,5 7,9 15,9 8,0 15,7 15,15 0,8 6,15 14,15 13,0 176,153 176,166 0,10 28,34 39,34 6,0 11,7 11,15 0,14 16,37 48,70 6,8 12,21 12,29 0,9 7,16 15,16 8,0 15,7 15,15 0,8 5,15 10,15 6,0 10,7 10,15 0,8 5,15 10,15 6,0 10,11 10,25 0,14 5,25 10,25 6,0 10,7 10,15 0,9 7,18 15,21 8,4 15,17 15,30 0,13 5,24 10,24 6,0 10,9 10,19 0,11 5,23 10,26 6,3 10,19 10,36 0,16 5,29 10,29 6,0 10,13 10,29 0,17 5,33 10,36 6,3 10,24 10,46 0,21 4,39 9,39 19,0 40,425 22,443 -6,6 -11,33 -11,59 0,49 -16,130 -31,160 -5,10 -9,34 -9,53 0,19 -4,35 -10,35 -5,0 -10,9 -10,19 0,11 -4,23 -10,26 -5,3 -10,19 -10,36 0,16 -4,29 -10,29 -5,0 -10,9 -10,20 0,11 -7,20 -15,20 -9,0 -15,9 -15,25 0,14 -4,25 -10,25 -5,0 -10,9 -10,20 0,11 -4,20 -10,20 -5,0 -10,7 -10,15 0,8 -4,15 -10,15 -5,0 -10,5 -10,10 0,6 -11,21 -25,34 -14,13 -25,30 -25,37 0,8 -9,21 -20,29 -11,8 -20,20 -20,26 0,7 -5,14 -11,16 -17,6 12,48 33,48 9,0 18,4 20,8 4,10 111,62 126,62 7,0 12,5 12,10 0,6 9,10 19,10 10,0 21,7 24,15 3,8 28,24 54,36 26,12 55,30 64,40 9,11 24,19 33,19 9,0 16,5 16,10 0,6 6,10 13,10 7,0 21,11 31,25 10,14 25,25 32,25 8,0 14,5 14,10 0,6 6,10 13,10 7,0 19,9 27,20 8,11 22,20 32,20 10,0 18,7 18,15 0,8 5,15 11,15 6,0 23,12 37,28 15,15 49,45 76,67 65,52 139,128 156,160 7,14 19,25 26,25 8,0 16,11 20,25 3,14 10,25 15,25 16,0 79,68 79,85 0,8 7,15 15,15 8,0 15,6 15,13 0,7 9,19 20,27 11,8 20,22 20,32 0,10 5,18 10,18 6,0 10,6 10,14 0,8 7,16 15,19 8,4 23,24 35,47 11,22 25,40 30,40 6,0 10,9 10,20 0,11 4,20 9,20 5,0 15,16 22,35 7,19 17,35 21,35 4,0 8,9 8,20 0,11 7,20 15,20 9,0 15,9 15,25 0,14 3,25 8,25 4,0 20,27 35,60 16,33 33,62 38,65 5,4 9,15 9,26 0,10 5,19 10,19 6,0 10,9 10,19 0,11 5,23 10,26 6,3 10,15 10,26 0,10 4,19 9,19 5,0 12,16 15,35 4,19 11,35 16,35 6,0 10,9 10,20 0,11 5,20 10,20 6,0 10,16 10,35 0,19 5,35 10,35 6,0 10,16 10,35 0,19 5,35 10,35 6,0 10,16 10,35 0,22 6,38 15,41 9,4 15,19 15,35 0,16 4,37 9,47 5,9 14,60 20,112 5,52 15,96 21,98 6,2 10,40 10,93 0,53 4,89 10,89 6,0 10,105 10,295 0,190 -4,295 -10,295 -6,0 -10,35 -10,84 0,46 -4,86 -9,88 -6,2 -15,44 -21,93 -6,50 -16,104 -21,121 -5,17 -9,44 -9,61 0,18 -6,33 -15,37 -9,3 -15,18 -15,36 0,16 -4,30 -10,30 -5,0 -10,14 -10,30 0,17 -4,30 -10,30 -5,0 -10,16 -10,35 0,19 -4,35 -10,35 -5,0 -10,16 -10,35 0,24 -5,35 -15,35 -8,0 -15,9 -15,19 0,11 -4,23 -10,26 -5,3 -10,19 -10,36 0,16 -4,29 -10,29 -5,0 -10,9 -10,20 0,11 -4,20 -10,20 -5,0 -10,9 -10,20 0,11 -7,23 -15,26 -8,4 -15,12 -15,18 0,18 -24,66 -32,66 -5,0 -8,11 -8,25 0,14 -4,25 -10,25 -5,0 -10,7 -10,15 0,8 -4,15 -10,15 -5,0 -17,17 -27,38 -9,20 -25,46 -35,56 -10,11 -18,27 -18,35 0,9 -9,22 -20,29 -11,7 -20,18 -20,25 0,6 -16,30 -35,52 -19,22 -35,44 -35,50 0,6 -9,17 -20,25 -11,8 -20,20 -20,27 0,7 -5,13 -10,13 -6,0 -14,8 -17,18 -4,9 -19,29 -35,44 -15,14 -28,31 -28,37 0,6 -5,11 -11,11 -11,0 -39,24 -39,34 0,7 -198,206 -204,206 -9,0 -76,70 -76,80 0,5 -7,10 -15,10 -8,0 -15,5 -15,10 0,6 -6,10 -13,10 -7,0 -23,9 -35,20 -12,11 -26,20 -32,20 -5,0 -10,7 -10,15 0,8 -8,15 -18,15 -10,0 -24,9 -32,20 -8,11 -20,20 -27,20 -7,0 -13,5 -13,10 0,6 -6,10 -14,10 -7,0 -22,11 -32,25 -10,14 -27,25 -36,25 -10,0 -18,5 -18,10 0,6 -7,10 -15,10 -8,0 -15,5 -15,10 0,6 -9,10 -20,10 -11,0 -20,7 -20,15 0,8 -9,15 -20,15 -11,0 -20,5 -20,10 0,6 -10,10 -23,10 -12,0 -29,9 -37,20 -8,11 -25,20 -37,20 -13,0 -23,5 -23,10 0,6 -9,10 -20,10 -11,0 -20,4 -20,8 0,4 -20,14 -46,21 -25,7 -51,20 -59,27 -7,8 -23,14 -34,14 -12,0 -21,5 -21,10 0,6 -13,10 -30,10 -16,0 -30,5 -30,10 0,6 -13,10 -29,10 -17,0 -33,5 -36,10 -3,6 -19,10 -36,10 -19,0 -29,5 -29,15 0,10 -11,15 -35,15 -19,0 -35,5 -35,10 0,6 -20,10 -45,10 -25,0 -45,4 -45,9 0,9 -38,15 -162,27 -41,4 -58,10 -58,20 0,11 -21,14 -100,14 -60,0 -100,4 -100,10 0,6 -87,10 -240,10 -153,0 -240,-4 -240,-10 z" />
        <path
           id="pz43c0LUM"
           d="m 2578,7479 c -26,-28 -53,-66 -60,-85 -6,-19 -16,-34 -20,-34 -4,0 -8,-4 -8,-9 0,-11 -64,-119 -90,-151 -11,-14 -20,-28 -20,-33 0,-4 -20,-36 -45,-71 -25,-36 -45,-67 -45,-71 0,-3 -16,-28 -35,-55 -19,-27 -35,-52 -35,-55 0,-9 -134,-210 -142,-213 -5,-2 -8,-10 -8,-17 0,-7 -19,-41 -43,-76 -23,-35 -49,-77 -57,-94 -8,-16 -18,-32 -21,-35 -8,-6 -63,-106 -152,-275 -17,-32 -82,-174 -99,-215 -6,-14 -14,-33 -19,-42 -5,-10 -9,-25 -9,-33 0,-8 -4,-15 -10,-15 -5,0 -10,-11 -10,-25 0,-14 -4,-34 -10,-45 -5,-11 -14,-29 -20,-40 -5,-10 -13,-38 -16,-62 -4,-24 -15,-61 -25,-82 -11,-22 -19,-61 -19,-87 0,-26 -5,-51 -10,-54 -6,-3 -10,-42 -10,-86 0,-49 -4,-79 -11,-79 -12,0 -6,-300 10,-430 6,-47 13,-110 16,-140 3,-30 10,-64 15,-75 5,-11 11,-36 13,-55 3,-19 13,-60 22,-90 9,-30 19,-70 22,-88 3,-18 9,-35 14,-38 5,-3 9,-22 9,-43 0,-20 4,-41 8,-47 8,-8 15,-31 49,-149 22,-82 34,-119 42,-140 5,-11 14,-33 20,-48 6,-15 11,-37 11,-48 0,-10 4,-27 9,-37 12,-24 32,-82 39,-112 3,-14 14,-40 24,-58 10,-18 18,-41 18,-52 0,-10 5,-22 10,-25 6,-3 10,-15 10,-25 0,-34 33,-90 52,-90 10,0 18,7 18,15 0,8 5,15 10,15 6,0 10,7 10,15 0,8 4,15 8,15 5,0 16,15 25,33 18,34 30,54 62,102 11,16 25,37 30,47 6,10 48,77 95,150 47,72 92,143 100,157 8,14 18,30 23,36 35,49 77,116 77,125 0,5 4,10 9,10 5,0 14,13 21,30 7,17 16,30 21,30 5,0 18,19 29,43 12,23 43,76 70,117 27,41 59,93 70,115 11,22 28,51 36,65 13,22 14,100 8,645 -4,341 -10,764 -14,940 -4,176 -9,535 -9,798 -1,262 -5,477 -8,477 -4,0 -28,-23 -55,-51 z" />
        <path
           id="p8ti5Cksx"
           d="m 3154,7516 c -8,-20 1,-1994 9,-2016 3,-8 8,-199 12,-425 5,-386 7,-412 25,-437 11,-15 20,-34 20,-41 0,-8 7,-20 15,-27 18,-15 75,-98 75,-109 0,-4 9,-16 19,-28 10,-11 27,-35 36,-53 10,-19 35,-56 56,-83 22,-27 39,-53 39,-58 0,-6 9,-20 21,-32 11,-12 33,-42 47,-67 15,-25 35,-54 45,-65 10,-11 27,-36 38,-55 22,-41 81,-127 103,-152 9,-10 16,-22 16,-26 0,-5 9,-17 20,-27 11,-10 20,-22 20,-27 0,-5 20,-38 45,-72 25,-35 45,-67 45,-70 0,-4 12,-23 27,-42 41,-55 63,-44 93,46 14,41 28,80 31,85 3,6 11,30 18,55 7,25 17,53 22,62 5,10 9,29 9,42 0,14 5,28 10,31 6,3 10,19 10,34 0,15 7,41 14,57 19,36 47,137 53,187 3,20 9,37 14,37 5,0 9,20 9,45 0,25 4,45 8,45 8,0 23,51 38,130 3,19 10,40 14,45 4,6 10,28 13,50 3,22 10,63 16,90 48,247 64,426 51,595 -12,157 -31,289 -42,296 -4,3 -8,27 -8,53 0,26 -4,51 -9,57 -5,5 -21,47 -36,94 -14,47 -31,89 -36,94 -5,6 -9,20 -9,32 0,13 -4,26 -10,29 -5,3 -10,14 -10,23 0,22 -180,380 -235,467 -14,22 -29,50 -34,62 -5,11 -14,24 -20,27 -6,4 -18,24 -28,44 -10,20 -37,65 -60,98 -24,34 -43,65 -43,69 0,4 -16,26 -35,49 -19,24 -35,47 -35,51 0,5 -20,35 -45,66 -25,32 -45,62 -45,69 0,6 -9,21 -20,33 -12,12 -33,42 -47,67 -14,25 -34,54 -43,65 -10,11 -26,34 -37,51 -30,50 -121,188 -137,209 -9,10 -16,22 -16,27 0,6 -82,131 -101,152 -5,5 -11,2 -15,-8 z" />
      </g>
    </g>
  </g>
</svg>
