<?xml version="1.0" encoding="UTF-8" standalone="no"?>
<svg
   viewBox="0 0 250 250"
   aria-labelledby="triple-logo"
   class="navbar__logo logo"
   version="1.1"
   id="svg3"
   sodipodi:docname="triple.svg"
   width="250"
   height="250"
   xmlns:inkscape="http://www.inkscape.org/namespaces/inkscape"
   xmlns:sodipodi="http://sodipodi.sourceforge.net/DTD/sodipodi-0.dtd"
   xmlns="http://www.w3.org/2000/svg"
   xmlns:svg="http://www.w3.org/2000/svg"
   xmlns:rdf="http://www.w3.org/1999/02/22-rdf-syntax-ns#"
   xmlns:cc="http://creativecommons.org/ns#"
   xmlns:dc="http://purl.org/dc/elements/1.1/">
  <defs
     id="defs3" />
  <sodipodi:namedview
     id="namedview3"
     pagecolor="#505050"
     bordercolor="#ffffff"
     borderopacity="1"
     inkscape:showpageshadow="0"
     inkscape:pageopacity="0"
     inkscape:pagecheckerboard="1"
     inkscape:deskcolor="#d1d1d1"
     inkscape:export-bgcolor="#ffffffff" />
  <title
     id="triple-logo">Triple Logo</title>
  <g
     id="g3"
     transform="matrix(0.84137882,0,0,0.84137882,27.26152,82.405441)">
    <path
       fill-rule="evenodd"
       clip-rule="evenodd"
       d="m 73.7883,58.1616 4.0599,5.9824 c 0.2003,0.2931 0.5265,0.45 0.8548,0.45 0.2002,0 0.4005,-0.0557 0.578,-0.1775 0.4707,-0.318 0.5967,-0.958 0.2725,-1.4307 l -4.0823,-6.0155 -0.0488,0.0346 z M 103.215,37.3373 v 26.2245 c 0,0.5739 0.462,1.0322 1.032,1.0322 0.572,0 1.03,-0.4583 1.03,-1.0322 V 36.368 c 0,-0.1516 -0.032,-0.2957 -0.091,-0.4255 z M 231.031,62.5274 H 213.929 V 50.9909 h 12.69 c 0.57,0 1.031,-0.4583 1.031,-1.0322 0,-0.5636 -0.461,-1.0282 -1.031,-1.0282 h -12.69 V 37.394 h 17.102 c 0.568,0 1.03,-0.4583 1.03,-1.0322 0,-0.5678 -0.462,-1.0261 -1.03,-1.0261 h -18.135 c -0.569,0 -1.03,0.4583 -1.03,1.0261 v 27.1979 c 0,0.5698 0.461,1.0323 1.03,1.0323 h 18.135 c 0.568,0 1.03,-0.4625 1.03,-1.0323 0,-0.5677 -0.462,-1.0323 -1.03,-1.0323 z m -40.718,0.0021 H 175.308 V 36.3638 c 0,-0.5677 -0.463,-1.026 -1.034,-1.026 -0.57,0 -1.031,0.4583 -1.031,1.026 v 27.198 c 0,0.5698 0.461,1.0322 1.031,1.0322 h 16.039 c 0.572,0 1.032,-0.4624 1.032,-1.0322 0,-0.5678 -0.46,-1.0323 -1.032,-1.0323 z M 143.63,35.3378 h -12.753 c -0.571,0 -1.032,0.4624 -1.032,1.0302 v 27.1938 c 0,0.5739 0.461,1.0322 1.032,1.0322 0.568,0 1.031,-0.4583 1.031,-1.0322 V 53.0616 h 11.722 c 4.889,0 8.865,-3.9742 8.865,-8.8629 0,-4.8867 -3.976,-8.8609 -8.865,-8.8609 z m 0,15.6593 H 131.908 V 37.4002 h 11.722 c 3.753,0 6.8,3.0493 6.8,6.7985 0,3.7512 -3.047,6.7984 -6.8,6.7984 z"
       fill="#0e0940"
       class="logo__text"
       id="path1" />
    <path
       fill-rule="evenodd"
       clip-rule="evenodd"
       d="m 66.8258,63.0902 -2.2152,1.5679 h -10.43 v -2.3742 l 3.4209,-0.929 V 38.4904 L 54.1806,37.613 v -2.3742 h 15.4323 c 5.9354,0 9.0322,2.8903 9.0322,8.0516 0,5.6774 -6.9677,7.7419 -6.9677,7.7419 l 3.7366,5.9786 -3.9142,2.7708 -0.4317,0.3056 -4.2423,-8.2808 h -3.871 v 9.5484 l 3.871,0.929 z m 39.2162,-27.7534 -4.744,3.3572 v -0.183 l -4.0722,-0.7948 v -2.3794 h 7.2262 z M 67.2903,48.4517 H 63.1612 V 38.1291 h 3.6129 c 3.7492,0 6.1936,1.4121 6.1936,5.1613 0,3.7512 -1.9283,5.1613 -5.6774,5.1613 z m -55.742,-3.9536 v -9.1602 l 25.4091,-0.0011 v 9.1613 h -2.6013 l -1.2955,-6.1058 h -6.1729 v 22.9213 l 4.3045,0.9755 v 2.3639 h -6.7406 -7.1381 v -2.3639 l 4.2994,-0.9755 V 38.3923 h -6.2091 l -1.2748,6.1058 z"
       fill="#0e0940"
       class="logo__text"
       id="path2" />
    <path
       fill-rule="evenodd"
       clip-rule="evenodd"
       d="M 18.7432,97.1164 2.35918,3.2738 108.944,32.9615 l 0.326,0.0909 -33.8476,23.9525 -3.9226,2.7768 -8.5925,6.082 z M 118.998,31.1283 2.11144,0.333934 C 0.949115,-0.0686463 0.127437,0.600257 0.288469,1.82245 L 17.1576,99.7383 c 0.1611,1.2227 1.1252,1.6577 2.1471,0.9637 l 55.4405,-37.487 1.7095,-1.1562 26.7623,-18.0954 2.062,-1.3957 13.979,-9.4513 c 1.022,-0.6896 0.902,-1.5835 -0.26,-1.9881 z"
       fill="#ff4f68"
       id="path3" />
  </g>
  <metadata
     id="metadata3">
    <rdf:RDF>
      <cc:Work
         rdf:about="">
        <dc:title>Triple Logo</dc:title>
      </cc:Work>
    </rdf:RDF>
  </metadata>
</svg>
