<svg width="800" height="400" viewBox="0 0 800 400" xmlns="http://www.w3.org/2000/svg"><defs><pattern id="satori_pattern_id_1" x="0" y="0" width="0.125" height="0.25" patternUnits="objectBoundingBox"><radialGradient id="satori_radial_id_1"><stop offset="0" stop-color="#4e46e589"/><stop offset="0.03" stop-color="#4e46e589"/><stop offset="0" stop-color="transparent"/><stop offset="1" stop-color="transparent"/></radialGradient><mask id="satori_mask_id_1"><rect x="0" y="0" width="100" height="100" fill="#fff"/></mask><rect x="0" y="0" width="100" height="100" fill="transparent"/><circle cx="75" cy="75" width="100" height="100" r="106.06601717798213" fill="url(#satori_radial_id_1)" mask="url(#satori_mask_id_1)"/></pattern><pattern id="satori_pattern_id_0" x="0" y="0" width="0.125" height="0.25" patternUnits="objectBoundingBox"><radialGradient id="satori_radial_id_0"><stop offset="0" stop-color="#4e46e589"/><stop offset="0.03" stop-color="#4e46e589"/><stop offset="0" stop-color="transparent"/><stop offset="1" stop-color="transparent"/></radialGradient><mask id="satori_mask_id_0"><rect x="0" y="0" width="100" height="100" fill="#fff"/></mask><rect x="0" y="0" width="100" height="100" fill="transparent"/><circle cx="25" cy="25" width="100" height="100" r="106.06601717798213" fill="url(#satori_radial_id_0)" mask="url(#satori_mask_id_0)"/></pattern></defs><mask id="satori_om-id"><rect x="0" y="0" width="800" height="400" fill="#fff"/></mask><rect x="0" y="0" width="800" height="400" fill="black"/><rect x="0" y="0" width="800" height="400" fill="url(#satori_pattern_id_1)"/><rect x="0" y="0" width="800" height="400" fill="url(#satori_pattern_id_0)"/><mask id="satori_om-id-0"><rect x="312" y="120" width="177" height="28" fill="#fff"/></mask><clipPath id="satori_cp-id-0-0"><rect x="312" y="120" width="177" height="28"/></clipPath><mask id="satori_om-id-0-0"><rect x="312" y="120" width="177" height="28" fill="#fff"/></mask><image x="312" y="120" width="177" height="28" href="data:image/svg+xml;utf8,%3Csvg  fill=%22none%22 xmlns=%22http://www.w3.org/2000/svg%22 width=%22176.99999999999997%22 height=%2227.999999999999996%22 viewBox=%220 0 177 28%22%3E%3Crect x=%220.5%22 y=%220.5%22 width=%22116.25%22 height=%2227%22 fill=%22white%22 stroke=%22black%22%3E%3C/rect%3E%3Crect x=%22117.25%22 width=%2259.5%22 height=%2228%22 fill=%22black%22%3E%3C/rect%3E%3Crect x=%22117.25%22 y=%221.25%22 width=%2258.5%22 height=%2225.5%22 stroke=%22white%22 stroke-width=%220.5%22%3E%3C/rect%3E%3Cpath d=%22M6.174 21C6.118 21 6.09 20.965 6.09 20.895L6.111 6.46798C6.111 6.41198 6.146 6.38398 6.216 6.38398H8.547C8.617 6.38398 8.652 6.41198 8.652 6.46798L8.631 12.18H11.781V6.46798C11.781 6.41198 11.809 6.38398 11.865 6.38398H14.196C14.266 6.38398 14.301 6.41198 14.301 6.46798L14.343 20.895C14.343 20.965 14.308 21 14.238 21H11.886C11.816 21 11.781 20.965 11.781 20.895V14.721H8.631V20.895C8.631 20.965 8.603 21 8.547 21H6.174Z%22 fill=%22black%22%3E%3C/path%3E%3Cpath d=%22M26.6408 21C26.5848 21 26.5568 20.965 26.5568 20.895L26.5778 6.46798C26.5778 6.41198 26.6058 6.38398 26.6618 6.38398H33.4028C33.4588 6.38398 33.4868 6.41898 33.4868 6.48898V8.84098C33.4868 8.89698 33.4588 8.92498 33.4028 8.92498H29.0978V12.201H33.4028C33.4588 12.201 33.4868 12.229 33.4868 12.285L33.5078 14.658C33.5078 14.714 33.4798 14.742 33.4238 14.742H29.0978V18.417H33.4238C33.4798 18.417 33.5078 18.452 33.5078 18.522V20.916C33.5078 20.972 33.4798 21 33.4238 21H26.6408Z%22 fill=%22black%22%3E%3C/path%3E%3Cpath d=%22M45.9592 21C45.9032 21 45.8752 20.965 45.8752 20.895L45.8962 6.48898C45.8962 6.41898 45.9312 6.38398 46.0012 6.38398H48.3322C48.4022 6.38398 48.4372 6.41898 48.4372 6.48898L48.4162 18.417H52.7422C52.8122 18.417 52.8472 18.452 52.8472 18.522V20.895C52.8472 20.965 52.8122 21 52.7422 21H45.9592Z%22 fill=%22black%22%3E%3C/path%3E%3Cpath d=%22M64.8058 21C64.7498 21 64.7218 20.965 64.7218 20.895L64.7428 6.48898C64.7428 6.41898 64.7778 6.38398 64.8478 6.38398H67.1788C67.2488 6.38398 67.2838 6.41898 67.2838 6.48898L67.2628 18.417H71.5888C71.6588 18.417 71.6938 18.452 71.6938 18.522V20.895C71.6938 20.965 71.6588 21 71.5888 21H64.8058Z%22 fill=%22black%22%3E%3C/path%3E%3Cpath d=%22M87.1664 21.21C86.4104 21.21 85.7174 21.021 85.0874 20.643C84.4714 20.251 83.9744 19.74 83.5964 19.11C83.2184 18.466 83.0294 17.759 83.0294 16.989L83.0504 10.332C83.0504 9.56198 83.2324 8.86198 83.5964 8.23198C83.9744 7.60198 84.4784 7.09798 85.1084 6.71998C85.7384 6.34198 86.4244 6.15298 87.1664 6.15298C87.9224 6.15298 88.6084 6.34198 89.2244 6.71998C89.8404 7.09798 90.3304 7.60198 90.6944 8.23198C91.0724 8.86198 91.2614 9.56198 91.2614 10.332L91.2824 16.989C91.2824 17.759 91.0934 18.466 90.7154 19.11C90.3514 19.74 89.8544 20.251 89.2244 20.643C88.6084 21.021 87.9224 21.21 87.1664 21.21ZM87.1664 18.669C87.5864 18.669 87.9504 18.501 88.2584 18.165C88.5804 17.815 88.7414 17.423 88.7414 16.989L88.7204 10.332C88.7204 9.86998 88.5734 9.47798 88.2794 9.15598C87.9854 8.83398 87.6144 8.67298 87.1664 8.67298C86.7324 8.67298 86.3614 8.83398 86.0534 9.15598C85.7454 9.46398 85.5914 9.85598 85.5914 10.332V16.989C85.5914 17.451 85.7454 17.85 86.0534 18.186C86.3614 18.508 86.7324 18.669 87.1664 18.669Z%22 fill=%22black%22%3E%3C/path%3E%3Cpath d=%22M103.463 21C103.407 21 103.379 20.965 103.379 20.895L103.421 6.46798C103.421 6.41198 103.449 6.38398 103.505 6.38398H107.537C108.335 6.38398 109.049 6.57998 109.679 6.97198C110.309 7.34998 110.806 7.85398 111.17 8.48398C111.534 9.11398 111.716 9.79998 111.716 10.542C111.716 11.144 111.576 11.704 111.296 12.222C111.03 12.74 110.708 13.16 110.33 13.482C110.736 13.888 111.051 14.357 111.275 14.889C111.499 15.421 111.611 15.981 111.611 16.569C111.611 17.381 111.415 18.123 111.023 18.795C110.631 19.467 110.099 20.006 109.427 20.412C108.769 20.804 108.034 21 107.222 21H103.463ZM105.941 12.18H107.537C108.027 12.18 108.419 12.012 108.713 11.676C109.021 11.326 109.175 10.948 109.175 10.542C109.175 10.094 109.014 9.70898 108.692 9.38698C108.37 9.05098 107.985 8.88298 107.537 8.88298H105.941V12.18ZM105.92 18.438H107.222C107.726 18.438 108.16 18.256 108.524 17.892C108.888 17.514 109.07 17.073 109.07 16.569C109.07 16.065 108.888 15.631 108.524 15.267C108.16 14.903 107.726 14.721 107.222 14.721H105.941L105.92 18.438Z%22 fill=%22black%22%3E%3C/path%3E%3Cpath d=%22M122.626 20.895L125.23 6.46803C125.244 6.41203 125.279 6.38403 125.335 6.38403H128.38C128.436 6.38403 128.471 6.41203 128.485 6.46803L130.984 20.895C130.998 20.965 130.97 21 130.9 21H128.569C128.513 21 128.478 20.965 128.464 20.895L128.233 19.362H125.377L125.146 20.895C125.132 20.965 125.097 21 125.041 21H122.71C122.654 21 122.626 20.965 122.626 20.895ZM125.797 17.115H127.813L126.952 11.214L126.826 10.437L126.742 11.214L125.797 17.115Z%22 fill=%22white%22%3E%3C/path%3E%3Cpath d=%22M142.886 21C142.83 21 142.802 20.965 142.802 20.895L142.844 6.46803C142.844 6.41203 142.872 6.38403 142.928 6.38403H147.17C147.926 6.38403 148.619 6.57303 149.249 6.95103C149.893 7.31503 150.404 7.81203 150.782 8.44203C151.16 9.05803 151.349 9.75803 151.349 10.542C151.349 11.06 151.272 11.529 151.118 11.949C150.964 12.355 150.782 12.705 150.572 12.999C150.362 13.279 150.173 13.489 150.005 13.629C150.761 14.469 151.139 15.456 151.139 16.59L151.16 20.895C151.16 20.965 151.125 21 151.055 21H148.682C148.626 21 148.598 20.979 148.598 20.937V16.59C148.598 16.086 148.416 15.652 148.052 15.288C147.702 14.91 147.268 14.721 146.75 14.721H145.364L145.343 20.895C145.343 20.965 145.315 21 145.259 21H142.886ZM145.364 12.201H147.17C147.604 12.201 147.989 12.04 148.325 11.718C148.661 11.396 148.829 11.004 148.829 10.542C148.829 10.094 148.661 9.70903 148.325 9.38703C148.003 9.06503 147.618 8.90403 147.17 8.90403H145.364V12.201Z%22 fill=%22white%22%3E%3C/path%3E%3Cpath d=%22M165.123 21C165.067 21 165.039 20.965 165.039 20.895V8.92503H162.309C162.239 8.92503 162.204 8.89003 162.204 8.82003L162.225 6.46803C162.225 6.41203 162.253 6.38403 162.309 6.38403H170.289C170.359 6.38403 170.394 6.41203 170.394 6.46803V8.82003C170.394 8.89003 170.366 8.92503 170.31 8.92503H167.559L167.58 20.895C167.58 20.965 167.552 21 167.496 21H165.123Z%22 fill=%22white%22%3E%3C/path%3E%3Ccircle cx=%22117%22 cy=%2221%22 r=%222.25%22 fill=%22black%22%3E%3C/circle%3E%3Ccircle cx=%22117%22 cy=%2221%22 r=%222.25%22 stroke=%22black%22 stroke-width=%220.5%22%3E%3C/circle%3E%3Ccircle cx=%22117%22 cy=%2221%22 r=%222.25%22 stroke=%22white%22 stroke-width=%220.5%22%3E%3C/circle%3E%3C/svg%3E" preserveAspectRatio="none" clip-path="url(#satori_cp-id-0-0)" mask="url(#satori_om-id-0-0)"/><mask id="satori_om-id-0-0-0"><rect x="312" y="120" width="0" height="28" fill="#fff"/></mask><mask id="satori_om-id-0-0-1"><rect x="312" y="120" width="0" height="28" fill="#fff"/></mask><mask id="satori_om-id-0-0-2"><rect x="312" y="120" width="0" height="28" fill="#fff"/></mask><mask id="satori_om-id-0-0-3"><rect x="312" y="120" width="0" height="28" fill="#fff"/></mask><mask id="satori_om-id-0-0-4"><rect x="312" y="120" width="0" height="28" fill="#fff"/></mask><mask id="satori_om-id-0-0-5"><rect x="312" y="120" width="0" height="28" fill="#fff"/></mask><mask id="satori_om-id-0-0-6"><rect x="312" y="120" width="0" height="28" fill="#fff"/></mask><mask id="satori_om-id-0-0-7"><rect x="312" y="120" width="0" height="28" fill="#fff"/></mask><mask id="satori_om-id-0-0-8"><rect x="312" y="120" width="0" height="28" fill="#fff"/></mask><mask id="satori_om-id-0-0-9"><rect x="312" y="120" width="0" height="28" fill="#fff"/></mask><mask id="satori_om-id-0-0-10"><rect x="312" y="120" width="0" height="28" fill="#fff"/></mask><mask id="satori_om-id-0-0-11"><rect x="312" y="120" width="0" height="28" fill="#fff"/></mask><mask id="satori_om-id-0-0-12"><rect x="312" y="120" width="0" height="28" fill="#fff"/></mask><mask id="satori_om-id-0-0-13"><rect x="312" y="120" width="0" height="28" fill="#fff"/></mask><mask id="satori_om-id-0-0-14"><rect x="312" y="120" width="0" height="28" fill="#fff"/></mask><mask id="satori_om-id-1"><rect x="220" y="178" width="360" height="73" fill="#fff"/></mask><mask id="satori_om-id-1-0"><rect x="220" y="178" width="360" height="73" fill="#fff"/></mask><path fill="white" d="M235.0 227.5L222.5 227.5L222.5 198.5L234.2 198.5Q237.4 198.5 239.5 199.4Q241.7 200.4 242.8 202.0Q243.8 203.7 243.8 205.9L243.8 205.9Q243.8 207.6 243.2 208.9Q242.5 210.2 241.3 211.0Q240.1 211.8 238.6 212.2L238.6 212.2L238.6 212.4Q240.2 212.5 241.7 213.4Q243.2 214.2 244.1 215.8Q245.0 217.4 245.0 219.5L245.0 219.5Q245.0 221.8 243.8 223.6Q242.7 225.4 240.5 226.5Q238.2 227.5 235.0 227.5L235.0 227.5ZM228.7 214.8L228.7 222.5L233.7 222.5Q236.3 222.5 237.4 221.5Q238.6 220.5 238.6 218.9L238.6 218.9Q238.6 217.7 238.0 216.8Q237.5 215.8 236.4 215.3Q235.3 214.8 233.8 214.8L233.8 214.8L228.7 214.8ZM228.7 203.4L228.7 210.6L233.2 210.6Q234.5 210.6 235.5 210.2Q236.5 209.7 237.1 208.9Q237.6 208.1 237.6 206.9L237.6 206.9Q237.6 205.4 236.5 204.4Q235.4 203.4 233.4 203.4L233.4 203.4L228.7 203.4ZM255.1 228.0L255.1 228.0Q253.0 228.0 251.3 227.2Q249.7 226.5 248.8 225.0Q247.8 223.6 247.8 221.4L247.8 221.4Q247.8 219.6 248.5 218.4Q249.2 217.2 250.3 216.4Q251.5 215.7 252.9 215.3Q254.4 214.9 256.0 214.7L256.0 214.7Q257.9 214.5 259.1 214.4Q260.3 214.2 260.8 213.8Q261.3 213.5 261.3 212.8L261.3 212.8L261.3 212.7Q261.3 211.3 260.5 210.6Q259.6 209.9 258.1 209.9L258.1 209.9Q256.4 209.9 255.5 210.6Q254.5 211.3 254.2 212.4L254.2 212.4L248.6 211.9Q249.0 209.9 250.3 208.5Q251.5 207.0 253.5 206.2Q255.5 205.4 258.1 205.4L258.1 205.4Q259.9 205.4 261.6 205.9Q263.3 206.3 264.6 207.2Q265.9 208.1 266.6 209.5Q267.4 210.9 267.4 212.8L267.4 212.8L267.4 227.5L261.6 227.5L261.6 224.5L261.4 224.5Q260.9 225.5 260.0 226.3Q259.2 227.1 257.9 227.5Q256.7 228.0 255.1 228.0ZM256.8 223.8L256.8 223.8Q258.1 223.8 259.2 223.2Q260.2 222.7 260.8 221.8Q261.3 220.9 261.3 219.7L261.3 219.7L261.3 217.4Q261.1 217.6 260.6 217.8Q260.1 217.9 259.5 218.0Q258.9 218.2 258.3 218.2Q257.6 218.3 257.1 218.4L257.1 218.4Q256.1 218.6 255.3 218.9Q254.5 219.2 254.0 219.8Q253.6 220.4 253.6 221.2L253.6 221.2Q253.6 222.5 254.5 223.1Q255.4 223.8 256.8 223.8ZM278.1 227.5L272.1 227.5L272.1 205.7L277.9 205.7L277.9 209.5L278.2 209.5Q278.8 207.5 280.2 206.5Q281.6 205.4 283.4 205.4L283.4 205.4Q283.8 205.4 284.4 205.5Q284.9 205.5 285.3 205.6L285.3 205.6L285.3 211.0Q284.9 210.9 284.1 210.8Q283.4 210.7 282.7 210.7L282.7 210.7Q281.4 210.7 280.4 211.2Q279.3 211.8 278.7 212.8Q278.1 213.9 278.1 215.2L278.1 215.2L278.1 227.5ZM288.0 205.7L301.1 205.7L301.1 210.3L288.0 210.3L288.0 205.7ZM291.0 221.6L291.0 200.5L297.0 200.5L297.0 220.8Q297.0 221.7 297.3 222.1Q297.5 222.6 298.0 222.8Q298.4 223.0 299.0 223.0L299.0 223.0Q299.5 223.0 299.9 222.9Q300.3 222.8 300.6 222.8L300.6 222.8L301.5 227.3Q301.1 227.4 300.2 227.6Q299.4 227.8 298.2 227.8L298.2 227.8Q296.0 227.9 294.4 227.3Q292.8 226.6 291.8 225.2Q290.9 223.8 291.0 221.6L291.0 221.6Z M327.2 205.7L333.6 205.7L325.9 227.5L319.1 227.5L311.5 205.7L317.9 205.7L322.4 221.3L322.6 221.3L327.2 205.7ZM342.3 228.0L342.3 228.0Q340.2 228.0 338.6 227.2Q336.9 226.5 336.0 225.0Q335.0 223.6 335.0 221.4L335.0 221.4Q335.0 219.6 335.7 218.4Q336.4 217.2 337.5 216.4Q338.7 215.7 340.1 215.3Q341.6 214.9 343.2 214.7L343.2 214.7Q345.1 214.5 346.3 214.4Q347.5 214.2 348.0 213.8Q348.5 213.5 348.5 212.8L348.5 212.8L348.5 212.7Q348.5 211.3 347.7 210.6Q346.8 209.9 345.3 209.9L345.3 209.9Q343.6 209.9 342.7 210.6Q341.7 211.3 341.4 212.4L341.4 212.4L335.8 211.9Q336.2 209.9 337.5 208.5Q338.7 207.0 340.7 206.2Q342.7 205.4 345.3 205.4L345.3 205.4Q347.1 205.4 348.8 205.9Q350.5 206.3 351.8 207.2Q353.1 208.1 353.8 209.5Q354.6 210.9 354.6 212.8L354.6 212.8L354.6 227.5L348.8 227.5L348.8 224.5L348.7 224.5Q348.1 225.5 347.2 226.3Q346.4 227.1 345.1 227.5Q343.9 228.0 342.3 228.0ZM344.0 223.8L344.0 223.8Q345.3 223.8 346.4 223.2Q347.4 222.7 348.0 221.8Q348.6 220.9 348.6 219.7L348.6 219.7L348.6 217.4Q348.3 217.6 347.8 217.8Q347.3 217.9 346.7 218.0Q346.1 218.2 345.5 218.2Q344.8 218.3 344.3 218.4L344.3 218.4Q343.3 218.6 342.5 218.9Q341.7 219.2 341.3 219.8Q340.8 220.4 340.8 221.2L340.8 221.2Q340.8 222.5 341.7 223.1Q342.6 223.8 344.0 223.8ZM365.3 214.9L365.3 214.9L365.3 227.5L359.3 227.5L359.3 205.7L365.0 205.7L365.0 209.6L365.3 209.6Q366.0 207.7 367.7 206.6Q369.4 205.4 371.8 205.4L371.8 205.4Q374.1 205.4 375.8 206.4Q377.5 207.4 378.4 209.3Q379.4 211.1 379.4 213.7L379.4 213.7L379.4 227.5L373.3 227.5L373.3 214.7Q373.3 212.7 372.3 211.6Q371.3 210.5 369.4 210.5L369.4 210.5Q368.2 210.5 367.3 211.0Q366.4 211.5 365.8 212.5Q365.3 213.5 365.3 214.9Z M402.1 227.9L402.1 227.9Q399.6 227.9 397.6 226.6Q395.6 225.3 394.4 222.8Q393.2 220.3 393.2 216.7L393.2 216.7Q393.2 212.9 394.4 210.4Q395.6 207.9 397.6 206.7Q399.6 205.4 402.0 205.4L402.0 205.4Q403.9 205.4 405.1 206.1Q406.3 206.7 407.1 207.6Q407.9 208.5 408.3 209.4L408.3 209.4L408.4 209.4L408.4 198.5L414.5 198.5L414.5 227.5L408.5 227.5L408.5 224.0L408.3 224.0Q407.8 225.0 407.1 225.8Q406.3 226.7 405.0 227.3Q403.8 227.9 402.1 227.9ZM404.0 223.1L404.0 223.1Q405.4 223.1 406.5 222.3Q407.5 221.5 408.0 220.0Q408.6 218.6 408.6 216.6L408.6 216.6Q408.6 214.7 408.0 213.3Q407.5 211.8 406.5 211.0Q405.4 210.3 404.0 210.3L404.0 210.3Q402.5 210.3 401.5 211.1Q400.4 211.9 399.9 213.3Q399.4 214.7 399.4 216.6L399.4 216.6Q399.4 218.5 399.9 220.0Q400.5 221.4 401.5 222.3Q402.5 223.1 404.0 223.1ZM429.4 228.0L429.4 228.0Q426.0 228.0 423.6 226.6Q421.2 225.2 419.9 222.7Q418.6 220.2 418.6 216.7L418.6 216.7Q418.6 213.4 419.9 210.8Q421.2 208.3 423.5 206.9Q425.9 205.4 429.1 205.4L429.1 205.4Q431.3 205.4 433.2 206.1Q435.0 206.8 436.4 208.2Q437.8 209.6 438.6 211.7Q439.4 213.7 439.4 216.5L439.4 216.5L439.4 218.2L421.0 218.2L421.0 214.4L433.7 214.4Q433.7 213.1 433.1 212.1Q432.6 211.1 431.6 210.5Q430.6 210.0 429.2 210.0L429.2 210.0Q427.9 210.0 426.8 210.6Q425.7 211.2 425.1 212.3Q424.5 213.3 424.5 214.6L424.5 214.6L424.5 218.2Q424.5 219.8 425.1 221.0Q425.7 222.2 426.8 222.8Q428.0 223.5 429.5 223.5L429.5 223.5Q430.5 223.5 431.3 223.2Q432.2 222.9 432.8 222.3Q433.4 221.7 433.7 220.9L433.7 220.9L439.3 221.3Q438.8 223.3 437.5 224.8Q436.2 226.3 434.1 227.1Q432.1 228.0 429.4 228.0ZM449.4 227.5L443.3 227.5L443.3 205.7L449.2 205.7L449.2 209.5L449.4 209.5Q450.0 207.5 451.4 206.5Q452.8 205.4 454.7 205.4L454.7 205.4Q455.1 205.4 455.7 205.5Q456.2 205.5 456.6 205.6L456.6 205.6L456.6 211.0Q456.2 210.9 455.4 210.8Q454.6 210.7 454.0 210.7L454.0 210.7Q452.7 210.7 451.6 211.2Q450.6 211.8 450.0 212.8Q449.4 213.9 449.4 215.2L449.4 215.2L449.4 227.5Z M481.5 227.5L469.1 227.5L469.1 198.5L480.7 198.5Q483.9 198.5 486.1 199.4Q488.2 200.4 489.3 202.0Q490.4 203.7 490.4 205.9L490.4 205.9Q490.4 207.6 489.7 208.9Q489.0 210.2 487.8 211.0Q486.6 211.8 485.1 212.2L485.1 212.2L485.1 212.4Q486.8 212.5 488.2 213.4Q489.7 214.2 490.6 215.8Q491.5 217.4 491.5 219.5L491.5 219.5Q491.5 221.8 490.4 223.6Q489.2 225.4 487.0 226.5Q484.8 227.5 481.5 227.5L481.5 227.5ZM475.2 214.8L475.2 222.5L480.2 222.5Q482.8 222.5 484.0 221.5Q485.2 220.5 485.2 218.9L485.2 218.9Q485.2 217.7 484.6 216.8Q484.0 215.8 482.9 215.3Q481.9 214.8 480.4 214.8L480.4 214.8L475.2 214.8ZM475.2 203.4L475.2 210.6L479.8 210.6Q481.1 210.6 482.0 210.2Q483.0 209.7 483.6 208.9Q484.2 208.1 484.2 206.9L484.2 206.9Q484.2 205.4 483.1 204.4Q481.9 203.4 479.9 203.4L479.9 203.4L475.2 203.4ZM501.4 227.5L495.4 227.5L495.4 205.7L501.3 205.7L501.3 209.5L501.5 209.5Q502.1 207.5 503.5 206.5Q504.9 205.4 506.7 205.4L506.7 205.4Q507.2 205.4 507.7 205.5Q508.2 205.5 508.6 205.6L508.6 205.6L508.6 211.0Q508.2 210.9 507.5 210.8Q506.7 210.7 506.1 210.7L506.1 210.7Q504.7 210.7 503.7 211.2Q502.7 211.8 502.1 212.8Q501.4 213.9 501.4 215.2L501.4 215.2L501.4 227.5ZM517.4 228.0L517.4 228.0Q515.3 228.0 513.6 227.2Q512.0 226.5 511.1 225.0Q510.1 223.6 510.1 221.4L510.1 221.4Q510.1 219.6 510.8 218.4Q511.4 217.2 512.6 216.4Q513.8 215.7 515.2 215.3Q516.7 214.9 518.3 214.7L518.3 214.7Q520.2 214.5 521.4 214.4Q522.5 214.2 523.1 213.8Q523.6 213.5 523.6 212.8L523.6 212.8L523.6 212.7Q523.6 211.3 522.7 210.6Q521.9 209.9 520.4 209.9L520.4 209.9Q518.7 209.9 517.8 210.6Q516.8 211.3 516.5 212.4L516.5 212.4L510.9 211.9Q511.3 209.9 512.6 208.5Q513.8 207.0 515.8 206.2Q517.8 205.4 520.4 205.4L520.4 205.4Q522.2 205.4 523.9 205.9Q525.5 206.3 526.8 207.2Q528.1 208.1 528.9 209.5Q529.6 210.9 529.6 212.8L529.6 212.8L529.6 227.5L523.9 227.5L523.9 224.5L523.7 224.5Q523.2 225.5 522.3 226.3Q521.4 227.1 520.2 227.5Q519.0 228.0 517.4 228.0ZM519.1 223.8L519.1 223.8Q520.4 223.8 521.4 223.2Q522.5 222.7 523.1 221.8Q523.6 220.9 523.6 219.7L523.6 219.7L523.6 217.4Q523.4 217.6 522.9 217.8Q522.4 217.9 521.8 218.0Q521.2 218.2 520.5 218.2Q519.9 218.3 519.4 218.4L519.4 218.4Q518.4 218.6 517.6 218.9Q516.8 219.2 516.3 219.8Q515.9 220.4 515.9 221.2L515.9 221.2Q515.9 222.5 516.8 223.1Q517.7 223.8 519.1 223.8ZM540.6 228.0L540.6 228.0Q538.5 228.0 536.8 227.2Q535.2 226.5 534.3 225.0Q533.3 223.6 533.3 221.4L533.3 221.4Q533.3 219.6 534.0 218.4Q534.7 217.2 535.8 216.4Q537.0 215.7 538.4 215.3Q539.9 214.9 541.5 214.7L541.5 214.7Q543.4 214.5 544.6 214.4Q545.8 214.2 546.3 213.8Q546.8 213.5 546.8 212.8L546.8 212.8L546.8 212.7Q546.8 211.3 546.0 210.6Q545.1 209.9 543.6 209.9L543.6 209.9Q541.9 209.9 541.0 210.6Q540.0 211.3 539.7 212.4L539.7 212.4L534.1 211.9Q534.5 209.9 535.8 208.5Q537.0 207.0 539.0 206.2Q541.0 205.4 543.6 205.4L543.6 205.4Q545.4 205.4 547.1 205.9Q548.8 206.3 550.0 207.2Q551.3 208.1 552.1 209.5Q552.9 210.9 552.9 212.8L552.9 212.8L552.9 227.5L547.1 227.5L547.1 224.5L546.9 224.5Q546.4 225.5 545.5 226.3Q544.7 227.1 543.4 227.5Q542.2 228.0 540.6 228.0ZM542.3 223.8L542.3 223.8Q543.6 223.8 544.7 223.2Q545.7 222.7 546.3 221.8Q546.8 220.9 546.8 219.7L546.8 219.7L546.8 217.4Q546.6 217.6 546.1 217.8Q545.6 217.9 545.0 218.0Q544.4 218.2 543.8 218.2Q543.1 218.3 542.6 218.4L542.6 218.4Q541.6 218.6 540.8 218.9Q540.0 219.2 539.5 219.8Q539.1 220.4 539.1 221.2L539.1 221.2Q539.1 222.5 540.0 223.1Q540.9 223.8 542.3 223.8ZM567.0 216.7L563.0 221.3L563.1 214.0L563.9 214.0L570.9 205.7L577.9 205.7L568.5 216.7L567.0 216.7ZM563.6 227.5L557.6 227.5L557.6 198.5L563.6 198.5L563.6 227.5ZM578.3 227.5L571.2 227.5L564.8 218.0L568.8 213.8L578.3 227.5Z "/><mask id="satori_om-id-2"><rect x="305" y="251" width="191" height="29" fill="#fff"/></mask><clipPath id="satori_bct-id-2-0"><path d="M310.2 273.5L306.5 273.5L306.5 256.0L313.4 256.0Q315.4 256.0 316.8 256.8Q318.2 257.5 318.9 258.9Q319.7 260.2 319.7 261.9L319.7 261.9Q319.7 263.7 318.9 265.0Q318.2 266.3 316.7 267.1Q315.3 267.8 313.3 267.8L313.3 267.8L308.9 267.8L308.9 264.8L312.7 264.8Q313.8 264.8 314.5 264.5Q315.2 264.1 315.5 263.4Q315.9 262.8 315.9 261.9L315.9 261.9Q315.9 261.1 315.5 260.4Q315.2 259.8 314.5 259.4Q313.8 259.0 312.7 259.0L312.7 259.0L310.2 259.0L310.2 273.5ZM326.7 273.7L326.7 273.7Q324.7 273.7 323.3 272.9Q321.8 272.1 321.0 270.6Q320.2 269.0 320.2 267.0L320.2 267.0Q320.2 265.0 321.0 263.4Q321.8 261.9 323.2 261.1Q324.7 260.2 326.6 260.2L326.6 260.2Q327.9 260.2 329.0 260.6Q330.1 261.0 331.0 261.9Q331.8 262.7 332.3 263.9Q332.7 265.2 332.7 266.9L332.7 266.9L332.7 267.8L321.7 267.8L321.7 265.6L329.3 265.6Q329.3 264.8 329.0 264.2Q328.6 263.6 328.0 263.3Q327.4 262.9 326.7 262.9L326.7 262.9Q325.8 262.9 325.2 263.3Q324.6 263.7 324.2 264.3Q323.8 264.9 323.8 265.7L323.8 265.7L323.8 267.9Q323.8 268.8 324.2 269.5Q324.6 270.2 325.2 270.6Q325.9 271.0 326.8 271.0L326.8 271.0Q327.4 271.0 327.9 270.8Q328.4 270.7 328.8 270.3Q329.1 270.0 329.3 269.5L329.3 269.5L332.7 269.7Q332.4 270.9 331.6 271.8Q330.8 272.7 329.6 273.2Q328.4 273.7 326.7 273.7ZM337.7 273.5L334.1 273.5L334.1 260.4L337.6 260.4L337.6 262.7L337.8 262.7Q338.1 261.4 339.0 260.8Q339.8 260.2 340.9 260.2L340.9 260.2Q341.2 260.2 341.5 260.2Q341.8 260.3 342.1 260.3L342.1 260.3L342.1 263.5Q341.8 263.5 341.4 263.4Q340.9 263.3 340.5 263.3L340.5 263.3Q339.7 263.3 339.1 263.7Q338.5 264.0 338.1 264.6Q337.7 265.3 337.7 266.1L337.7 266.1L337.7 273.5ZM353.8 264.1L353.8 264.1L350.5 264.3Q350.4 263.9 350.1 263.5Q349.8 263.2 349.4 263.0Q348.9 262.8 348.3 262.8L348.3 262.8Q347.5 262.8 346.9 263.1Q346.3 263.5 346.3 264.1L346.3 264.1Q346.3 264.5 346.7 264.9Q347.1 265.2 348.0 265.4L348.0 265.4L350.3 265.9Q352.2 266.3 353.2 267.1Q354.1 268.0 354.1 269.4L354.1 269.4Q354.1 270.7 353.4 271.7Q352.6 272.6 351.3 273.2Q350.0 273.7 348.3 273.7L348.3 273.7Q345.7 273.7 344.1 272.6Q342.6 271.5 342.3 269.7L342.3 269.7L345.9 269.5Q346.1 270.3 346.7 270.7Q347.3 271.1 348.3 271.1L348.3 271.1Q349.2 271.1 349.8 270.7Q350.4 270.4 350.4 269.8L350.4 269.8Q350.4 269.3 350.0 269.0Q349.6 268.6 348.7 268.5L348.7 268.5L346.5 268.0Q344.6 267.6 343.6 266.7Q342.7 265.7 342.7 264.3L342.7 264.3Q342.7 263.0 343.4 262.1Q344.1 261.2 345.3 260.7Q346.6 260.2 348.2 260.2L348.2 260.2Q350.7 260.2 352.2 261.3Q353.6 262.3 353.8 264.1ZM361.3 273.7L361.3 273.7Q359.3 273.7 357.9 272.9Q356.4 272.0 355.7 270.5Q354.9 269.0 354.9 267.0L354.9 267.0Q354.9 264.9 355.7 263.4Q356.4 261.9 357.9 261.1Q359.3 260.2 361.3 260.2L361.3 260.2Q363.3 260.2 364.8 261.1Q366.2 261.9 367.0 263.4Q367.8 264.9 367.8 267.0L367.8 267.0Q367.8 269.0 367.0 270.5Q366.2 272.0 364.8 272.9Q363.3 273.7 361.3 273.7ZM361.3 270.9L361.3 270.9Q362.2 270.9 362.8 270.4Q363.5 269.9 363.8 269.0Q364.1 268.1 364.1 266.9L364.1 266.9Q364.1 265.8 363.8 264.9Q363.5 264.0 362.8 263.5Q362.2 263.0 361.3 263.0L361.3 263.0Q360.4 263.0 359.8 263.5Q359.2 264.0 358.9 264.9Q358.6 265.8 358.6 266.9L358.6 266.9Q358.6 268.1 358.9 269.0Q359.2 269.9 359.8 270.4Q360.4 270.9 361.3 270.9ZM372.8 265.9L372.8 265.9L372.8 273.5L369.1 273.5L369.1 260.4L372.6 260.4L372.6 262.7L372.8 262.7Q373.2 261.5 374.2 260.9Q375.2 260.2 376.7 260.2L376.7 260.2Q378.1 260.2 379.1 260.8Q380.1 261.4 380.6 262.5Q381.2 263.6 381.2 265.1L381.2 265.1L381.2 273.5L377.6 273.5L377.6 265.8Q377.6 264.6 377.0 263.9Q376.3 263.2 375.2 263.2L375.2 263.2Q374.5 263.2 374.0 263.5Q373.4 263.9 373.1 264.5Q372.8 265.1 372.8 265.9ZM386.8 273.7L386.8 273.7Q385.5 273.7 384.6 273.3Q383.6 272.8 383.0 272.0Q382.4 271.1 382.4 269.8L382.4 269.8Q382.4 268.7 382.8 268.0Q383.2 267.2 383.9 266.8Q384.6 266.3 385.5 266.1Q386.4 265.9 387.4 265.8L387.4 265.8Q388.5 265.7 389.2 265.6Q389.9 265.4 390.2 265.2Q390.5 265.0 390.5 264.6L390.5 264.6L390.5 264.5Q390.5 263.7 390.0 263.3Q389.5 262.9 388.6 262.9L388.6 262.9Q387.6 262.9 387.0 263.3Q386.5 263.7 386.3 264.4L386.3 264.4L382.9 264.1Q383.2 262.9 383.9 262.0Q384.7 261.1 385.9 260.7Q387.0 260.2 388.6 260.2L388.6 260.2Q389.7 260.2 390.7 260.5Q391.7 260.7 392.5 261.3Q393.3 261.8 393.7 262.6Q394.2 263.5 394.2 264.6L394.2 264.6L394.2 273.5L390.7 273.5L390.7 271.6L390.6 271.6Q390.3 272.3 389.8 272.7Q389.2 273.2 388.5 273.5Q387.8 273.7 386.8 273.7ZM387.8 271.2L387.8 271.2Q388.6 271.2 389.2 270.9Q389.9 270.6 390.2 270.0Q390.6 269.5 390.6 268.8L390.6 268.8L390.6 267.4Q390.4 267.5 390.1 267.6Q389.8 267.7 389.4 267.8Q389.1 267.8 388.7 267.9Q388.3 267.9 388.0 268.0L388.0 268.0Q387.4 268.1 386.9 268.3Q386.4 268.5 386.2 268.8Q385.9 269.2 385.9 269.7L385.9 269.7Q385.9 270.4 386.5 270.8Q387.0 271.2 387.8 271.2ZM396.0 256.0L399.6 256.0L399.6 273.5L396.0 273.5L396.0 256.0Z M413.9 273.5L410.3 273.5L405.3 256.0L409.3 256.0L412.2 268.1L412.4 268.1L415.6 256.0L419.0 256.0L422.2 268.2L422.3 268.2L425.2 256.0L429.3 256.0L424.3 273.5L420.7 273.5L417.3 262.1L417.2 262.1L413.9 273.5ZM434.7 273.7L434.7 273.7Q432.7 273.7 431.2 272.9Q429.8 272.1 429.0 270.6Q428.2 269.0 428.2 267.0L428.2 267.0Q428.2 265.0 429.0 263.4Q429.8 261.9 431.2 261.1Q432.6 260.2 434.6 260.2L434.6 260.2Q435.9 260.2 437.0 260.6Q438.1 261.0 438.9 261.9Q439.8 262.7 440.3 263.9Q440.7 265.2 440.7 266.9L440.7 266.9L440.7 267.8L429.7 267.8L429.7 265.6L437.3 265.6Q437.3 264.8 437.0 264.2Q436.6 263.6 436.0 263.3Q435.4 262.9 434.6 262.9L434.6 262.9Q433.8 262.9 433.2 263.3Q432.5 263.7 432.2 264.3Q431.8 264.9 431.8 265.7L431.8 265.7L431.8 267.9Q431.8 268.8 432.2 269.5Q432.5 270.2 433.2 270.6Q433.9 271.0 434.8 271.0L434.8 271.0Q435.4 271.0 435.9 270.8Q436.4 270.7 436.7 270.3Q437.1 270.0 437.3 269.5L437.3 269.5L440.6 269.7Q440.4 270.9 439.6 271.8Q438.8 272.7 437.6 273.2Q436.3 273.7 434.7 273.7ZM445.7 273.5L442.2 273.5L442.2 256.0L445.8 256.0L445.8 262.6L445.9 262.6Q446.1 262.0 446.6 261.5Q447.1 260.9 447.8 260.6Q448.5 260.2 449.6 260.2L449.6 260.2Q451.1 260.2 452.3 260.9Q453.5 261.7 454.2 263.2Q454.9 264.7 454.9 266.9L454.9 266.9Q454.9 269.1 454.2 270.6Q453.5 272.1 452.3 272.9Q451.1 273.7 449.6 273.7L449.6 273.7Q448.6 273.7 447.8 273.3Q447.1 273.0 446.6 272.4Q446.1 271.9 445.9 271.4L445.9 271.4L445.7 271.4L445.7 273.5ZM445.7 266.9L445.7 266.9Q445.7 268.1 446.0 269.0Q446.4 269.8 447.0 270.3Q447.6 270.8 448.5 270.8L448.5 270.8Q449.4 270.8 450.0 270.3Q450.6 269.8 450.9 268.9Q451.2 268.1 451.2 266.9L451.2 266.9Q451.2 265.8 450.9 264.9Q450.6 264.1 450.0 263.6Q449.4 263.1 448.5 263.1L448.5 263.1Q447.6 263.1 447.0 263.6Q446.4 264.0 446.0 264.9Q445.7 265.8 445.7 266.9ZM467.2 264.1L467.2 264.1L463.9 264.3Q463.8 263.9 463.5 263.5Q463.3 263.2 462.8 263.0Q462.3 262.8 461.7 262.8L461.7 262.8Q460.9 262.8 460.3 263.1Q459.7 263.5 459.7 264.1L459.7 264.1Q459.7 264.5 460.1 264.9Q460.5 265.2 461.4 265.4L461.4 265.4L463.7 265.9Q465.7 266.3 466.6 267.1Q467.5 268.0 467.5 269.4L467.5 269.4Q467.5 270.7 466.8 271.7Q466.0 272.6 464.7 273.2Q463.4 273.7 461.7 273.7L461.7 273.7Q459.1 273.7 457.6 272.6Q456.0 271.5 455.8 269.7L455.8 269.7L459.3 269.5Q459.5 270.3 460.1 270.7Q460.7 271.1 461.7 271.1L461.7 271.1Q462.7 271.1 463.2 270.7Q463.8 270.4 463.8 269.8L463.8 269.8Q463.8 269.3 463.4 269.0Q463.0 268.6 462.2 268.5L462.2 268.5L459.9 268.0Q458.0 267.6 457.0 266.7Q456.1 265.7 456.1 264.3L456.1 264.3Q456.1 263.0 456.8 262.1Q457.5 261.2 458.7 260.7Q460.0 260.2 461.7 260.2L461.7 260.2Q464.1 260.2 465.6 261.3Q467.0 262.3 467.2 264.1ZM472.5 273.5L468.8 273.5L468.8 260.4L472.5 260.4L472.5 273.5ZM470.6 258.7L470.6 258.7Q469.8 258.7 469.3 258.1Q468.7 257.6 468.7 256.8L468.7 256.8Q468.7 256.1 469.3 255.6Q469.8 255.0 470.6 255.0L470.6 255.0Q471.5 255.0 472.0 255.6Q472.6 256.1 472.6 256.8L472.6 256.8Q472.6 257.6 472.0 258.1Q471.5 258.7 470.6 258.7ZM473.4 260.4L481.3 260.4L481.3 263.1L473.4 263.1L473.4 260.4ZM475.2 269.9L475.2 257.2L478.8 257.2L478.8 269.4Q478.8 269.9 479.0 270.2Q479.2 270.5 479.4 270.6Q479.7 270.7 480.1 270.7L480.1 270.7Q480.3 270.7 480.6 270.7Q480.8 270.6 481.0 270.6L481.0 270.6L481.6 273.3Q481.3 273.4 480.8 273.5Q480.3 273.6 479.6 273.6L479.6 273.6Q478.3 273.7 477.3 273.3Q476.3 272.9 475.8 272.0Q475.2 271.2 475.2 269.9L475.2 269.9ZM488.5 273.7L488.5 273.7Q486.5 273.7 485.0 272.9Q483.6 272.1 482.8 270.6Q482.0 269.0 482.0 267.0L482.0 267.0Q482.0 265.0 482.8 263.4Q483.6 261.9 485.0 261.1Q486.4 260.2 488.4 260.2L488.4 260.2Q489.7 260.2 490.8 260.6Q491.9 261.0 492.7 261.9Q493.6 262.7 494.0 263.9Q494.5 265.2 494.5 266.9L494.5 266.9L494.5 267.8L483.5 267.8L483.5 265.6L491.1 265.6Q491.1 264.8 490.8 264.2Q490.4 263.6 489.8 263.3Q489.2 262.9 488.4 262.9L488.4 262.9Q487.6 262.9 487.0 263.3Q486.3 263.7 486.0 264.3Q485.6 264.9 485.6 265.7L485.6 265.7L485.6 267.9Q485.6 268.8 486.0 269.5Q486.3 270.2 487.0 270.6Q487.7 271.0 488.6 271.0L488.6 271.0Q489.2 271.0 489.7 270.8Q490.2 270.7 490.5 270.3Q490.9 270.0 491.1 269.5L491.1 269.5L494.4 269.7Q494.2 270.9 493.4 271.8Q492.6 272.7 491.4 273.2Q490.1 273.7 488.5 273.7Z "/></clipPath><defs><pattern id="satori_pattern_id-2-0_0" x="0" y="0" width="1" height="1" patternUnits="objectBoundingBox"><linearGradient id="satori_biid-2-0_0" x1="0" y1="0" x2="1" y2="0"><stop offset="0%" stop-color="rgb(121,40,202)"/><stop offset="100%" stop-color="rgb(255,0,128)"/></linearGradient><rect x="0" y="0" width="191" height="29" fill="url(#satori_biid-2-0_0)"/></pattern></defs><mask id="satori_om-id-2-0"><rect x="305" y="251" width="191" height="29" fill="#fff"/></mask><rect x="305" y="251" width="191" height="29" fill="url(#satori_pattern_id-2-0_0)" clip-path="url(#satori_bct-id-2-0)"/></svg>