<?xml version="1.0" standalone="no"?>
<!DOCTYPE svg PUBLIC "-//W3C//DTD SVG 20010904//EN"
 "http://www.w3.org/TR/2001/REC-SVG-20010904/DTD/svg10.dtd">
<svg version="1.0" xmlns="http://www.w3.org/2000/svg"
 width="512.000000pt" height="512.000000pt" viewBox="0 0 512.000000 512.000000"
 preserveAspectRatio="xMidYMid meet">
<metadata>
Created by potrace 1.14, written by Peter Selinger 2001-2017
</metadata>
<g transform="translate(0.000000,512.000000) scale(0.100000,-0.100000)"
fill="#000000" stroke="none">
<path d="M0 2560 l0 -2560 2560 0 2560 0 0 2560 0 2560 -2560 0 -2560 0 0
-2560z m4610 0 l0 -2050 -2050 0 -2050 0 0 2050 0 2050 2050 0 2050 0 0 -2050z"/>
<path d="M2820 4080 c0 -242 2 -270 16 -270 30 0 222 -69 296 -106 113 -57
214 -129 311 -223 196 -189 315 -403 373 -671 26 -119 26 -381 0 -500 -85
-393 -326 -710 -672 -887 -90 -46 -273 -113 -309 -113 -13 0 -15 -38 -15 -270
l0 -270 765 0 765 0 0 1790 0 1790 -765 0 -765 0 0 -270z"/>
<path d="M2382 3569 c-90 -16 -238 -69 -318 -115 -244 -139 -406 -343 -491
-621 -25 -82 -27 -100 -27 -273 0 -173 2 -191 27 -273 58 -187 145 -334 274
-458 131 -126 259 -201 438 -256 84 -25 102 -27 275 -27 173 0 191 2 275 27
355 108 602 355 712 713 25 83 27 101 27 274 0 173 -2 191 -27 273 -58 187
-135 317 -266 448 -132 132 -264 210 -448 265 -75 22 -111 27 -243 30 -85 1
-179 -1 -208 -7z"/>
</g>
</svg>
