<?xml version="1.0" standalone="no"?>
<!DOCTYPE svg PUBLIC "-//W3C//DTD SVG 20010904//EN"
 "http://www.w3.org/TR/2001/REC-SVG-20010904/DTD/svg10.dtd">
<svg version="1.0" xmlns="http://www.w3.org/2000/svg"
 width="700.000000pt" height="700.000000pt" viewBox="0 0 700.000000 700.000000"
 preserveAspectRatio="xMidYMid meet">
<g transform="translate(0.000000,700.000000) scale(0.100000,-0.100000)"
fill="#000000" stroke="none">
<path d="M0 3500 l0 -3500 1575 0 1575 0 0 350 0 350 -1225 0 -1225 0 0 2800
0 2800 1225 0 1225 0 0 350 0 350 -1575 0 -1575 0 0 -3500z"/>
<path d="M3850 6475 l0 -175 1225 0 1225 0 0 -2800 0 -2800 -1225 0 -1225 0 0
-175 0 -175 1400 0 1400 0 0 3150 0 3150 -1400 0 -1400 0 0 -175z"/>
<path d="M3850 5581 l0 -368 40 -7 c147 -23 466 -166 622 -278 516 -373 793
-984 728 -1606 -56 -532 -349 -1008 -798 -1297 -146 -94 -426 -211 -552 -231
l-40 -7 0 -368 0 -369 1050 0 1050 0 0 2450 0 2450 -1050 0 -1050 0 0 -369z"/>
<path d="M3322 4889 c-175 -24 -368 -89 -517 -176 -121 -69 -212 -142 -317
-252 -187 -194 -301 -410 -360 -684 -31 -145 -31 -407 0 -554 63 -294 193
-527 409 -733 200 -192 431 -311 708 -366 134 -27 396 -25 532 4 294 63 526
193 734 409 187 195 302 415 361 686 31 146 31 408 0 554 -64 294 -193 526
-410 734 -194 187 -415 303 -680 359 -114 24 -350 34 -460 19z"/>
</g>
</svg>
